<svg width="59" height="58" viewBox="0 0 59 58" fill="none" xmlns="http://www.w3.org/2000/svg">
<path fill-rule="evenodd" clip-rule="evenodd" d="M0.0711041 26.9469C0.232875 26.3915 0.310522 25.8091 0.304035 25.1999C1.45526 17.1307 5.25975 10.6281 11.7176 5.69196C18.091 1.15455 25.1954 -0.670069 33.0308 0.218084C44.2687 1.82427 52.2077 7.78344 56.848 18.0955C60.3859 27.8068 59.3377 36.9686 53.7034 45.5814C46.8207 54.7126 37.6392 58.8082 26.1594 57.8685C15.3222 56.3846 7.46083 50.7748 2.57511 41.0392C0.573105 36.5608 -0.261568 31.8634 0.0711041 26.9469Z" fill="#F98E1D"/>
<path fill-rule="evenodd" clip-rule="evenodd" d="M26.5087 2.02329C34.032 1.43281 40.787 3.39331 46.7737 7.90479C54.9555 14.9006 58.1583 23.7326 56.3821 34.4007C53.8606 44.8028 47.5132 51.6548 37.34 54.9568C27.9601 57.4367 19.4581 55.7285 11.834 49.8323C4.09362 43.0347 0.929608 34.5134 2.3421 24.2682C4.66733 13.7127 10.9371 6.66653 21.1513 3.12971C22.9291 2.64578 24.7149 2.27697 26.5087 2.02329Z" fill="#262B3F"/>
<path fill-rule="evenodd" clip-rule="evenodd" d="M37.34 8.19601C38.5591 7.98823 39.2968 8.47354 39.5529 9.65183C37.7631 15.6228 35.9385 21.582 34.079 27.5293C36.0739 28.1419 36.8309 29.4618 36.3501 31.4891C36.2656 31.5542 36.1686 31.593 36.0589 31.6056C33.0253 30.7414 30.036 29.7903 27.0911 28.7522C27.6162 26.768 28.8585 26.0499 30.818 26.5975C30.9515 26.5605 31.0487 26.4829 31.1091 26.3646C32.8944 20.6203 34.6803 14.8746 36.4665 9.12773C36.7027 8.75597 36.9939 8.44536 37.34 8.19601Z" fill="#FB8F1C"/>
<path fill-rule="evenodd" clip-rule="evenodd" d="M26.3923 30.5573C29.6024 31.5719 32.8246 32.5424 36.059 33.4689C35.7824 38.2246 34.7342 42.8056 32.9144 47.2118C31.4799 47.3222 30.0823 47.1282 28.7216 46.6295C30.1828 44.321 31.1728 41.8365 31.6915 39.1757C30.3115 41.6049 28.6616 43.8372 26.7417 45.8725C26.47 45.9501 26.1982 45.9501 25.9265 45.8725C24.661 45.4727 23.4186 45.0069 22.1996 44.4749C21.73 44.2794 21.3029 44.0272 20.9185 43.7178C22.1501 42.5751 23.2177 41.294 24.1213 39.8745C24.1989 39.7968 24.1989 39.7192 24.1213 39.6416C22.6501 41.3643 20.8449 42.6066 18.7056 43.3684C17.4203 42.6072 16.2944 41.6562 15.3281 40.515C20.0656 38.3592 23.7537 35.0399 26.3923 30.5573Z" fill="#FC8F1C"/>
</svg>
