<svg width="105" height="151" viewBox="0 0 105 151" fill="none" xmlns="http://www.w3.org/2000/svg">
<path fill-rule="evenodd" clip-rule="evenodd" d="M0 0C34.7314 0 69.4631 0 104.195 0C104.195 50.1866 104.195 100.373 104.195 150.56C69.4631 150.56 34.7314 150.56 0 150.56C0 100.373 0 50.1866 0 0Z" fill="#282A2E"/>
<path fill-rule="evenodd" clip-rule="evenodd" d="M11.9735 127.632C11.9735 124.065 11.9735 120.499 11.9735 116.932C10.7846 116.932 9.59581 116.932 8.40695 116.932C4.89485 116.094 2.81437 113.886 2.16546 110.308C1.99563 102.496 1.99563 94.6835 2.16546 86.8709C3.56022 82.2469 6.65974 80.124 11.464 80.5021C11.4215 60.7161 11.464 40.9301 11.5914 21.1443C12.0202 16.5864 14.4404 13.7417 18.8519 12.61C37.5338 12.4402 56.2159 12.4402 74.8978 12.61C76.4608 13.918 77.947 15.3191 79.356 16.8135C86.4586 24.3015 93.5069 31.8593 100.501 39.4866C100.671 68.8682 100.671 98.2501 100.501 127.632C99.795 131.395 97.6296 133.9 94.0044 135.147C68.8686 135.317 43.733 135.317 18.5971 135.147C14.8002 134.026 12.5923 131.521 11.9735 127.632Z" fill="#FFA02B"/>
<path fill-rule="evenodd" clip-rule="evenodd" d="M93.7494 131.198C69.0487 131.452 44.3375 131.537 19.6159 131.453C17.6539 130.764 16.3801 129.405 15.7946 127.377C15.7946 123.98 15.7946 120.583 15.7946 117.187C34.4347 117.272 53.0318 117.187 71.5858 116.932C74.9906 116.117 77.0712 113.994 77.8273 110.563C77.9972 102.751 77.9972 94.9384 77.8273 87.1258C77.0521 83.718 74.9715 81.5526 71.5858 80.6296C52.9039 80.5022 34.222 80.4597 15.5399 80.5022C15.4974 60.3764 15.5399 40.2508 15.6672 20.1255C16.0939 18.51 17.0705 17.3636 18.5969 16.6863C36.4295 16.5589 54.2623 16.5164 72.0953 16.5589C72.0528 22.3339 72.0953 28.1084 72.2227 33.8822C72.9065 37.8434 75.1567 40.4332 78.9737 41.6522C84.9174 41.7796 90.8615 41.8221 96.8065 41.7796C96.849 70.3971 96.8065 99.0145 96.6791 127.632C96.2116 129.245 95.2352 130.434 93.7494 131.198Z" fill="#282A2E"/>
<path fill-rule="evenodd" clip-rule="evenodd" d="M75.9167 19.1064C81.956 25.2303 87.8153 31.5143 93.4948 37.9583C88.7306 38.0334 83.9754 37.9486 79.2286 37.7035C77.3406 36.7484 76.2365 35.2199 75.9167 33.1179C75.9167 28.4475 75.9167 23.7769 75.9167 19.1064Z" fill="#282A2E"/>
<path fill-rule="evenodd" clip-rule="evenodd" d="M75.9168 19.1066C75.9168 23.777 75.9168 28.4476 75.9168 33.1181C75.7596 33.1463 75.6323 33.2312 75.5347 33.3728C75.3225 28.5302 75.365 23.6899 75.6621 18.8518C75.8167 18.8833 75.9015 18.9682 75.9168 19.1066Z" fill="#FFA02B"/>
<path fill-rule="evenodd" clip-rule="evenodd" d="M79.2285 37.7036C83.9754 37.9487 88.7306 38.0335 93.4948 37.9584C91.4338 38.1316 89.1833 38.2164 86.7438 38.2131C84.4084 38.1706 82.0734 38.1283 79.738 38.0857C79.5047 38.0149 79.335 37.8875 79.2285 37.7036Z" fill="#FFA02B"/>
<path fill-rule="evenodd" clip-rule="evenodd" d="M29.8064 46.8746C41.5254 46.8321 53.2441 46.8746 64.9625 47.002C66.2452 47.7696 66.5425 48.8311 65.8541 50.1864C65.6241 50.4924 65.3271 50.7048 64.9625 50.8233C53.159 50.9932 41.3552 50.9932 29.5517 50.8233C28.7833 50.4338 28.4437 49.7969 28.5326 48.9126C28.5444 47.9683 28.969 47.2891 29.8064 46.8746Z" fill="#FFA02B"/>
<path fill-rule="evenodd" clip-rule="evenodd" d="M29.8064 58.0836C47.5544 58.041 65.3024 58.0836 83.0501 58.211C84.2535 58.8313 84.6357 59.808 84.1965 61.1406C83.8872 61.5353 83.5051 61.8323 83.0501 62.0323C65.3021 62.2022 47.5544 62.2022 29.8064 62.0323C28.603 61.412 28.2208 60.4352 28.66 59.1026C29.0159 58.7026 29.3981 58.3628 29.8064 58.0836Z" fill="#FFA02B"/>
<path fill-rule="evenodd" clip-rule="evenodd" d="M29.5516 69.2933C47.4695 69.2508 65.3871 69.2933 83.3047 69.4207C84.267 70.1623 84.5643 71.1387 84.1964 72.3504C83.9663 72.6563 83.6693 72.8688 83.3047 72.9872C65.3871 73.1572 47.4692 73.1572 29.5516 72.9872C28.6059 72.347 28.3089 71.4554 28.6599 70.3123C28.9228 69.9233 29.2201 69.5837 29.5516 69.2933Z" fill="#FFA02B"/>
<path fill-rule="evenodd" clip-rule="evenodd" d="M8.15217 84.5784C29.5661 84.453 50.9654 84.5804 72.3503 84.9605C73.395 85.6667 74.0319 86.6431 74.2609 87.8902C74.4309 95.278 74.4309 102.666 74.2609 110.054C73.8306 111.334 73.0238 112.311 71.8408 112.983C50.6113 113.153 29.3816 113.153 8.15217 112.983C7.16166 112.417 6.43986 111.611 5.98676 110.563C5.81691 102.751 5.81691 94.9385 5.98676 87.1259C6.30808 85.9145 7.0299 85.0655 8.15217 84.5784Z" fill="#282A2E"/>
<path fill-rule="evenodd" clip-rule="evenodd" d="M65.2172 92.4756C68.2534 92.4957 69.9944 94.0242 70.4397 97.0612C70.7405 99.4569 70.4007 101.75 69.4206 103.94C67.7704 105.925 65.8597 106.222 63.6887 104.831C61.9077 102.045 61.4407 99.0309 62.2875 95.7874C62.8735 94.3113 63.8499 93.2075 65.2172 92.4756Z" fill="#FFA02B"/>
<path fill-rule="evenodd" clip-rule="evenodd" d="M9.93529 92.7303C15.0278 91.7026 17.7452 93.7407 18.0874 98.8444C17.8228 104.34 15.063 106.463 9.80792 105.213C9.59973 101.034 9.64217 96.8723 9.93529 92.7303Z" fill="#FFA02B"/>
<path fill-rule="evenodd" clip-rule="evenodd" d="M19.8708 92.7304C21.4017 92.6881 22.9302 92.7307 24.4564 92.8578C26.137 93.4343 27.1986 94.5807 27.6408 96.297C27.9302 98.6338 27.7603 100.927 27.1313 103.175C25.3066 105.323 22.9714 106.129 20.1256 105.596C19.9982 105.468 19.8708 105.341 19.7435 105.213C19.5353 101.034 19.5777 96.8725 19.8708 92.7304Z" fill="#FFA02B"/>
<path fill-rule="evenodd" clip-rule="evenodd" d="M30.061 92.7305C31.9312 92.6882 33.7993 92.7305 35.6656 92.8578C35.9038 93.4644 35.9887 94.1013 35.9204 94.7685C34.5618 94.7685 33.2029 94.7685 31.8443 94.7685C31.8443 95.8723 31.8443 96.9764 31.8443 98.0803C32.9515 98.038 34.0553 98.0805 35.1561 98.2077C35.7033 98.7363 35.7884 99.3306 35.4109 99.9909C34.225 100.118 33.0363 100.161 31.8443 100.118C31.8443 101.222 31.8443 102.326 31.8443 103.43C33.2979 103.346 34.7414 103.431 36.1751 103.685C36.5591 104.314 36.474 104.866 35.9204 105.341C33.9045 105.548 31.909 105.506 29.9337 105.213C29.7255 101.034 29.7678 96.8725 30.061 92.7305Z" fill="#FFA02B"/>
<path fill-rule="evenodd" clip-rule="evenodd" d="M40.7608 92.7305C41.5722 92.6083 42.2941 92.7779 42.9262 93.2401C43.4357 95.1082 43.9452 96.9765 44.4547 98.8447C45.0857 100.942 45.5104 103.064 45.7285 105.214C45.2534 105.767 44.7016 105.852 44.0726 105.468C43.7648 104.546 43.5101 103.611 43.3083 102.666C42.2045 102.666 41.1004 102.666 39.9965 102.666C39.8307 103.716 39.4911 104.693 38.9775 105.596C38 105.85 37.4905 105.468 37.449 104.449C38.1992 101.478 38.9212 98.5058 39.6144 95.5328C39.824 94.5138 40.2062 93.5799 40.7608 92.7305Z" fill="#FFA02B"/>
<path fill-rule="evenodd" clip-rule="evenodd" d="M46.8748 92.7303C47.5229 92.6295 48.075 92.7994 48.5307 93.2398C48.6155 96.127 48.7006 99.0144 48.7855 101.901C49.4445 103.596 50.4635 103.851 51.8425 102.666C52.0621 102.261 52.232 101.837 52.352 101.392C52.4369 98.5897 52.5219 95.7874 52.6068 92.9851C53.1163 92.6455 53.6258 92.6455 54.1353 92.9851C54.3052 96.2969 54.3052 99.6087 54.1353 102.921C52.9227 105.754 50.9272 106.476 48.1486 105.086C47.1237 104.18 46.5719 103.034 46.4927 101.647C46.3228 98.8444 46.3228 96.0421 46.4927 93.2398C46.6753 93.1013 46.8027 92.9313 46.8748 92.7303Z" fill="#FFA02B"/>
<path fill-rule="evenodd" clip-rule="evenodd" d="M61.3957 94.7683C60.7163 94.7683 60.0371 94.7683 59.3577 94.7683C59.3577 98.2501 59.3577 101.732 59.3577 105.213C59.1962 105.582 58.8989 105.752 58.4661 105.723C58.0332 105.752 57.7359 105.582 57.5744 105.213C57.5744 101.732 57.5744 98.2501 57.5744 94.7683C56.895 94.7683 56.2158 94.7683 55.5364 94.7683C54.899 94.1826 54.899 93.5458 55.5364 92.8577C57.5744 92.6877 59.6125 92.6877 61.6505 92.8577C61.8026 93.1282 61.8874 93.4253 61.9053 93.7493C61.946 94.2219 61.7761 94.5615 61.3957 94.7683Z" fill="#FFA02B"/>
<path fill-rule="evenodd" clip-rule="evenodd" d="M13.7569 103.175C13.1625 103.175 12.5681 103.175 11.9736 103.175C11.9736 100.458 11.9736 97.7405 11.9736 95.0231C14.1159 94.6458 15.4321 95.5797 15.9223 97.8254C16.125 99.2278 15.9552 100.586 15.4128 101.901C14.9601 102.485 14.4081 102.91 13.7569 103.175Z" fill="#282A2E"/>
<path fill-rule="evenodd" clip-rule="evenodd" d="M23.6921 95.023C23.0977 95.023 22.5032 95.023 21.9088 95.023C21.9088 97.7404 21.9088 100.458 21.9088 103.175C22.5032 103.175 23.0977 103.175 23.6921 103.175C23.0685 103.423 22.3891 103.508 21.6541 103.43C21.6541 100.543 21.6541 97.6554 21.6541 94.7682C22.3891 94.6903 23.0685 94.7751 23.6921 95.023Z" fill="#FFA02B"/>
<path fill-rule="evenodd" clip-rule="evenodd" d="M23.6922 95.0232C24.3434 95.2889 24.8954 95.7136 25.3481 96.297C26.1794 98.1692 26.1794 100.037 25.3481 101.902C24.9512 102.544 24.3993 102.968 23.6922 103.175C23.0978 103.175 22.5034 103.175 21.9089 103.175C21.9089 100.458 21.9089 97.7407 21.9089 95.0232C22.5034 95.0232 23.0978 95.0232 23.6922 95.0232Z" fill="#282A2E"/>
<path fill-rule="evenodd" clip-rule="evenodd" d="M65.4717 94.7685C67.1712 94.7242 68.1479 95.5733 68.4014 97.316C68.5703 98.8568 68.4855 100.385 68.1467 101.902C67.4532 103.466 66.3917 103.806 64.9622 102.921C64.3974 102.266 64.1001 101.502 64.0706 100.628C63.5575 98.4092 64.0245 96.4562 65.4717 94.7685Z" fill="#282A2E"/>
<path fill-rule="evenodd" clip-rule="evenodd" d="M41.525 96.0425C42.058 97.4115 42.3975 98.855 42.544 100.373C41.9497 100.373 41.3551 100.373 40.7607 100.373C40.8581 98.8952 41.1128 97.4515 41.525 96.0425Z" fill="#282A2E"/>
<path fill-rule="evenodd" clip-rule="evenodd" d="M61.3959 94.7686C60.8592 95.0152 60.2646 95.1002 59.6127 95.0233C59.6965 98.465 59.6116 101.862 59.3579 105.213C59.3579 101.732 59.3579 98.2503 59.3579 94.7686C60.0373 94.7686 60.7165 94.7686 61.3959 94.7686Z" fill="#FFA02B"/>
<path fill-rule="evenodd" clip-rule="evenodd" d="M11.9733 95.0232C11.9733 97.7407 11.9733 100.458 11.9733 103.175C12.5677 103.175 13.1622 103.175 13.7566 103.175C13.133 103.423 12.4536 103.508 11.7186 103.43C11.635 100.582 11.7199 97.7799 11.9733 95.0232Z" fill="#FFA02B"/>
<path fill-rule="evenodd" clip-rule="evenodd" d="M55.5366 94.7686C56.2161 94.7686 56.8952 94.7686 57.5747 94.7686C57.5747 98.2503 57.5747 101.732 57.5747 105.213C57.3209 101.862 57.2361 98.465 57.3199 95.0233C56.668 95.1002 56.0734 95.0152 55.5366 94.7686Z" fill="#FFA02B"/>
<path fill-rule="evenodd" clip-rule="evenodd" d="M71.586 116.932C53.032 117.187 34.4349 117.272 15.7948 117.187C15.7948 120.584 15.7948 123.981 15.7948 127.377C15.5411 123.941 15.4562 120.459 15.54 116.932C34.2219 116.932 52.9041 116.932 71.586 116.932Z" fill="#FFA02B"/>
<path fill-rule="evenodd" clip-rule="evenodd" d="M8.40698 116.932C9.59584 116.932 10.7847 116.932 11.9735 116.932C11.9735 120.499 11.9735 124.065 11.9735 127.632C11.7199 124.195 11.635 120.714 11.7188 117.187C10.5642 117.268 9.46024 117.183 8.40698 116.932Z" fill="#FFA02B"/>
<path fill-rule="evenodd" clip-rule="evenodd" d="M93.7497 131.198C93.7214 131.355 93.6366 131.483 93.495 131.58C68.8261 131.792 44.1997 131.75 19.6162 131.453C44.3378 131.537 69.049 131.452 93.7497 131.198Z" fill="#FFA02B"/>
</svg>
