<?xml version="1.0" encoding="UTF-8"?>
<!DOCTYPE svg PUBLIC "-//W3C//DTD SVG 1.1//EN" "http://www.w3.org/Graphics/SVG/1.1/DTD/svg11.dtd">
<svg xmlns="http://www.w3.org/2000/svg" version="1.1" width="409px" height="591px" style="shape-rendering:geometricPrecision; text-rendering:geometricPrecision; image-rendering:optimizeQuality; fill-rule:evenodd; clip-rule:evenodd" xmlns:xlink="http://www.w3.org/1999/xlink">
<g><path style="opacity:1" fill="#fdfdfd" d="M -0.5,-0.5 C 135.833,-0.5 272.167,-0.5 408.5,-0.5C 408.5,196.5 408.5,393.5 408.5,590.5C 272.167,590.5 135.833,590.5 -0.5,590.5C -0.5,393.5 -0.5,196.5 -0.5,-0.5 Z"/></g>
<g><path style="opacity:1" fill="#2b3036" d="M 46.5,500.5 C 46.5,486.5 46.5,472.5 46.5,458.5C 41.8333,458.5 37.1667,458.5 32.5,458.5C 18.7138,455.212 10.5472,446.545 8,432.5C 7.33333,401.833 7.33333,371.167 8,340.5C 13.4749,322.349 25.6416,314.016 44.5,315.5C 44.3333,237.833 44.5,160.166 45,82.5C 46.6834,64.6087 56.1834,53.4421 73.5,49C 146.833,48.3333 220.167,48.3333 293.5,49C 299.635,54.134 305.469,59.634 311,65.5C 338.88,94.893 366.547,124.56 394,154.5C 394.667,269.833 394.667,385.167 394,500.5C 391.23,515.271 382.73,525.104 368.5,530C 269.833,530.667 171.167,530.667 72.5,530C 57.5958,525.599 48.9291,515.766 46.5,500.5 Z"/></g>
<g><path style="opacity:1" fill="#fdfdfd" d="M 367.5,514.5 C 270.541,515.495 173.541,515.829 76.5,515.5C 68.7982,512.796 63.7982,507.462 61.5,499.5C 61.5,486.167 61.5,472.833 61.5,459.5C 134.669,459.833 207.669,459.499 280.5,458.5C 293.865,455.301 302.032,446.968 305,433.5C 305.667,402.833 305.667,372.167 305,341.5C 301.957,328.123 293.79,319.623 280.5,316C 207.167,315.5 133.834,315.333 60.5,315.5C 60.3333,236.499 60.5,157.499 61,78.5C 62.6748,72.1587 66.5082,67.6587 72.5,65C 142.499,64.5 212.499,64.3333 282.5,64.5C 282.333,87.1691 282.5,109.836 283,132.5C 285.684,148.049 294.517,158.215 309.5,163C 332.831,163.5 356.164,163.667 379.5,163.5C 379.667,275.834 379.5,388.167 379,500.5C 377.165,506.833 373.332,511.499 367.5,514.5 Z"/></g>
<g><path style="opacity:1" fill="#fbfbfb" d="M 297.5,74.5 C 321.206,98.5382 344.206,123.205 366.5,148.5C 347.799,148.795 329.133,148.462 310.5,147.5C 303.089,143.751 298.755,137.751 297.5,129.5C 297.5,111.167 297.5,92.8333 297.5,74.5 Z"/></g>
<g><path style="opacity:1" fill="#3e4347" d="M 297.5,74.5 C 297.5,92.8333 297.5,111.167 297.5,129.5C 296.883,129.611 296.383,129.944 296,130.5C 295.167,111.491 295.334,92.4912 296.5,73.5C 297.107,73.6236 297.44,73.9569 297.5,74.5 Z"/></g>
<g><path style="opacity:1" fill="#131618" d="M 310.5,147.5 C 329.133,148.462 347.799,148.795 366.5,148.5C 358.41,149.18 349.576,149.513 340,149.5C 330.833,149.333 321.667,149.167 312.5,149C 311.584,148.722 310.918,148.222 310.5,147.5 Z"/></g>
<g><path style="opacity:1" fill="#262c31" d="M 116.5,183.5 C 162.501,183.333 208.501,183.5 254.5,184C 259.535,187.013 260.702,191.18 258,196.5C 257.097,197.701 255.931,198.535 254.5,199C 208.167,199.667 161.833,199.667 115.5,199C 112.484,197.471 111.151,194.971 111.5,191.5C 111.546,187.793 113.213,185.127 116.5,183.5 Z"/></g>
<g><path style="opacity:1" fill="#282e33" d="M 116.5,227.5 C 186.167,227.333 255.834,227.5 325.5,228C 330.224,230.435 331.724,234.269 330,239.5C 328.786,241.049 327.286,242.215 325.5,243C 255.833,243.667 186.167,243.667 116.5,243C 111.776,240.565 110.276,236.731 112,231.5C 113.397,229.93 114.897,228.596 116.5,227.5 Z"/></g>
<g><path style="opacity:1" fill="#262b30" d="M 115.5,271.5 C 185.834,271.333 256.167,271.5 326.5,272C 330.277,274.911 331.444,278.744 330,283.5C 329.097,284.701 327.931,285.535 326.5,286C 256.167,286.667 185.833,286.667 115.5,286C 111.788,283.487 110.622,279.987 112,275.5C 113.032,273.973 114.199,272.64 115.5,271.5 Z"/></g>
<g><path style="opacity:1" fill="#fbfcfb" d="M 31.5,331.5 C 115.557,331.008 199.557,331.508 283.5,333C 287.601,335.772 290.101,339.605 291,344.5C 291.667,373.5 291.667,402.5 291,431.5C 289.311,436.525 286.144,440.359 281.5,443C 198.167,443.667 114.833,443.667 31.5,443C 27.6119,440.778 24.7786,437.612 23,433.5C 22.3333,402.833 22.3333,372.167 23,341.5C 24.2613,336.745 27.0947,333.412 31.5,331.5 Z"/></g>
<g><path style="opacity:1" fill="#282d32" d="M 255.5,362.5 C 267.418,362.579 274.252,368.579 276,380.5C 277.181,389.904 275.847,398.904 272,407.5C 265.522,415.294 258.022,416.46 249.5,411C 242.509,400.065 240.676,388.232 244,375.5C 246.3,369.706 250.133,365.373 255.5,362.5 Z"/></g>
<g><path style="opacity:1" fill="#2b3035" d="M 38.5,363.5 C 58.49,359.466 69.1566,367.466 70.5,387.5C 69.4613,409.072 58.628,417.406 38,412.5C 37.1828,396.093 37.3494,379.759 38.5,363.5 Z"/></g>
<g><path style="opacity:1" fill="#2b3035" d="M 77.5,363.5 C 83.5092,363.334 89.5092,363.501 95.5,364C 102.097,366.263 106.264,370.763 108,377.5C 109.136,386.673 108.469,395.673 106,404.5C 98.8374,412.93 89.6707,416.096 78.5,414C 78,413.5 77.5,413 77,412.5C 76.1828,396.093 76.3494,379.759 77.5,363.5 Z"/></g>
<g><path style="opacity:1" fill="#252a2f" d="M 117.5,363.5 C 124.841,363.334 132.174,363.5 139.5,364C 140.435,366.381 140.768,368.881 140.5,371.5C 135.167,371.5 129.833,371.5 124.5,371.5C 124.5,375.833 124.5,380.167 124.5,384.5C 128.846,384.334 133.179,384.501 137.5,385C 139.648,387.075 139.982,389.408 138.5,392C 133.845,392.499 129.179,392.666 124.5,392.5C 124.5,396.833 124.5,401.167 124.5,405.5C 130.206,405.171 135.872,405.505 141.5,406.5C 143.007,408.969 142.673,411.135 140.5,413C 132.587,413.814 124.754,413.647 117,412.5C 116.183,396.093 116.349,379.759 117.5,363.5 Z"/></g>
<g><path style="opacity:1" fill="#2b2f34" d="M 159.5,363.5 C 162.685,363.02 165.519,363.686 168,365.5C 170,372.833 172,380.167 174,387.5C 176.477,395.731 178.144,404.064 179,412.5C 177.135,414.673 174.969,415.007 172.5,413.5C 171.292,409.878 170.292,406.211 169.5,402.5C 165.167,402.5 160.833,402.5 156.5,402.5C 155.849,406.622 154.516,410.455 152.5,414C 148.663,415 146.663,413.5 146.5,409.5C 149.445,397.837 152.279,386.17 155,374.5C 155.823,370.5 157.323,366.834 159.5,363.5 Z"/></g>
<g><path style="opacity:1" fill="#2d3136" d="M 183.5,363.5 C 186.044,363.104 188.211,363.771 190,365.5C 190.333,376.833 190.667,388.167 191,399.5C 193.587,406.153 197.587,407.153 203,402.5C 203.862,400.913 204.529,399.246 205,397.5C 205.333,386.5 205.667,375.5 206,364.5C 208,363.167 210,363.167 212,364.5C 212.667,377.5 212.667,390.5 212,403.5C 207.24,414.624 199.407,417.458 188.5,412C 184.477,408.444 182.311,403.944 182,398.5C 181.333,387.5 181.333,376.5 182,365.5C 182.717,364.956 183.217,364.289 183.5,363.5 Z"/></g>
<g><path style="opacity:1" fill="#272c31" d="M 240.5,371.5 C 237.833,371.5 235.167,371.5 232.5,371.5C 232.5,385.167 232.5,398.833 232.5,412.5C 231.866,413.947 230.699,414.613 229,414.5C 227.301,414.613 226.134,413.947 225.5,412.5C 225.5,398.833 225.5,385.167 225.5,371.5C 222.833,371.5 220.167,371.5 217.5,371.5C 214.998,369.201 214.998,366.701 217.5,364C 225.5,363.333 233.5,363.333 241.5,364C 242.097,365.062 242.43,366.228 242.5,367.5C 242.66,369.355 241.993,370.688 240.5,371.5 Z"/></g>
<g><path style="opacity:1" fill="#f8f8f8" d="M 53.5,404.5 C 51.1667,404.5 48.8333,404.5 46.5,404.5C 46.5,393.833 46.5,383.167 46.5,372.5C 54.9092,371.019 60.0758,374.685 62,383.5C 62.7956,389.005 62.129,394.338 60,399.5C 58.2228,401.79 56.0562,403.457 53.5,404.5 Z"/></g>
<g><path style="opacity:1" fill="#9b9b9b" d="M 92.5,372.5 C 90.1667,372.5 87.8333,372.5 85.5,372.5C 85.5,383.167 85.5,393.833 85.5,404.5C 87.8333,404.5 90.1667,404.5 92.5,404.5C 90.0521,405.473 87.3854,405.806 84.5,405.5C 84.5,394.167 84.5,382.833 84.5,371.5C 87.3854,371.194 90.0521,371.527 92.5,372.5 Z"/></g>
<g><path style="opacity:1" fill="#fafafa" d="M 92.5,372.5 C 95.0562,373.543 97.2228,375.21 99,377.5C 102.263,384.849 102.263,392.182 99,399.5C 97.4421,402.021 95.2755,403.688 92.5,404.5C 90.1667,404.5 87.8333,404.5 85.5,404.5C 85.5,393.833 85.5,383.167 85.5,372.5C 87.8333,372.5 90.1667,372.5 92.5,372.5 Z"/></g>
<g><path style="opacity:1" fill="#f7f7f7" d="M 256.5,371.5 C 263.171,371.326 267.005,374.659 268,381.5C 268.663,387.548 268.33,393.548 267,399.5C 264.278,405.64 260.111,406.974 254.5,403.5C 252.283,400.932 251.116,397.932 251,394.5C 248.986,385.791 250.819,378.125 256.5,371.5 Z"/></g>
<g><path style="opacity:1" fill="#eaeae9" d="M 162.5,376.5 C 164.592,381.874 165.925,387.54 166.5,393.5C 164.167,393.5 161.833,393.5 159.5,393.5C 159.882,387.698 160.882,382.031 162.5,376.5 Z"/></g>
<g><path style="opacity:1" fill="#bfc0c1" d="M 240.5,371.5 C 238.393,372.468 236.059,372.802 233.5,372.5C 233.829,386.01 233.496,399.344 232.5,412.5C 232.5,398.833 232.5,385.167 232.5,371.5C 235.167,371.5 237.833,371.5 240.5,371.5 Z"/></g>
<g><path style="opacity:1" fill="#797a79" d="M 46.5,372.5 C 46.5,383.167 46.5,393.833 46.5,404.5C 48.8333,404.5 51.1667,404.5 53.5,404.5C 51.0521,405.473 48.3854,405.806 45.5,405.5C 45.1721,394.321 45.5054,383.321 46.5,372.5 Z"/></g>
<g><path style="opacity:1" fill="#595959" d="M 217.5,371.5 C 220.167,371.5 222.833,371.5 225.5,371.5C 225.5,385.167 225.5,398.833 225.5,412.5C 224.504,399.344 224.171,386.01 224.5,372.5C 221.941,372.802 219.607,372.468 217.5,371.5 Z"/></g>
<g><path style="opacity:1" fill="#b0b2b2" d="M 280.5,458.5 C 207.669,459.499 134.669,459.833 61.5,459.5C 61.5,472.833 61.5,486.167 61.5,499.5C 60.5043,486.01 60.171,472.344 60.5,458.5C 133.833,458.5 207.167,458.5 280.5,458.5 Z"/></g>
<g><path style="opacity:1" fill="#a2a3a3" d="M 32.5,458.5 C 37.1667,458.5 41.8333,458.5 46.5,458.5C 46.5,472.5 46.5,486.5 46.5,500.5C 45.5043,487.01 45.171,473.344 45.5,459.5C 40.9677,459.818 36.6344,459.485 32.5,458.5 Z"/></g>
<g><path style="opacity:1" fill="#1a1c1e" d="M 367.5,514.5 C 367.389,515.117 367.056,515.617 366.5,516C 269.666,516.832 172.999,516.666 76.5,515.5C 173.541,515.829 270.541,515.495 367.5,514.5 Z"/></g>
</svg>
