<svg width="106" height="135" viewBox="0 0 106 135" fill="none" xmlns="http://www.w3.org/2000/svg">
<path fill-rule="evenodd" clip-rule="evenodd" d="M0 0C35.3334 0 70.6666 0 106 0C106 44.778 106 89.5561 106 134.334C70.6666 134.334 35.3334 134.334 0 134.334C0 89.5561 0 44.778 0 0Z" fill="#282A2E"/>
<path fill-rule="evenodd" clip-rule="evenodd" d="M72.859 7.8427C54.3069 8.18 35.7547 8.18 17.2026 7.8427C35.7653 7.50686 54.3176 7.50686 72.859 7.8427Z" fill="#FFA02B"/>
<path fill-rule="evenodd" clip-rule="evenodd" d="M17.2028 7.84253C35.7548 8.17983 54.3071 8.17983 72.8591 7.84253C81.2984 16.4081 89.6046 25.0938 97.778 33.8998C97.9467 63.6676 97.9467 93.4351 97.778 123.203C96.6223 126.467 94.3877 128.617 91.0739 129.654C66.4503 129.823 41.8264 129.823 17.2028 129.654C13.6038 128.416 11.4534 125.929 10.7517 122.191C10.6252 118.481 10.5831 114.771 10.6252 111.06C6.93468 111.446 4.10969 110.097 2.15028 107.012C2.05924 106.479 1.89058 105.973 1.64431 105.494C1.47566 97.3144 1.47566 89.1344 1.64431 80.9547C3.21251 76.8209 6.20616 75.0501 10.6252 75.642C10.9625 65.7772 11.1312 55.8264 11.1312 45.79C11.1283 35.4966 11.044 25.2085 10.8782 14.9261C11.5616 11.2913 13.6698 8.93013 17.2028 7.84253Z" fill="#FFA02B"/>
<path fill-rule="evenodd" clip-rule="evenodd" d="M19.2268 11.6376C18.8052 11.6376 18.3836 11.6376 17.9619 11.6376C18.2423 11.4377 18.5797 11.3112 18.9738 11.2581C35.9237 11.0894 52.8736 11.0894 69.8235 11.2581C52.9154 11.3004 36.05 11.4269 19.2268 11.6376Z" fill="#FFA02B"/>
<path fill-rule="evenodd" clip-rule="evenodd" d="M17.9617 11.6372C18.3833 11.6372 18.805 11.6372 19.2266 11.6372C36.0922 11.6372 52.9576 11.6372 69.8233 11.6372C69.781 17.3721 69.8233 23.1064 69.9498 28.8401C70.7001 33.2587 73.2722 35.8728 77.6657 36.6826C83.1034 36.9348 88.5845 37.0193 94.1097 36.9355C94.1097 65.3539 94.1097 93.7725 94.1097 122.191C93.4721 124.177 92.1227 125.358 90.0619 125.733C66.2815 125.733 42.5011 125.733 18.7206 125.733C16.4754 125.259 15.0418 123.909 14.4199 121.685C14.4199 118.143 14.4199 114.601 14.4199 111.06C26.4791 111.102 38.5378 111.06 50.5965 110.933C54.0315 110.366 56.1819 108.384 57.0476 104.988C57.2163 97.1456 57.2163 89.3031 57.0476 81.4606C56.3008 78.9432 54.7407 77.1303 52.3674 76.0215C39.7279 75.6478 27.0787 75.5213 14.4199 75.642C14.4199 55.7405 14.4199 35.8394 14.4199 15.9379C14.7051 13.7646 15.8857 12.3311 17.9617 11.6372Z" fill="#282A2E"/>
<path fill-rule="evenodd" clip-rule="evenodd" d="M73.6184 14.1672C79.539 20.2525 85.3576 26.4506 91.0742 32.7615C86.6048 32.9302 82.1356 32.9302 77.6661 32.7615C75.7918 32.1523 74.4846 30.9294 73.7449 29.0933C73.6184 24.1186 73.5761 19.1433 73.6184 14.1672Z" fill="#FFA02B"/>
<path fill-rule="evenodd" clip-rule="evenodd" d="M62.9928 41.9953C51.3985 42.248 39.7613 42.3323 28.0811 42.2483C28.1868 42.0656 28.3553 41.9391 28.587 41.8688C40.0735 41.6593 51.5422 41.7016 62.9928 41.9953Z" fill="#FFA02B"/>
<path fill-rule="evenodd" clip-rule="evenodd" d="M62.9929 41.9954C63.9216 42.6908 64.2165 43.6185 63.8783 44.7782C63.7829 45.143 63.5722 45.396 63.2458 45.5371C63.2307 45.3998 63.1464 45.3155 62.9929 45.2841C51.4077 45.4516 39.8548 45.6201 28.3341 45.7901C26.7955 44.6691 26.7113 43.4887 28.0812 42.2483C39.7614 42.3323 51.3986 42.2481 62.9929 41.9954Z" fill="#FFA02B"/>
<path fill-rule="evenodd" clip-rule="evenodd" d="M10.8783 14.9258C11.0441 25.2082 11.1284 35.4964 11.1312 45.7897C11.1312 55.8261 10.9625 65.7769 10.6253 75.6418C10.5411 55.3606 10.6254 35.1219 10.8783 14.9258Z" fill="#FFA02B"/>
<path fill-rule="evenodd" clip-rule="evenodd" d="M14.42 15.9379C14.42 35.8393 14.42 55.7405 14.42 75.6419C14.0828 65.6926 13.9141 55.6577 13.9141 45.5369C13.9562 35.5018 13.9984 25.467 14.0406 15.4319C14.111 15.6636 14.2375 15.8322 14.42 15.9379Z" fill="#FFA02B"/>
<path fill-rule="evenodd" clip-rule="evenodd" d="M63.2457 45.5372C51.6267 45.7889 39.9894 45.8731 28.334 45.7901C39.8546 45.6201 51.4076 45.4517 62.9927 45.2842C63.1463 45.3155 63.2305 45.3998 63.2457 45.5372Z" fill="#FFA02B"/>
<path fill-rule="evenodd" clip-rule="evenodd" d="M28.0811 53.1262C45.7057 53.084 63.3303 53.1262 80.9546 53.2527C81.7176 53.6395 82.0548 54.272 81.9665 55.1501C82.0629 55.8647 81.8099 56.4127 81.2076 56.7945C63.4987 56.9632 45.7899 56.9632 28.0811 56.7945C26.7484 55.5728 26.7484 54.3499 28.0811 53.1262Z" fill="#FFA02B"/>
<path fill-rule="evenodd" clip-rule="evenodd" d="M28.5871 64.0046C45.8745 63.9624 63.1616 64.0046 80.4487 64.1311C81.8801 64.5938 82.3441 65.5638 81.8401 67.0404C81.533 67.4323 81.1535 67.7273 80.7017 67.9259C63.3301 68.0946 45.9587 68.0946 28.5871 67.9259C27.0811 67.2871 26.7016 66.2331 27.4487 64.7636C27.8052 64.4395 28.1846 64.1865 28.5871 64.0046Z" fill="#FFA02B"/>
<path fill-rule="evenodd" clip-rule="evenodd" d="M50.5966 107.012C36.4295 107.012 22.2624 107.012 8.09538 107.012C6.60037 106.656 5.63061 105.728 5.18607 104.229C5.0174 96.8927 5.0174 89.5562 5.18607 82.2196C5.56554 80.8282 6.45098 79.9428 7.84239 79.5633C22.0938 79.3946 36.3453 79.3946 50.5966 79.5633C51.9814 79.9362 52.8668 80.8217 53.2529 82.2196C53.4216 89.6404 53.4216 97.0614 53.2529 104.482C52.8112 105.81 51.9257 106.653 50.5966 107.012Z" fill="#282A2E"/>
<path fill-rule="evenodd" clip-rule="evenodd" d="M26.3103 85.0023C28.3496 84.9211 30.3734 85.0476 32.3819 85.3818C35.3137 86.3722 36.3679 88.3541 35.5442 91.3269C35.0906 92.034 34.5424 92.6665 33.8998 93.2243C36.7081 95.0379 37.1721 97.357 35.2912 100.181C33.3414 101.568 31.1491 102.158 28.7136 101.952C27.8282 101.91 26.9427 101.868 26.0573 101.826C25.8466 101.615 25.6356 101.404 25.4248 101.193C25.2562 96.0493 25.2562 90.9052 25.4248 85.7613C25.7145 85.4739 26.0097 85.2209 26.3103 85.0023Z" fill="#FFA02B"/>
<path fill-rule="evenodd" clip-rule="evenodd" d="M43.2605 85.0024C44.2527 84.8934 45.1382 85.1464 45.9168 85.7614C47.3895 90.0499 48.8231 94.3507 50.2176 98.6635C50.5406 99.5735 50.6249 100.501 50.4705 101.446C49.1662 102.298 48.1542 102.045 47.4347 100.687C47.2483 99.7496 47.0373 98.8221 46.8023 97.9046C45.0314 97.9046 43.2605 97.9046 41.4896 97.9046C41.2614 99.2416 40.8397 100.506 40.2247 101.699C39.0623 102.21 38.1348 101.957 37.4419 100.94C39.1629 95.9133 40.8073 90.8537 42.3751 85.7614C42.6647 85.474 42.96 85.221 43.2605 85.0024Z" fill="#FFA02B"/>
<path fill-rule="evenodd" clip-rule="evenodd" d="M28.334 87.7852C29.5351 87.7283 30.7158 87.8548 31.8758 88.1647C32.8877 89.3454 32.8877 90.5258 31.8758 91.7065C30.7206 92.0376 29.54 92.1641 28.334 92.0859C28.334 90.6523 28.334 89.2189 28.334 87.7852Z" fill="#282A2E"/>
<path fill-rule="evenodd" clip-rule="evenodd" d="M44.0194 89.05C44.7047 91.0241 45.2949 93.0479 45.7902 95.1216C44.6941 95.1216 43.5976 95.1216 42.5015 95.1216C43.0074 93.0978 43.5134 91.0739 44.0194 89.05Z" fill="#282A2E"/>
<path fill-rule="evenodd" clip-rule="evenodd" d="M77.666 36.6824C83.2316 36.6824 88.7973 36.6824 94.3629 36.6824C94.4472 65.2277 94.3629 93.7304 94.1099 122.191C94.1099 93.7723 94.1099 65.3537 94.1099 36.9354C88.5848 37.0191 83.1036 36.9346 77.666 36.6824Z" fill="#FFA02B"/>
<path fill-rule="evenodd" clip-rule="evenodd" d="M10.6255 85.2553C11.4545 85.1834 12.2556 85.2677 13.0289 85.5083C14.2631 89.4093 15.528 93.2882 16.8236 97.1455C17.9405 93.2483 19.1211 89.3693 20.3654 85.5083C21.2087 85.171 22.052 85.171 22.8952 85.5083C22.9692 87.0707 22.7162 88.5886 22.1363 90.062C20.848 93.9093 19.5409 97.7463 18.215 101.573C17.0699 102.136 16.0158 102.009 15.0527 101.193C13.2404 96.3443 11.6803 91.4111 10.3726 86.3937C10.3992 85.9909 10.4835 85.6115 10.6255 85.2553Z" fill="#FFA02B"/>
<path fill-rule="evenodd" clip-rule="evenodd" d="M31.3697 94.8688C30.3578 94.8688 29.3459 94.8688 28.3339 94.8688C28.3339 96.2179 28.3339 97.5673 28.3339 98.9165C27.9937 97.4479 27.8672 95.93 27.9545 94.3628C29.1184 94.5252 30.2569 94.6939 31.3697 94.8688Z" fill="#FFA02B"/>
<path fill-rule="evenodd" clip-rule="evenodd" d="M31.3698 94.8684C33.0258 95.2494 33.574 96.2613 33.0142 97.9042C32.7071 98.2961 32.3276 98.5911 31.8758 98.7896C30.6981 98.9159 29.5177 98.9581 28.334 98.9161C28.334 97.567 28.334 96.2176 28.334 94.8684C29.3459 94.8684 30.3579 94.8684 31.3698 94.8684Z" fill="#282A2E"/>
<path fill-rule="evenodd" clip-rule="evenodd" d="M8.09532 107.012C22.2624 107.012 36.4295 107.012 50.5965 107.012C50.6246 107.168 50.7088 107.294 50.8495 107.391C36.4295 107.56 22.0094 107.56 7.58936 107.391C7.82104 107.321 7.9897 107.194 8.09532 107.012Z" fill="#FFA02B"/>
<path fill-rule="evenodd" clip-rule="evenodd" d="M14.42 111.06C14.42 114.601 14.42 118.143 14.42 121.685C14.2375 121.791 14.111 121.959 14.0406 122.191C13.8719 118.396 13.8719 114.601 14.0406 110.807C14.1374 110.947 14.2638 111.032 14.42 111.06Z" fill="#FFA02B"/>
<path fill-rule="evenodd" clip-rule="evenodd" d="M18.7209 125.733C42.5013 125.733 66.2818 125.733 90.0622 125.733C90.1679 125.915 90.3364 126.042 90.5682 126.112C66.2818 126.281 41.9954 126.281 17.709 126.112C18.1032 126.059 18.4405 125.933 18.7209 125.733Z" fill="#FFA02B"/>
</svg>
