<svg width="135" height="140" viewBox="0 0 135 140" fill="none" xmlns="http://www.w3.org/2000/svg">
<path fill-rule="evenodd" clip-rule="evenodd" d="M0 0C44.8509 0 89.7016 0 134.553 0C134.553 46.6666 134.553 93.3334 134.553 140C89.7016 140 44.8509 140 0 140C0 93.3334 0 46.6666 0 0Z" fill="#282A2E"/>
<path fill-rule="evenodd" clip-rule="evenodd" d="M94.7861 6.80927C75.1752 7.17243 55.5643 7.17243 35.9534 6.80927C55.591 6.44671 75.2019 6.44671 94.7861 6.80927Z" fill="#FFA02B"/>
<path fill-rule="evenodd" clip-rule="evenodd" d="M35.9534 6.80933C55.5643 7.17248 75.1752 7.17248 94.7861 6.80933C103.311 15.7438 111.8 24.7321 120.253 33.7743C120.435 64.5525 120.435 95.3307 120.253 126.109C119.207 129.697 116.891 132.013 113.307 133.054C87.2503 133.236 61.1934 133.236 35.1363 133.054C31.4047 131.912 29.3165 129.415 28.8717 125.564C25.7834 125.61 22.6965 125.564 19.611 125.428C16.5595 124.193 14.6983 121.969 14.0273 118.755C13.8457 106.226 13.8457 93.6965 14.0273 81.1673C14.8726 77.371 17.1878 75.1013 20.9728 74.358C23.7874 74.358 26.6019 74.358 29.4164 74.358C29.4164 54.293 29.4164 34.2284 29.4164 14.1634C30.0625 10.3401 32.2415 7.88872 35.9534 6.80933Z" fill="#FFA02B"/>
<path fill-rule="evenodd" clip-rule="evenodd" d="M37.0427 10.6225C55.3367 10.3503 73.6764 10.2595 92.0622 10.3501C92.0622 16.1607 92.0622 21.9714 92.0622 27.782C91.7906 22.1093 91.6996 16.3895 91.7898 10.6225C73.5408 10.6225 55.2918 10.6225 37.0427 10.6225Z" fill="#FFA02B"/>
<path fill-rule="evenodd" clip-rule="evenodd" d="M37.0428 10.6223C55.2918 10.6223 73.5408 10.6223 91.7899 10.6223C91.6997 16.3894 91.7907 22.1092 92.0622 27.7818C92.4191 31.0013 93.9626 33.4982 96.6926 35.2721C97.9008 35.8466 99.172 36.1644 100.506 36.2254C105.815 36.497 111.172 36.5877 116.576 36.4978C116.576 65.8234 116.576 95.1488 116.576 124.474C116.26 126.926 114.898 128.515 112.49 129.241C87.0688 129.423 61.6471 129.423 36.2257 129.241C34.2365 128.75 33.0561 127.525 32.6848 125.564C45.3959 125.609 58.1068 125.564 70.8171 125.428C74.7265 124.604 76.951 122.199 77.4903 118.21C77.6719 105.953 77.6719 93.6962 77.4903 81.4394C76.7287 77.3636 74.3228 75.0033 70.2724 74.3577C57.9709 74.0856 45.6234 73.9949 33.2296 74.0854C33.2296 54.2021 33.2296 34.3188 33.2296 14.4355C33.6836 12.3473 34.9545 11.0763 37.0428 10.6223Z" fill="#282A2E"/>
<path fill-rule="evenodd" clip-rule="evenodd" d="M96.1477 13.8911C101.995 19.9656 107.805 26.094 113.58 32.2763C108.949 32.458 104.319 32.458 99.6886 32.2763C97.5741 31.4794 96.303 29.9813 95.8753 27.7822C95.7855 23.1042 95.8762 18.4738 96.1477 13.8911Z" fill="#FFA02B"/>
<path fill-rule="evenodd" clip-rule="evenodd" d="M96.1477 13.8912C95.8761 18.4739 95.7854 23.1042 95.8753 27.7822C95.5588 23.017 95.5133 18.2051 95.7391 13.3464C95.9344 13.4947 96.0706 13.6763 96.1477 13.8912Z" fill="#FFA02B"/>
<path fill-rule="evenodd" clip-rule="evenodd" d="M47.6655 41.4009C60.7397 41.3554 73.8136 41.4009 86.8873 41.537C87.9768 42.7172 87.9768 43.8977 86.8873 45.0779C73.8133 45.2596 60.7394 45.2596 47.6655 45.0779C46.5226 44.2659 46.2957 43.2219 46.9846 41.9456C47.2556 41.7914 47.4825 41.6098 47.6655 41.4009Z" fill="#FFA02B"/>
<path fill-rule="evenodd" clip-rule="evenodd" d="M29.4165 14.1633C29.4165 34.2283 29.4165 54.2929 29.4165 74.3579C26.602 74.3579 23.7874 74.3579 20.9729 74.3579C23.6474 74.0871 26.3712 73.9964 29.1441 74.0855C29.0534 54.0655 29.1444 34.0915 29.4165 14.1633Z" fill="#FFA02B"/>
<path fill-rule="evenodd" clip-rule="evenodd" d="M47.6653 52.8408C66.2777 52.7953 84.8898 52.8408 103.502 52.977C104.716 54.3756 104.534 55.5558 102.957 56.5178C84.5264 56.6995 66.096 56.6995 47.6653 56.5178C46.2157 55.2453 46.2157 54.0196 47.6653 52.8408Z" fill="#FFA02B"/>
<path fill-rule="evenodd" clip-rule="evenodd" d="M33.2294 14.436C33.2294 34.3193 33.2294 54.2026 33.2294 74.0858C45.6233 73.9954 57.9708 74.0861 70.2722 74.3582C57.8338 74.3582 45.3955 74.3582 32.9571 74.3582C32.8664 54.3382 32.9573 34.3642 33.2294 14.436Z" fill="#FFA02B"/>
<path fill-rule="evenodd" clip-rule="evenodd" d="M20.7005 78.1714C37.3155 78.1259 53.9303 78.1714 70.5448 78.3075C72.242 78.8422 73.286 79.9772 73.6771 81.7122C73.8588 93.969 73.8588 106.226 73.6771 118.483C73.1779 120.071 72.1336 121.116 70.5448 121.615C54.1117 121.797 37.6783 121.797 21.2452 121.615C19.3937 121.216 18.2589 120.081 17.8405 118.21C17.6589 105.953 17.6589 93.6967 17.8405 81.4398C18.3679 79.9603 19.3212 78.8708 20.7005 78.1714Z" fill="#282A2E"/>
<path fill-rule="evenodd" clip-rule="evenodd" d="M25.6031 83.3467C38.6773 83.3012 51.7513 83.3467 64.8249 83.4828C66.2985 83.9576 67.3428 84.9109 67.9572 86.3428C68.1389 95.1494 68.1389 103.956 67.9572 112.763C67.4482 114.725 66.2225 115.95 64.2802 116.44C51.5693 116.622 38.8587 116.622 26.1479 116.44C24.559 115.941 23.5149 114.896 23.0156 113.308C22.834 104.319 22.834 95.3311 23.0156 86.3428C23.4512 84.9553 24.3137 83.9565 25.6031 83.3467Z" fill="#FFA02B"/>
<path fill-rule="evenodd" clip-rule="evenodd" d="M26.9651 86.8872C39.3131 86.8417 51.6606 86.8872 64.0079 87.0234C64.1441 87.1596 64.2803 87.2957 64.4164 87.4319C64.6412 95.7962 64.5959 104.149 64.2803 112.49C64.1373 112.679 63.9556 112.815 63.7355 112.899C51.4787 113.081 39.2219 113.081 26.9651 112.899C26.7381 112.672 26.5111 112.445 26.2841 112.218C26.1026 104.047 26.1026 95.8755 26.2841 87.7043C26.4742 87.3799 26.7012 87.1075 26.9651 86.8872Z" fill="#282A2E"/>
<path fill-rule="evenodd" clip-rule="evenodd" d="M31.323 90.7004C31.9099 90.6655 32.4547 90.8017 32.9572 91.109C35.6355 93.7872 38.314 96.4657 40.9922 99.144C41.2074 99.9976 41.1167 100.815 40.7198 101.595C38.0495 103.993 35.4619 106.49 32.9572 109.086C31.8794 109.735 31.0168 109.508 30.3697 108.405C30.188 107.86 30.188 107.315 30.3697 106.77C32.726 104.732 34.9502 102.553 37.0428 100.233C34.9586 98.0131 32.8251 95.8341 30.642 93.6965C29.984 92.4921 30.2109 91.4933 31.323 90.7004Z" fill="#FFA02B"/>
<path fill-rule="evenodd" clip-rule="evenodd" d="M101.595 90.9728C103.247 90.9077 104.881 91.0439 106.498 91.3814C108.291 92.2503 108.563 93.4307 107.315 94.9222C106.952 95.1039 106.589 95.1039 106.225 94.9222C104.693 93.7867 103.149 93.7412 101.595 94.7861C100.859 95.8369 100.95 96.8354 101.867 97.7822C103.342 98.6829 104.885 99.4545 106.498 100.097C108.88 101.857 109.561 104.172 108.541 107.043C106.66 109.999 103.981 111.044 100.506 110.175C99.3821 109.983 98.4288 109.484 97.6457 108.677C96.9446 107.265 97.3532 106.357 98.8714 105.953C100.268 106.915 101.812 107.324 103.502 107.179C105.446 106.616 106.036 105.39 105.272 103.502C105.045 103.275 104.818 103.048 104.591 102.821C102.264 102.044 100.221 100.819 98.4628 99.144C96.9119 95.3959 97.9559 92.6722 101.595 90.9728Z" fill="#FFA02B"/>
<path fill-rule="evenodd" clip-rule="evenodd" d="M85.253 91.2452C87.8362 91.0927 90.3782 91.3196 92.8794 91.9261C95.397 93.3033 96.441 95.4368 96.0117 98.3269C95.5089 101.009 93.9199 102.598 91.2452 103.093C89.9773 103.229 88.7064 103.275 87.432 103.23C87.4772 105.229 87.432 107.226 87.2958 109.222C87.0893 109.878 86.6353 110.151 85.9339 110.039C85.3799 110.079 84.9259 109.897 84.572 109.494C84.3904 103.593 84.3904 97.6915 84.572 91.79C84.8431 91.6358 85.0699 91.4541 85.253 91.2452Z" fill="#FFA02B"/>
<path fill-rule="evenodd" clip-rule="evenodd" d="M87.4319 94.2413C88.8117 94.1977 90.1736 94.3339 91.5175 94.6499C92.5539 95.7642 92.8717 97.0805 92.4708 98.5993C92.26 99.2636 91.8514 99.7632 91.2451 100.097C90.0096 100.473 88.7385 100.609 87.4319 100.506C87.4319 98.4176 87.4319 96.3296 87.4319 94.2413Z" fill="#282A2E"/>
<path fill-rule="evenodd" clip-rule="evenodd" d="M100.506 36.2258C105.953 36.2258 111.401 36.2258 116.848 36.2258C116.939 65.6879 116.848 95.1043 116.576 124.475C116.576 95.1492 116.576 65.8238 116.576 36.4982C111.172 36.5881 105.815 36.4974 100.506 36.2258Z" fill="#FFA02B"/>
<path fill-rule="evenodd" clip-rule="evenodd" d="M41.9455 106.498C44.8523 106.452 47.7577 106.498 50.6615 106.634C51.4375 107.331 51.6646 108.194 51.3424 109.222C51.0965 109.549 50.7789 109.776 50.3891 109.903C47.6654 110.084 44.9416 110.084 42.2179 109.903C41.1851 109.343 40.8675 108.481 41.2646 107.315C41.5492 107.077 41.7761 106.805 41.9455 106.498Z" fill="#FFA02B"/>
</svg>
