<?xml version="1.0" encoding="UTF-8"?>
<!DOCTYPE svg PUBLIC "-//W3C//DTD SVG 1.1//EN" "http://www.w3.org/Graphics/SVG/1.1/DTD/svg11.dtd">
<svg xmlns="http://www.w3.org/2000/svg" version="1.1" width="419px" height="531px" style="shape-rendering:geometricPrecision; text-rendering:geometricPrecision; image-rendering:optimizeQuality; fill-rule:evenodd; clip-rule:evenodd" xmlns:xlink="http://www.w3.org/1999/xlink">
<g><path style="opacity:1" fill="#fafafa" d="M -0.5,-0.5 C 139.167,-0.5 278.833,-0.5 418.5,-0.5C 418.5,176.5 418.5,353.5 418.5,530.5C 278.833,530.5 139.167,530.5 -0.5,530.5C -0.5,353.5 -0.5,176.5 -0.5,-0.5 Z"/></g>
<g><path style="opacity:1" fill="#17191c" d="M 287.5,30.5 C 214.167,31.8333 140.833,31.8333 67.5,30.5C 140.875,29.1725 214.209,29.1725 287.5,30.5 Z"/></g>
<g><path style="opacity:1" fill="#282d32" d="M 67.5,30.5 C 140.833,31.8333 214.167,31.8333 287.5,30.5C 320.859,64.3582 353.692,98.6915 386,133.5C 386.667,251.167 386.667,368.833 386,486.5C 381.432,499.401 372.599,507.901 359.5,512C 262.167,512.667 164.833,512.667 67.5,512C 53.2738,507.108 44.7738,497.274 42,482.5C 41.5001,467.837 41.3334,453.17 41.5,438.5C 26.9119,440.027 15.7452,434.694 8,422.5C 7.64011,420.392 6.97345,418.392 6,416.5C 5.33333,384.167 5.33333,351.833 6,319.5C 12.1988,303.16 24.0322,296.16 41.5,298.5C 42.8332,259.506 43.4999,220.172 43.5,180.5C 43.4887,139.812 43.1554,99.1448 42.5,58.5C 45.2012,44.1324 53.5346,34.7991 67.5,30.5 Z"/></g>
<g><path style="opacity:1" fill="#101419" d="M 75.5,45.5 C 73.8333,45.5 72.1667,45.5 70.5,45.5C 71.6085,44.71 72.9419,44.21 74.5,44C 141.5,43.3333 208.5,43.3333 275.5,44C 208.665,44.1671 141.999,44.6671 75.5,45.5 Z"/></g>
<g><path style="opacity:1" fill="#fafafa" d="M 70.5,45.5 C 72.1667,45.5 73.8333,45.5 75.5,45.5C 142.167,45.5 208.833,45.5 275.5,45.5C 275.333,68.1691 275.5,90.8358 276,113.5C 278.966,130.966 289.133,141.299 306.5,144.5C 327.994,145.497 349.66,145.831 371.5,145.5C 371.5,257.833 371.5,370.167 371.5,482.5C 368.98,490.352 363.646,495.019 355.5,496.5C 261.5,496.5 167.5,496.5 73.5,496.5C 64.6249,494.626 58.9582,489.293 56.5,480.5C 56.5,466.5 56.5,452.5 56.5,438.5C 104.168,438.667 151.834,438.5 199.5,438C 213.078,435.758 221.578,427.924 225,414.5C 225.667,383.5 225.667,352.5 225,321.5C 222.048,311.549 215.881,304.383 206.5,300C 156.538,298.523 106.538,298.023 56.5,298.5C 56.5,219.833 56.5,141.167 56.5,62.5C 57.6272,53.9094 62.2938,48.2427 70.5,45.5 Z"/></g>
<g><path style="opacity:1" fill="#f9f9f9" d="M 290.5,55.5 C 313.903,79.5539 336.903,104.054 359.5,129C 341.833,129.667 324.167,129.667 306.5,129C 299.091,126.592 293.924,121.758 291,114.5C 290.5,94.8362 290.333,75.1695 290.5,55.5 Z"/></g>
<g><path style="opacity:1" fill="#212324" d="M 248.5,165.5 C 202.67,166.499 156.67,166.832 110.5,166.5C 110.918,165.778 111.584,165.278 112.5,165C 157.904,164.172 203.238,164.339 248.5,165.5 Z"/></g>
<g><path style="opacity:1" fill="#282e33" d="M 248.5,165.5 C 252.171,168.249 253.337,171.916 252,176.5C 251.623,177.942 250.79,178.942 249.5,179.5C 249.44,178.957 249.107,178.624 248.5,178.5C 202.706,179.162 157.039,179.828 111.5,180.5C 105.418,176.069 105.085,171.403 110.5,166.5C 156.67,166.832 202.67,166.499 248.5,165.5 Z"/></g>
<g><path style="opacity:1" fill="#383c40" d="M 42.5,58.5 C 43.1554,99.1448 43.4887,139.812 43.5,180.5C 43.4999,220.172 42.8332,259.506 41.5,298.5C 41.1674,218.332 41.5007,138.332 42.5,58.5 Z"/></g>
<g><path style="opacity:1" fill="#3f4346" d="M 56.5,62.5 C 56.5,141.167 56.5,219.833 56.5,298.5C 55.1668,259.172 54.5001,219.506 54.5,179.5C 54.6667,139.833 54.8333,100.167 55,60.5C 55.2784,61.4158 55.7784,62.0825 56.5,62.5 Z"/></g>
<g><path style="opacity:1" fill="#09090a" d="M 249.5,179.5 C 203.572,180.495 157.572,180.828 111.5,180.5C 157.039,179.828 202.706,179.162 248.5,178.5C 249.107,178.624 249.44,178.957 249.5,179.5 Z"/></g>
<g><path style="opacity:1" fill="#24292e" d="M 110.5,209.5 C 180.167,209.333 249.834,209.5 319.5,210C 322.516,211.529 323.849,214.029 323.5,217.5C 323.881,220.325 322.881,222.491 320.5,224C 250.5,224.667 180.5,224.667 110.5,224C 105.232,219.171 105.232,214.337 110.5,209.5 Z"/></g>
<g><path style="opacity:1" fill="#2e3337" d="M 112.5,252.5 C 180.834,252.333 249.167,252.5 317.5,253C 323.158,254.829 324.992,258.663 323,264.5C 321.786,266.049 320.286,267.215 318.5,268C 249.833,268.667 181.167,268.667 112.5,268C 106.547,265.475 105.047,261.309 108,255.5C 109.409,254.219 110.909,253.219 112.5,252.5 Z"/></g>
<g><path style="opacity:1" fill="#f7f8f8" d="M 199.5,422.5 C 143.5,422.5 87.5,422.5 31.5,422.5C 25.5905,421.092 21.7572,417.426 20,411.5C 19.3333,382.5 19.3333,353.5 20,324.5C 21.5,319 25,315.5 30.5,314C 86.8333,313.333 143.167,313.333 199.5,314C 204.974,315.474 208.474,318.974 210,324.5C 210.667,353.833 210.667,383.167 210,412.5C 208.254,417.748 204.754,421.081 199.5,422.5 Z"/></g>
<g><path style="opacity:1" fill="#292d32" d="M 103.5,335.5 C 111.561,335.179 119.561,335.679 127.5,337C 139.089,340.915 143.256,348.749 140,360.5C 138.207,363.295 136.04,365.795 133.5,368C 144.601,375.169 146.435,384.336 139,395.5C 131.293,400.982 122.627,403.315 113,402.5C 109.5,402.333 106,402.167 102.5,402C 101.667,401.167 100.833,400.333 100,399.5C 99.3333,379.167 99.3333,358.833 100,338.5C 101.145,337.364 102.312,336.364 103.5,335.5 Z"/></g>
<g><path style="opacity:1" fill="#292d32" d="M 170.5,335.5 C 174.422,335.069 177.922,336.069 181,338.5C 186.821,355.452 192.488,372.452 198,389.5C 199.277,393.097 199.61,396.764 199,400.5C 193.844,403.866 189.844,402.866 187,397.5C 186.263,393.793 185.429,390.127 184.5,386.5C 177.5,386.5 170.5,386.5 163.5,386.5C 162.598,391.785 160.931,396.785 158.5,401.5C 153.905,403.52 150.239,402.52 147.5,398.5C 154.303,378.629 160.803,358.629 167,338.5C 168.145,337.364 169.312,336.364 170.5,335.5 Z"/></g>
<g><path style="opacity:1" fill="#f6f6f6" d="M 111.5,346.5 C 116.248,346.275 120.915,346.775 125.5,348C 129.5,352.667 129.5,357.333 125.5,362C 120.934,363.309 116.267,363.809 111.5,363.5C 111.5,357.833 111.5,352.167 111.5,346.5 Z"/></g>
<g><path style="opacity:1" fill="#f5f5f5" d="M 173.5,351.5 C 176.209,359.303 178.542,367.303 180.5,375.5C 176.167,375.5 171.833,375.5 167.5,375.5C 169.5,367.5 171.5,359.5 173.5,351.5 Z"/></g>
<g><path style="opacity:1" fill="#c7c8c8" d="M 306.5,144.5 C 328.5,144.5 350.5,144.5 372.5,144.5C 372.833,257.335 372.5,370.001 371.5,482.5C 371.5,370.167 371.5,257.833 371.5,145.5C 349.66,145.831 327.994,145.497 306.5,144.5 Z"/></g>
<g><path style="opacity:1" fill="#282d31" d="M 41.5,336.5 C 44.7766,336.216 47.9433,336.549 51,337.5C 55.8786,352.92 60.8786,368.253 66,383.5C 70.4148,368.095 75.0815,352.762 80,337.5C 83.3333,336.167 86.6667,336.167 90,337.5C 90.2925,343.676 89.2925,349.676 87,355.5C 81.9076,370.708 76.7409,385.875 71.5,401C 66.9733,403.226 62.8066,402.726 59,399.5C 51.8359,380.333 45.6693,360.833 40.5,341C 40.6052,339.408 40.9386,337.908 41.5,336.5 Z"/></g>
<g><path style="opacity:1" fill="#525456" d="M 123.5,374.5 C 119.5,374.5 115.5,374.5 111.5,374.5C 111.5,379.833 111.5,385.167 111.5,390.5C 110.155,384.695 109.655,378.695 110,372.5C 114.601,373.142 119.101,373.809 123.5,374.5 Z"/></g>
<g><path style="opacity:1" fill="#f9f9f9" d="M 123.5,374.5 C 130.046,376.006 132.213,380.006 130,386.5C 128.786,388.049 127.286,389.215 125.5,390C 120.845,390.499 116.179,390.666 111.5,390.5C 111.5,385.167 111.5,379.833 111.5,374.5C 115.5,374.5 119.5,374.5 123.5,374.5 Z"/></g>
<g><path style="opacity:1" fill="#3a3e41" d="M 31.5,422.5 C 87.5,422.5 143.5,422.5 199.5,422.5C 199.611,423.117 199.944,423.617 200.5,424C 143.5,424.667 86.5,424.667 29.5,424C 30.4158,423.722 31.0825,423.222 31.5,422.5 Z"/></g>
<g><path style="opacity:1" fill="#444749" d="M 56.5,438.5 C 56.5,452.5 56.5,466.5 56.5,480.5C 55.7784,480.918 55.2784,481.584 55,482.5C 54.3333,467.5 54.3333,452.5 55,437.5C 55.3826,438.056 55.8826,438.389 56.5,438.5 Z"/></g>
<g><path style="opacity:1" fill="#3e4245" d="M 73.5,496.5 C 167.5,496.5 261.5,496.5 355.5,496.5C 355.918,497.222 356.584,497.722 357.5,498C 261.5,498.667 165.5,498.667 69.5,498C 71.0581,497.79 72.3915,497.29 73.5,496.5 Z"/></g>
</svg>
