<?xml version="1.0" encoding="UTF-8"?>
<!DOCTYPE svg PUBLIC "-//W3C//DTD SVG 1.1//EN" "http://www.w3.org/Graphics/SVG/1.1/DTD/svg11.dtd">
<svg xmlns="http://www.w3.org/2000/svg" version="1.1" width="494px" height="514px" style="shape-rendering:geometricPrecision; text-rendering:geometricPrecision; image-rendering:optimizeQuality; fill-rule:evenodd; clip-rule:evenodd" xmlns:xlink="http://www.w3.org/1999/xlink">
<g><path style="opacity:1" fill="#fdfdfd" d="M -0.5,-0.5 C 164.167,-0.5 328.833,-0.5 493.5,-0.5C 493.5,170.833 493.5,342.167 493.5,513.5C 328.833,513.5 164.167,513.5 -0.5,513.5C -0.5,342.167 -0.5,170.833 -0.5,-0.5 Z"/></g>
<g><path style="opacity:1" fill="#272a2f" d="M 347.5,24.5 C 275.5,25.8333 203.5,25.8333 131.5,24.5C 203.598,23.1689 275.598,23.1689 347.5,24.5 Z"/></g>
<g><path style="opacity:1" fill="#292e33" d="M 131.5,24.5 C 203.5,25.8333 275.5,25.8333 347.5,24.5C 378.8,57.3022 409.967,90.3022 441,123.5C 441.667,236.5 441.667,349.5 441,462.5C 437.158,475.675 428.658,484.175 415.5,488C 319.833,488.667 224.167,488.667 128.5,488C 114.8,483.806 107.133,474.639 105.5,460.5C 94.1618,460.667 82.8284,460.5 71.5,460C 60.2968,455.466 53.4635,447.299 51,435.5C 50.3333,389.5 50.3333,343.5 51,297.5C 54.1035,283.562 62.6035,275.229 76.5,272.5C 86.8333,272.5 97.1667,272.5 107.5,272.5C 107.5,198.833 107.5,125.167 107.5,51.5C 109.872,37.4629 117.872,28.4629 131.5,24.5 Z"/></g>
<g><path style="opacity:1" fill="#7d7e7f" d="M 135.5,38.5 C 202.665,37.5008 269.998,37.1675 337.5,37.5C 337.5,58.8333 337.5,80.1667 337.5,101.5C 336.503,80.6733 336.169,59.6733 336.5,38.5C 269.5,38.5 202.5,38.5 135.5,38.5 Z"/></g>
<g><path style="opacity:1" fill="#fcfcfc" d="M 135.5,38.5 C 202.5,38.5 269.5,38.5 336.5,38.5C 336.169,59.6733 336.503,80.6733 337.5,101.5C 338.81,113.32 344.477,122.487 354.5,129C 358.936,131.109 363.603,132.276 368.5,132.5C 387.993,133.497 407.66,133.83 427.5,133.5C 427.5,241.167 427.5,348.833 427.5,456.5C 426.34,465.502 421.34,471.335 412.5,474C 319.167,474.667 225.833,474.667 132.5,474C 125.197,472.199 120.863,467.699 119.5,460.5C 166.168,460.667 212.835,460.5 259.5,460C 273.853,456.977 282.02,448.144 284,433.5C 284.667,388.5 284.667,343.5 284,298.5C 281.204,283.536 272.371,274.87 257.5,272.5C 212.336,271.501 167.003,271.168 121.5,271.5C 121.5,198.5 121.5,125.5 121.5,52.5C 123.167,44.8333 127.833,40.1667 135.5,38.5 Z"/></g>
<g><path style="opacity:1" fill="#fcfcfc" d="M 352.5,50.5 C 373.967,72.802 395.3,95.302 416.5,118C 399.5,118.667 382.5,118.667 365.5,118C 357.737,115.074 353.07,109.574 351.5,101.5C 351.17,84.3251 351.503,67.3251 352.5,50.5 Z"/></g>
<g><path style="opacity:1" fill="#cccccd" d="M 352.5,50.5 C 351.503,67.3251 351.17,84.3251 351.5,101.5C 350.338,84.0048 350.171,66.3381 351,48.5C 351.717,49.0442 352.217,49.7109 352.5,50.5 Z"/></g>
<g><path style="opacity:1" fill="#262c32" d="M 174.5,151.5 C 222.501,151.333 270.501,151.5 318.5,152C 322.5,156.333 322.5,160.667 318.5,165C 270.5,165.667 222.5,165.667 174.5,165C 170.304,162.019 169.471,158.186 172,153.5C 172.995,152.934 173.828,152.267 174.5,151.5 Z"/></g>
<g><path style="opacity:1" fill="#bababa" d="M 107.5,51.5 C 107.5,125.167 107.5,198.833 107.5,272.5C 97.1667,272.5 86.8333,272.5 76.5,272.5C 86.3194,271.506 96.3194,271.173 106.5,271.5C 106.167,197.998 106.501,124.665 107.5,51.5 Z"/></g>
<g><path style="opacity:1" fill="#272c32" d="M 174.5,193.5 C 242.834,193.333 311.167,193.5 379.5,194C 383.957,199.135 383.29,203.468 377.5,207C 309.833,207.667 242.167,207.667 174.5,207C 169.178,202.328 169.178,197.828 174.5,193.5 Z"/></g>
<g><path style="opacity:1" fill="#b7b8b8" d="M 121.5,52.5 C 121.5,125.5 121.5,198.5 121.5,271.5C 167.003,271.168 212.336,271.501 257.5,272.5C 211.833,272.5 166.167,272.5 120.5,272.5C 120.167,198.998 120.501,125.665 121.5,52.5 Z"/></g>
<g><path style="opacity:1" fill="#fbfbfb" d="M 75.5,286.5 C 136.501,286.333 197.501,286.5 258.5,287C 264.731,288.963 268.564,293.13 270,299.5C 270.667,344.5 270.667,389.5 270,434.5C 268.167,440.333 264.333,444.167 258.5,446C 198.167,446.667 137.833,446.667 77.5,446C 70.7024,444.536 66.5358,440.369 65,433.5C 64.3333,388.5 64.3333,343.5 65,298.5C 66.9363,293.068 70.4363,289.068 75.5,286.5 Z"/></g>
<g><path style="opacity:1" fill="#282d32" d="M 93.5,305.5 C 141.501,305.333 189.501,305.5 237.5,306C 242.91,307.743 246.744,311.243 249,316.5C 249.667,348.833 249.667,381.167 249,413.5C 247.131,420.702 242.631,425.202 235.5,427C 188.833,427.667 142.167,427.667 95.5,427C 89.6667,425.167 85.8333,421.333 84,415.5C 83.3333,382.5 83.3333,349.5 84,316.5C 85.5992,311.406 88.7658,307.739 93.5,305.5 Z"/></g>
<g><path style="opacity:1" fill="#fafafa" d="M 98.5,318.5 C 143.835,318.333 189.168,318.5 234.5,319C 235,319.5 235.5,320 236,320.5C 236.825,351.209 236.659,381.875 235.5,412.5C 234.975,413.192 234.308,413.692 233.5,414C 188.5,414.667 143.5,414.667 98.5,414C 97.6667,413.167 96.8333,412.333 96,411.5C 95.3333,381.5 95.3333,351.5 96,321.5C 96.6979,320.309 97.5313,319.309 98.5,318.5 Z"/></g>
<g><path style="opacity:1" fill="#2a2f34" d="M 114.5,332.5 C 116.655,332.372 118.655,332.872 120.5,334C 130.333,343.833 140.167,353.667 150,363.5C 150.79,366.634 150.457,369.634 149,372.5C 139.196,381.303 129.696,390.47 120.5,400C 116.543,402.385 113.376,401.552 111,397.5C 110.333,395.5 110.333,393.5 111,391.5C 119.651,384.016 127.817,376.016 135.5,367.5C 127.848,359.348 120.015,351.348 112,343.5C 109.584,339.078 110.417,335.411 114.5,332.5 Z"/></g>
<g><path style="opacity:1" fill="#2a2f34" d="M 372.5,333.5 C 378.565,333.261 384.565,333.761 390.5,335C 397.083,338.19 398.083,342.524 393.5,348C 392.167,348.667 390.833,348.667 389.5,348C 383.872,343.831 378.206,343.664 372.5,347.5C 369.798,351.358 370.131,355.024 373.5,358.5C 378.912,361.807 384.579,364.64 390.5,367C 399.247,373.459 401.747,381.959 398,392.5C 391.095,403.355 381.261,407.189 368.5,404C 364.375,403.296 360.875,401.463 358,398.5C 355.426,393.316 356.926,389.983 362.5,388.5C 367.628,392.032 373.295,393.532 379.5,393C 386.637,390.931 388.804,386.431 386,379.5C 385.167,378.667 384.333,377.833 383.5,377C 374.955,374.148 367.455,369.648 361,363.5C 355.306,349.739 359.139,339.739 372.5,333.5 Z"/></g>
<g><path style="opacity:1" fill="#292e34" d="M 312.5,334.5 C 321.984,333.94 331.317,334.773 340.5,337C 349.743,342.056 353.576,349.889 352,360.5C 350.154,370.346 344.32,376.18 334.5,378C 329.845,378.499 325.179,378.666 320.5,378.5C 320.666,385.841 320.5,393.174 320,400.5C 319.242,402.91 317.575,403.91 315,403.5C 312.966,403.646 311.299,402.98 310,401.5C 309.333,379.833 309.333,358.167 310,336.5C 310.995,335.934 311.828,335.267 312.5,334.5 Z"/></g>
<g><path style="opacity:1" fill="#fafafa" d="M 320.5,345.5 C 325.566,345.34 330.566,345.84 335.5,347C 339.305,351.091 340.472,355.924 339,361.5C 338.226,363.939 336.726,365.773 334.5,367C 329.964,368.379 325.297,368.879 320.5,368.5C 320.5,360.833 320.5,353.167 320.5,345.5 Z"/></g>
<g><path style="opacity:1" fill="#67686a" d="M 368.5,132.5 C 388.5,132.5 408.5,132.5 428.5,132.5C 428.833,240.668 428.499,348.668 427.5,456.5C 427.5,348.833 427.5,241.167 427.5,133.5C 407.66,133.83 387.993,133.497 368.5,132.5 Z"/></g>
<g><path style="opacity:1" fill="#272c31" d="M 153.5,390.5 C 164.172,390.333 174.839,390.5 185.5,391C 188.349,393.559 189.183,396.726 188,400.5C 187.097,401.701 185.931,402.535 184.5,403C 174.5,403.667 164.5,403.667 154.5,403C 150.708,400.947 149.542,397.781 151,393.5C 152.045,392.627 152.878,391.627 153.5,390.5 Z"/></g>
</svg>
