<?xml version="1.0" encoding="UTF-8"?>
<!DOCTYPE svg PUBLIC "-//W3C//DTD SVG 1.1//EN" "http://www.w3.org/Graphics/SVG/1.1/DTD/svg11.dtd">
<svg xmlns="http://www.w3.org/2000/svg" version="1.1" width="484px" height="544px" style="shape-rendering:geometricPrecision; text-rendering:geometricPrecision; image-rendering:optimizeQuality; fill-rule:evenodd; clip-rule:evenodd" xmlns:xlink="http://www.w3.org/1999/xlink">
<g><path style="opacity:1" fill="#fbfbfb" d="M -0.5,-0.5 C 160.833,-0.5 322.167,-0.5 483.5,-0.5C 483.5,180.833 483.5,362.167 483.5,543.5C 322.167,543.5 160.833,543.5 -0.5,543.5C -0.5,362.167 -0.5,180.833 -0.5,-0.5 Z"/></g>
<g><path style="opacity:1" fill="#16191d" d="M 341.5,36.5 C 267.167,37.8333 192.833,37.8333 118.5,36.5C 192.863,35.1694 267.196,35.1694 341.5,36.5 Z"/></g>
<g><path style="opacity:1" fill="#292d32" d="M 118.5,36.5 C 192.833,37.8333 267.167,37.8333 341.5,36.5C 375.475,70.6445 408.642,105.645 441,141.5C 441.667,256.833 441.667,372.167 441,487.5C 438.578,503.255 429.744,513.421 414.5,518C 316.167,518.667 217.833,518.667 119.5,518C 107.185,514.354 98.6853,506.52 94,494.5C 92.6093,477.872 92.1093,461.205 92.5,444.5C 82.1171,444.838 71.7837,444.338 61.5,443C 52.9425,438.776 46.7758,432.276 43,423.5C 42.3333,390.833 42.3333,358.167 43,325.5C 46.0152,316.484 51.8486,309.984 60.5,306C 71.1112,304.625 81.7779,304.125 92.5,304.5C 92.3333,224.499 92.5,144.499 93,64.5C 96.1067,50.2278 104.607,40.8944 118.5,36.5 Z"/></g>
<g><path style="opacity:1" fill="#16181b" d="M 107.5,65.5 C 107.5,145.167 107.5,224.833 107.5,304.5C 153.5,304.5 199.5,304.5 245.5,304.5C 199.098,305.832 152.598,305.832 106,304.5C 105.333,225.833 105.333,147.167 106,68.5C 106.232,67.2625 106.732,66.2625 107.5,65.5 Z"/></g>
<g><path style="opacity:1" fill="#c5c7c8" d="M 348.5,65.5 C 347.5,65.5 346.5,65.5 345.5,65.5C 345.5,83.5 345.5,101.5 345.5,119.5C 344.338,100.338 344.171,81.0044 345,61.5C 346.376,62.7051 347.542,64.0384 348.5,65.5 Z"/></g>
<g><path style="opacity:1" fill="#fafafa" d="M 348.5,65.5 C 370.498,88.3068 392.165,111.473 413.5,135C 395.833,135.667 378.167,135.667 360.5,135C 352.585,132.586 347.585,127.419 345.5,119.5C 345.5,101.5 345.5,83.5 345.5,65.5C 346.5,65.5 347.5,65.5 348.5,65.5 Z"/></g>
<g><path style="opacity:1" fill="#fafafa" d="M 359.5,150.5 C 381.327,151.497 403.327,151.831 425.5,151.5C 425.5,263.5 425.5,375.5 425.5,487.5C 423.395,495.938 418.061,500.938 409.5,502.5C 314.167,502.5 218.833,502.5 123.5,502.5C 115.793,500.993 110.46,496.659 107.5,489.5C 107.5,474.167 107.5,458.833 107.5,443.5C 154.5,443.5 201.5,443.5 248.5,443.5C 260.111,440.389 267.611,433.056 271,421.5C 271.667,390.167 271.667,358.833 271,327.5C 267.66,313.989 259.16,306.322 245.5,304.5C 199.5,304.5 153.5,304.5 107.5,304.5C 107.5,224.833 107.5,145.167 107.5,65.5C 110.284,59.5489 114.617,55.0489 120.5,52C 190.166,51.5 259.833,51.3333 329.5,51.5C 329.333,74.5024 329.5,97.5024 330,120.5C 333.359,137.025 343.192,147.025 359.5,150.5 Z"/></g>
<g><path style="opacity:1" fill="#0c0f13" d="M 377.5,228.5 C 377.389,229.117 377.056,229.617 376.5,230C 304.834,230.5 233.167,230.667 161.5,230.5C 233.373,229.827 305.373,229.16 377.5,228.5 Z"/></g>
<g><path style="opacity:1" fill="#262a2f" d="M 377.5,228.5 C 305.373,229.16 233.373,229.827 161.5,230.5C 157.917,229.578 156.25,227.244 156.5,223.5C 156.151,220.029 157.484,217.529 160.5,216C 232.5,215.333 304.5,215.333 376.5,216C 381.28,219.992 381.613,224.159 377.5,228.5 Z"/></g>
<g><path style="opacity:1" fill="#090909" d="M 317.5,185.5 C 265.069,186.83 212.736,186.83 160.5,185.5C 213.079,185.488 265.413,185.488 317.5,185.5 Z"/></g>
<g><path style="opacity:1" fill="#282e33" d="M 160.5,171.5 C 212.5,172.833 264.5,172.833 316.5,171.5C 320.314,174.152 321.481,177.819 320,182.5C 319.623,183.942 318.79,184.942 317.5,185.5C 265.413,185.488 213.079,185.488 160.5,185.5C 157.103,184.742 155.77,182.575 156.5,179C 155.919,175.429 157.252,172.929 160.5,171.5 Z"/></g>
<g><path style="opacity:1" fill="#212224" d="M 316.5,171.5 C 264.5,172.833 212.5,172.833 160.5,171.5C 212.5,170.167 264.5,170.167 316.5,171.5 Z"/></g>
<g><path style="opacity:1" fill="#f9f9f9" d="M 248.5,427.5 C 188.571,428.496 128.571,428.829 68.5,428.5C 63.7421,427.586 60.2421,424.919 58,420.5C 57.0154,389.081 57.3488,357.748 59,326.5C 61.2643,323.567 64.0976,321.4 67.5,320C 127.167,319.333 186.833,319.333 246.5,320C 251.694,321.193 254.86,324.36 256,329.5C 256.667,359.5 256.667,389.5 256,419.5C 254.676,423.323 252.176,425.989 248.5,427.5 Z"/></g>
<g><path style="opacity:1" fill="#272b30" d="M 371.5,383.5 C 372.289,383.217 372.956,382.717 373.5,382C 347.835,381.5 322.169,381.333 296.5,381.5C 289.896,378.955 288.396,374.621 292,368.5C 293.33,367.418 294.83,366.751 296.5,366.5C 322.169,366.667 347.835,366.5 373.5,366C 372.956,365.283 372.289,364.783 371.5,364.5C 362.135,355.303 353.302,345.636 345,335.5C 344.132,331.328 345.632,328.162 349.5,326C 351.5,325.333 353.5,325.333 355.5,326C 369.641,339.809 383.475,353.975 397,368.5C 400.201,372.245 400.201,375.912 397,379.5C 383.139,394.026 369.306,408.526 355.5,423C 347.385,424.218 343.885,420.718 345,412.5C 354.04,402.963 362.873,393.296 371.5,383.5 Z"/></g>
<g><path style="opacity:1" fill="#2a2e33" d="M 96.5,353.5 C 95.5128,358.305 95.1795,363.305 95.5,368.5C 102.167,368.5 108.833,368.5 115.5,368.5C 120.254,369.618 121.754,372.618 120,377.5C 119.292,378.381 118.458,379.047 117.5,379.5C 110.167,379.5 102.833,379.5 95.5,379.5C 95.1778,385.358 95.5111,391.025 96.5,396.5C 105.173,396.334 113.84,396.5 122.5,397C 124.504,399.841 125.004,403.007 124,406.5C 123.25,407.126 122.416,407.626 121.5,408C 109.833,408.667 98.1667,408.667 86.5,408C 85.6667,407.167 84.8333,406.333 84,405.5C 83.3333,385.167 83.3333,364.833 84,344.5C 84.8333,343.667 85.6667,342.833 86.5,342C 97.8333,341.333 109.167,341.333 120.5,342C 121.667,342.5 122.5,343.333 123,344.5C 123.978,347.669 123.478,350.503 121.5,353C 113.173,353.5 104.84,353.666 96.5,353.5 Z"/></g>
<g><path style="opacity:1" fill="#282c31" d="M 134.5,341.5 C 137.978,341.184 141.312,341.684 144.5,343C 148.542,349.585 152.709,356.085 157,362.5C 160.792,355.745 164.959,349.245 169.5,343C 173.192,340.841 176.692,341.007 180,343.5C 180.667,344.833 180.667,346.167 180,347.5C 174.817,356.537 169.651,365.537 164.5,374.5C 169.985,383.462 175.485,392.462 181,401.5C 181.808,403.579 181.641,405.579 180.5,407.5C 177.562,408.575 174.562,408.741 171.5,408C 166.295,401.092 161.462,393.926 157,386.5C 152.127,393.076 147.627,399.91 143.5,407C 140.041,408.706 136.541,408.872 133,407.5C 132.333,405.5 132.333,403.5 133,401.5C 138.487,392.533 143.987,383.533 149.5,374.5C 143.748,365.331 138.248,355.998 133,346.5C 132.387,344.505 132.887,342.838 134.5,341.5 Z"/></g>
<g><path style="opacity:1" fill="#2a2e32" d="M 204.5,353.5 C 203.513,358.305 203.179,363.305 203.5,368.5C 210.5,368.5 217.5,368.5 224.5,368.5C 227.525,369.033 228.858,370.867 228.5,374C 228.858,377.133 227.525,378.967 224.5,379.5C 217.5,379.5 210.5,379.5 203.5,379.5C 203.178,385.358 203.511,391.025 204.5,396.5C 213.173,396.334 221.84,396.5 230.5,397C 233.439,401.018 233.105,404.685 229.5,408C 217.833,408.667 206.167,408.667 194.5,408C 193.692,407.692 193.025,407.192 192.5,406.5C 191.345,385.543 191.178,364.543 192,343.5C 192.75,342.874 193.584,342.374 194.5,342C 205.5,341.333 216.5,341.333 227.5,342C 232.414,345.171 232.747,348.837 228.5,353C 220.507,353.5 212.507,353.666 204.5,353.5 Z"/></g>
<g><path style="opacity:1" fill="#b8bbbc" d="M 371.5,364.5 C 372.289,364.783 372.956,365.283 373.5,366C 347.835,366.5 322.169,366.667 296.5,366.5C 321.5,365.833 346.5,365.167 371.5,364.5 Z"/></g>
<g><path style="opacity:1" fill="#a8a9aa" d="M 96.5,353.5 C 96.5,358.167 96.5,362.833 96.5,367.5C 103.022,367.177 109.355,367.51 115.5,368.5C 108.833,368.5 102.167,368.5 95.5,368.5C 95.1795,363.305 95.5128,358.305 96.5,353.5 Z"/></g>
<g><path style="opacity:1" fill="#88898c" d="M 204.5,353.5 C 204.5,358.167 204.5,362.833 204.5,367.5C 211.354,367.176 218.021,367.509 224.5,368.5C 217.5,368.5 210.5,368.5 203.5,368.5C 203.179,363.305 203.513,358.305 204.5,353.5 Z"/></g>
<g><path style="opacity:1" fill="#b5b6b7" d="M 359.5,150.5 C 381.833,150.5 404.167,150.5 426.5,150.5C 426.833,263.001 426.5,375.335 425.5,487.5C 425.5,375.5 425.5,263.5 425.5,151.5C 403.327,151.831 381.327,151.497 359.5,150.5 Z"/></g>
<g><path style="opacity:1" fill="#adaeb0" d="M 296.5,381.5 C 322.169,381.333 347.835,381.5 373.5,382C 372.956,382.717 372.289,383.217 371.5,383.5C 346.5,382.833 321.5,382.167 296.5,381.5 Z"/></g>
<g><path style="opacity:1" fill="#76777a" d="M 224.5,379.5 C 218.021,380.491 211.354,380.824 204.5,380.5C 204.5,385.833 204.5,391.167 204.5,396.5C 203.511,391.025 203.178,385.358 203.5,379.5C 210.5,379.5 217.5,379.5 224.5,379.5 Z"/></g>
<g><path style="opacity:1" fill="#88898a" d="M 117.5,379.5 C 110.687,380.491 103.687,380.825 96.5,380.5C 96.5,385.833 96.5,391.167 96.5,396.5C 95.5111,391.025 95.1778,385.358 95.5,379.5C 102.833,379.5 110.167,379.5 117.5,379.5 Z"/></g>
<g><path style="opacity:1" fill="#3a3d41" d="M 248.5,427.5 C 249.953,428.825 249.619,429.658 247.5,430C 187.167,430.667 126.833,430.667 66.5,430C 67.4158,429.722 68.0825,429.222 68.5,428.5C 128.571,428.829 188.571,428.496 248.5,427.5 Z"/></g>
<g><path style="opacity:1" fill="#1a1d1f" d="M 248.5,443.5 C 201.5,443.5 154.5,443.5 107.5,443.5C 107.5,458.833 107.5,474.167 107.5,489.5C 106.732,488.737 106.232,487.737 106,486.5C 105.177,471.925 105.344,457.425 106.5,443C 154.002,442.168 201.335,442.335 248.5,443.5 Z"/></g>
<g><path style="opacity:1" fill="#3e4145" d="M 123.5,502.5 C 218.833,502.5 314.167,502.5 409.5,502.5C 410.263,503.268 411.263,503.768 412.5,504C 315.5,504.667 218.5,504.667 121.5,504C 122.416,503.722 123.082,503.222 123.5,502.5 Z"/></g>
</svg>
