<svg width="95" height="128" viewBox="0 0 95 128" fill="none" xmlns="http://www.w3.org/2000/svg">
<path fill-rule="evenodd" clip-rule="evenodd" d="M62.2615 0.0217285C73.0404 10.5689 83.7036 21.2319 94.2506 32.0109C85.9049 32.0689 77.5599 32.0109 69.2156 31.837C65.4624 30.5362 63.2023 27.9283 62.4353 24.0136C62.2615 16.0171 62.2034 8.01984 62.2615 0.0217285Z" fill="#97C8FE"/>
<path fill-rule="evenodd" clip-rule="evenodd" d="M62.2614 0.0217366C62.2034 8.01985 62.2614 16.0171 62.4353 24.0136C63.2023 27.9283 65.4624 30.5362 69.2156 31.837C77.5599 32.0109 85.9049 32.0689 94.2506 32.0109C94.2506 40.2401 94.2506 48.4689 94.2506 56.6981C94.0218 56.3859 93.7902 56.0382 93.5551 55.655C93.2672 55.9731 92.9195 56.2047 92.512 56.3504C91.4477 56.0795 90.4046 55.9638 89.3827 56.0027C89.142 56.1852 88.9682 56.4172 88.8611 56.6981C88.6142 56.1859 88.2088 55.954 87.6441 56.0027C87.6441 56.3504 87.6441 56.6981 87.6441 57.0458C86.0405 57.5476 85.9247 57.316 87.2964 56.3504C87.1806 56.0027 86.9487 55.7708 86.601 55.655C85.9056 55.655 85.2102 55.655 84.5147 55.655C84.399 55.7708 84.2828 55.8869 84.167 56.0027C85.0836 56.5465 85.0255 57.01 83.9932 57.3935C83.8228 56.944 83.7647 56.4801 83.8193 56.0027C81.9264 56.5382 80.1879 56.4224 78.6037 55.655C77.393 56.7906 76.1183 56.9067 74.7789 56.0027C74.7083 55.4658 74.4764 55.002 74.0835 54.6119C55.3083 54.2061 36.5321 54.1484 17.7548 54.438C17.581 54.6119 17.4071 54.7857 17.2333 54.9596C17.0598 56.3455 17.0019 57.7364 17.0594 59.1321C16.8279 58.2531 16.5961 57.3261 16.364 56.3504C15.5853 55.7871 14.9479 55.9029 14.4516 56.6981C14.3357 56.3504 14.2198 56.0027 14.1039 55.655C13.9233 56.0083 13.6336 56.2398 13.2346 56.3504C12.1703 56.0795 11.1271 55.9638 10.1053 56.0027C9.8442 56.3073 9.67034 56.655 9.58369 57.0458C9.03355 56.277 8.28017 55.8132 7.32359 55.655C6.52383 55.783 5.77049 55.783 5.06349 55.655C4.89235 56.0197 4.95028 56.3675 5.23735 56.6981C5.13039 56.9791 4.95654 57.211 4.71578 57.3935C4.54541 56.944 4.48744 56.4801 4.54193 56.0027C2.98257 56.1999 1.47581 56.3156 0.0217285 56.3504C0.0217285 40.1239 0.0217285 23.8977 0.0217285 7.67131C0.0664785 7.07461 0.18237 6.49508 0.369436 5.93277C0.622255 5.07956 0.969963 4.26822 1.41256 3.49882C2.81553 1.86998 4.55407 0.768926 6.62818 0.195591C25.1722 0.0217366 43.7168 -0.0362263 62.2614 0.0217366Z" fill="#2E89FE"/>
<path fill-rule="evenodd" clip-rule="evenodd" d="M0.021722 91.8167C31.4312 91.8167 62.8411 91.8167 94.2506 91.8167C94.3086 101.669 94.2506 111.521 94.0767 121.372C93.6181 122.753 92.9804 124.028 92.1643 125.197C91.2238 125.896 90.2964 126.592 89.3826 127.283C88.5388 127.291 87.7276 127.465 86.9487 127.804C60.2913 127.978 33.6336 128.036 6.97588 127.978C5.15285 127.414 3.53023 126.487 2.10797 125.197C1.19565 123.95 0.558166 122.559 0.195576 121.024C0.021722 111.289 -0.0362062 101.553 0.021722 91.8167Z" fill="#0451C8"/>
<path fill-rule="evenodd" clip-rule="evenodd" d="M65.0431 101.9C66.4805 101.558 67.9875 101.442 69.5633 101.552C70.2692 103.142 71.1384 104.648 72.1711 106.073C72.9597 104.528 73.829 103.021 74.7789 101.552C76.2855 101.089 77.7925 101.089 79.2991 101.552C77.5227 104.062 76.0157 106.728 74.7789 109.55C76.3078 112.491 77.9302 115.388 79.6468 118.242C78.1534 118.646 76.6465 118.704 75.1266 118.416C74.0693 116.591 72.9681 114.794 71.8234 113.027C70.6788 114.794 69.5776 116.591 68.5202 118.416C67.1342 118.59 65.7434 118.648 64.3477 118.59C65.9607 115.597 67.5835 112.584 69.2156 109.55C68.0031 106.892 66.6123 104.342 65.0431 101.9Z" fill="#F4F7FC"/>
<path fill-rule="evenodd" clip-rule="evenodd" d="M53.221 101.205C55.0792 101.147 56.9335 101.205 58.7844 101.379C61.9906 102.517 63.3814 104.777 62.9569 108.159C61.566 108.159 60.1752 108.159 58.7844 108.159C59.0375 105.341 57.7628 104.124 54.9596 104.508C53.0774 105.645 52.382 107.326 52.8733 109.55C52.5183 111.77 53.0979 113.683 54.6119 115.287C57.5545 115.88 58.9453 114.663 58.7844 111.636C60.1752 111.636 61.566 111.636 62.9569 111.636C63.2138 115.131 61.7072 117.391 58.4367 118.416C53.5698 119.78 50.3823 118.099 48.8747 113.374C48.6428 111.056 48.6428 108.738 48.8747 106.42C49.1386 105.278 49.6021 104.235 50.2655 103.291C51.2168 102.508 52.2019 101.812 53.221 101.205Z" fill="#F7F9FD"/>
<path fill-rule="evenodd" clip-rule="evenodd" d="M35.4879 101.205C40.1413 100.141 43.5606 101.647 45.7453 105.725C46.4275 108.502 46.4275 111.283 45.7453 114.07C44.7307 116.927 42.7025 118.491 39.6604 118.764C35.5912 119.424 32.7518 117.86 31.1416 114.07C30.6148 111.543 30.499 108.993 30.7939 106.42C31.5807 103.954 33.1454 102.216 35.4879 101.205Z" fill="#F7F9FD"/>
<path fill-rule="evenodd" clip-rule="evenodd" d="M41.7467 107.463C42.1469 109.254 42.2046 111.109 41.9205 113.027C41.7874 113.22 41.6135 113.336 41.399 113.374C41.7143 111.425 41.8301 109.455 41.7467 107.463Z" fill="#789FE0"/>
<path fill-rule="evenodd" clip-rule="evenodd" d="M41.7467 107.463C41.8301 109.455 41.7143 111.425 41.399 113.374C40.4946 115.308 38.9879 115.946 36.8787 115.287C35.3655 113.763 34.6701 111.909 34.7925 109.723C34.6346 105.234 36.6051 103.727 40.7035 105.203C41.3819 105.806 41.7296 106.56 41.7467 107.463Z" fill="#1354C9"/>
<path fill-rule="evenodd" clip-rule="evenodd" d="M22.275 101.552C26.5599 102.511 28.5303 105.235 28.1861 109.724C28.391 112.79 27.3479 115.34 25.0567 117.373C24.309 117.864 23.4977 118.154 22.6227 118.242C19.957 118.242 17.2912 118.242 14.6255 118.242C14.6255 112.679 14.6255 107.116 14.6255 101.552C17.1753 101.552 19.7252 101.552 22.275 101.552Z" fill="#FCFCFE"/>
<path fill-rule="evenodd" clip-rule="evenodd" d="M21.2319 105.03C23.5613 105.629 24.4885 107.136 24.0136 109.55C24.3616 111.578 23.7821 113.258 22.275 114.592C21.9454 114.759 21.5977 114.817 21.2319 114.765C20.4206 114.765 19.6093 114.765 18.798 114.765C18.798 111.52 18.798 108.275 18.798 105.03C19.6093 105.03 20.4206 105.03 21.2319 105.03Z" fill="#0E53C9"/>
<path fill-rule="evenodd" clip-rule="evenodd" d="M69.5633 101.552C67.9875 101.442 66.4805 101.558 65.0431 101.9C64.8543 101.879 64.7385 101.763 64.6954 101.552C66.3707 101.096 67.9934 101.096 69.5633 101.552Z" fill="#A3BFEB"/>
<path fill-rule="evenodd" clip-rule="evenodd" d="M17.0594 59.1321C17.2822 59.4736 17.514 59.8213 17.7548 60.1752C36.4142 60.581 55.0743 60.6387 73.7358 60.3491C74.0254 60.0594 74.3154 59.7695 74.6051 59.4798C74.7782 58.3265 74.8363 57.1676 74.7789 56.0027C76.1183 56.9068 77.393 56.7906 78.6037 55.655C80.1879 56.4224 81.9264 56.5382 83.8193 56.0027C83.7647 56.4801 83.8228 56.944 83.9932 57.3936C85.0255 57.01 85.0836 56.5466 84.167 56.0027C84.2828 55.887 84.399 55.7708 84.5147 55.655C85.2102 55.655 85.9056 55.655 86.601 55.655C86.9487 55.7708 87.1806 56.0027 87.2964 56.3504C85.9247 57.316 86.0405 57.5476 87.6441 57.0459C87.6441 56.6982 87.6441 56.3504 87.6441 56.0027C88.2088 55.9541 88.6142 56.186 88.8611 56.6982C88.9682 56.4172 89.142 56.1853 89.3827 56.0027C90.4046 55.9638 91.4477 56.0796 92.512 56.3504C92.9195 56.2048 93.2672 55.9732 93.5551 55.655C93.7902 56.0382 94.0218 56.3859 94.2506 56.6982C94.2506 68.4044 94.2506 80.1104 94.2506 91.8166C62.8411 91.8166 31.4312 91.8166 0.0217285 91.8166C0.0217285 79.9946 0.0217285 68.1725 0.0217285 56.3504C1.47581 56.3157 2.98257 56.1999 4.54193 56.0027C4.48744 56.4801 4.54541 56.944 4.71578 57.3936C4.95654 57.211 5.13039 56.9791 5.23735 56.6982C4.95028 56.3675 4.89235 56.0198 5.06349 55.655C5.77049 55.783 6.52383 55.783 7.32359 55.655C8.28017 55.8132 9.03355 56.2771 9.58369 57.0459C9.67034 56.655 9.8442 56.3073 10.1053 56.0027C11.1271 55.9638 12.1703 56.0796 13.2346 56.3504C13.6336 56.2399 13.9233 56.0083 14.1039 55.655C14.2198 56.0027 14.3357 56.3504 14.4516 56.6982C14.9479 55.9029 15.5853 55.7872 16.364 56.3504C16.5961 57.3261 16.8279 58.2531 17.0594 59.1321Z" fill="#2A86FC"/>
<path fill-rule="evenodd" clip-rule="evenodd" d="M17.7548 69.5633C27.6072 69.5052 37.4591 69.5633 47.31 69.7371C47.4838 69.911 47.6577 70.0848 47.8315 70.2587C48.0635 71.7653 48.0635 73.2723 47.8315 74.7789C47.5176 75.1965 47.1121 75.4865 46.6146 75.6482C37.1107 75.8801 27.6065 75.8801 18.1025 75.6482C17.2289 74.8151 16.8812 73.7719 17.0594 72.5188C16.9822 71.4242 17.2141 70.4392 17.7548 69.5633Z" fill="#FAFCFE"/>
<path fill-rule="evenodd" clip-rule="evenodd" d="M74.7789 56.0026C74.8363 57.1674 74.7782 58.3263 74.6051 59.4797C74.3154 59.7693 74.0254 60.0593 73.7358 60.349C55.0743 60.6386 36.4142 60.5809 17.7548 60.1751C17.514 59.8211 17.2822 59.4734 17.0594 59.132C17.0019 57.7363 17.0598 56.3454 17.2333 54.9595C17.4071 54.7856 17.581 54.6118 17.7548 54.4379C36.5321 54.1483 55.3083 54.206 74.0835 54.6118C74.4764 55.0019 74.7083 55.4657 74.7789 56.0026Z" fill="#F9FBFE"/>
<path fill-rule="evenodd" clip-rule="evenodd" d="M17.7548 38.9651C36.4156 38.9071 55.0757 38.9651 73.7358 39.139C74.6033 39.9106 74.951 40.8956 74.7789 42.0945C74.951 43.2934 74.6033 44.2785 73.7358 45.05C55.0754 45.2819 36.4153 45.2819 17.7548 45.05C17.581 44.8762 17.4071 44.7023 17.2333 44.5285C16.8666 42.5764 17.0405 40.7218 17.7548 38.9651Z" fill="#F9FBFE"/>
<rect x="9.73582" y="100.835" width="73.0187" height="21.9056" fill="#0451C8"/>
<path d="M21.8295 117H16.9908V103.909H21.8232C23.157 103.909 24.3054 104.171 25.2685 104.695C26.2358 105.215 26.9815 105.965 27.5057 106.945C28.0298 107.921 28.2919 109.089 28.2919 110.448C28.2919 111.812 28.0298 112.984 27.5057 113.964C26.9858 114.944 26.2422 115.696 25.2749 116.22C24.3075 116.74 23.1591 117 21.8295 117ZM20.1548 114.303H21.7081C22.4411 114.303 23.0611 114.179 23.5682 113.932C24.0795 113.68 24.4652 113.273 24.7251 112.711C24.9893 112.144 25.1214 111.39 25.1214 110.448C25.1214 109.506 24.9893 108.756 24.7251 108.198C24.4609 107.636 24.071 107.231 23.5554 106.984C23.044 106.732 22.4134 106.607 21.6634 106.607H20.1548V114.303ZM46.095 110.455C46.095 111.895 45.818 113.116 45.2641 114.117C44.7101 115.119 43.9601 115.879 43.0141 116.399C42.0723 116.919 41.0155 117.179 39.8436 117.179C38.6675 117.179 37.6085 116.917 36.6668 116.393C35.725 115.869 34.9771 115.108 34.4232 114.111C33.8734 113.109 33.5986 111.891 33.5986 110.455C33.5986 109.014 33.8734 107.793 34.4232 106.792C34.9771 105.79 35.725 105.03 36.6668 104.51C37.6085 103.99 38.6675 103.73 39.8436 103.73C41.0155 103.73 42.0723 103.99 43.0141 104.51C43.9601 105.03 44.7101 105.79 45.2641 106.792C45.818 107.793 46.095 109.014 46.095 110.455ZM42.8607 110.455C42.8607 109.602 42.7392 108.882 42.4963 108.294C42.2577 107.706 41.9125 107.261 41.4608 106.958C41.0134 106.656 40.4743 106.504 39.8436 106.504C39.2172 106.504 38.6781 106.656 38.2264 106.958C37.7747 107.261 37.4274 107.706 37.1845 108.294C36.9459 108.882 36.8266 109.602 36.8266 110.455C36.8266 111.307 36.9459 112.027 37.1845 112.615C37.4274 113.203 37.7747 113.648 38.2264 113.951C38.6781 114.254 39.2172 114.405 39.8436 114.405C40.4743 114.405 41.0134 114.254 41.4608 113.951C41.9125 113.648 42.2577 113.203 42.4963 112.615C42.7392 112.027 42.8607 111.307 42.8607 110.455ZM63.4251 108.652H60.2291C60.1865 108.324 60.0991 108.028 59.967 107.763C59.8349 107.499 59.6602 107.273 59.4429 107.086C59.2256 106.898 58.9678 106.756 58.6695 106.658C58.3754 106.555 58.0494 106.504 57.6915 106.504C57.0565 106.504 56.5089 106.66 56.0487 106.971C55.5928 107.282 55.2412 107.732 54.994 108.32C54.7511 108.908 54.6297 109.619 54.6297 110.455C54.6297 111.324 54.7533 112.053 55.0004 112.641C55.2518 113.224 55.6034 113.665 56.0551 113.964C56.5111 114.258 57.0501 114.405 57.6723 114.405C58.0217 114.405 58.3392 114.36 58.6247 114.271C58.9145 114.181 59.168 114.051 59.3854 113.881C59.607 113.706 59.7881 113.495 59.9287 113.248C60.0736 112.996 60.1737 112.713 60.2291 112.398L63.4251 112.417C63.3697 112.996 63.2014 113.567 62.9202 114.13C62.6432 114.692 62.2618 115.206 61.776 115.67C61.2902 116.131 60.6979 116.497 59.999 116.77C59.3044 117.043 58.5075 117.179 57.6084 117.179C56.4237 117.179 55.3626 116.919 54.4251 116.399C53.4919 115.875 52.7547 115.112 52.2135 114.111C51.6723 113.109 51.4017 111.891 51.4017 110.455C51.4017 109.014 51.6766 107.793 52.2263 106.792C52.776 105.79 53.5196 105.03 54.4571 104.51C55.3946 103.99 56.445 103.73 57.6084 103.73C58.401 103.73 59.1339 103.841 59.8072 104.062C60.4805 104.28 61.0729 104.599 61.5842 105.021C62.0956 105.439 62.5111 105.952 62.8307 106.562C63.1503 107.171 63.3484 107.868 63.4251 108.652ZM71.6865 103.909L74.0772 108.045H74.1794L76.5956 103.909H80.1368L76.1865 110.455L80.2647 117H76.634L74.1794 112.82H74.0772L71.6226 117H68.0175L72.0765 110.455L68.1198 103.909H71.6865Z" fill="white"/>
</svg>
