<?xml version="1.0" encoding="UTF-8"?>
<!DOCTYPE svg PUBLIC "-//W3C//DTD SVG 1.1//EN" "http://www.w3.org/Graphics/SVG/1.1/DTD/svg11.dtd">
<svg xmlns="http://www.w3.org/2000/svg" version="1.1" width="301px" height="392px" style="shape-rendering:geometricPrecision; text-rendering:geometricPrecision; image-rendering:optimizeQuality; fill-rule:evenodd; clip-rule:evenodd" xmlns:xlink="http://www.w3.org/1999/xlink">
<g><path style="opacity:1" fill="#fcfdfd" d="M -0.5,-0.5 C 99.8333,-0.5 200.167,-0.5 300.5,-0.5C 300.5,130.167 300.5,260.833 300.5,391.5C 292.5,391.5 284.5,391.5 276.5,391.5C 284.782,385.69 289.615,377.69 291,367.5C 291.17,305.459 291.67,243.459 292.5,181.5C 291.678,160.877 291.178,140.21 291,119.5C 289.962,115.532 288.462,111.865 286.5,108.5C 286.768,106.901 286.434,105.568 285.5,104.5C 255.167,73.5 224.5,42.8333 193.5,12.5C 140.166,12.3333 86.8323,12.5 33.5,13C 27.5349,14.6489 22.5349,17.8155 18.5,22.5C 15.045,23.9908 12.2117,26.3241 10,29.5C 8.51985,33.6151 6.85318,37.6151 5,41.5C 4.74354,44.557 4.24354,47.557 3.5,50.5C 4.47091,51.9621 4.13758,53.2954 2.5,54.5C 3.81319,155.676 3.81319,257.009 2.5,358.5C 4.60436,360.583 4.93769,362.917 3.5,365.5C 5.16798,374.861 9.16798,383.528 15.5,391.5C 10.1667,391.5 4.83333,391.5 -0.5,391.5C -0.5,260.833 -0.5,130.167 -0.5,-0.5 Z"/></g>
<g><path style="opacity:1" fill="#97c8fe" d="M 193.5,12.5 C 224.5,42.8333 255.167,73.5 285.5,104.5C 261.498,104.667 237.498,104.5 213.5,104C 202.706,100.259 196.206,92.7586 194,81.5C 193.5,58.5024 193.333,35.5024 193.5,12.5 Z"/></g>
<g><path style="opacity:1" fill="#f6f8fa" d="M 18.5,22.5 C 17.2271,24.7128 16.2271,27.0462 15.5,29.5C 12.2849,34.625 10.1182,40.2916 9,46.5C 7.85636,58.3053 7.68969,69.9719 8.5,81.5C 7.99509,86.0716 7.32842,90.5716 6.5,95C 7.56082,96.8491 8.22749,98.8491 8.5,101C 8.2676,128.217 8.2676,155.05 8.5,181.5C 8.33333,183.833 8.16667,186.167 8,188.5C 7.5,189 7,189.5 6.5,190C 7.13322,199.112 7.79988,208.445 8.5,218C 8.18877,249.047 8.18877,279.88 8.5,310.5C 7.99509,315.072 7.32842,319.572 6.5,324C 7.56082,325.849 8.22749,327.849 8.5,330C 5.93402,347.982 7.60068,365.482 13.5,382.5C 16.3067,385.867 19.3067,388.867 22.5,391.5C 20.1667,391.5 17.8333,391.5 15.5,391.5C 9.16798,383.528 5.16798,374.861 3.5,365.5C 4.93769,362.917 4.60436,360.583 2.5,358.5C 3.81319,257.009 3.81319,155.676 2.5,54.5C 4.13758,53.2954 4.47091,51.9621 3.5,50.5C 4.24354,47.557 4.74354,44.557 5,41.5C 6.85318,37.6151 8.51985,33.6151 10,29.5C 12.2117,26.3241 15.045,23.9908 18.5,22.5 Z"/></g>
<g><path style="opacity:1" fill="#eff2f6" d="M 15.5,29.5 C 14.962,31.1172 14.6287,32.7839 14.5,34.5C 13.3341,145.666 13.1674,256.999 14,368.5C 18.804,381.477 27.9707,389.144 41.5,391.5C 35.1667,391.5 28.8333,391.5 22.5,391.5C 19.3067,388.867 16.3067,385.867 13.5,382.5C 7.60068,365.482 5.93402,347.982 8.5,330C 8.22749,327.849 7.56082,325.849 6.5,324C 7.32842,319.572 7.99509,315.072 8.5,310.5C 8.18877,279.88 8.18877,249.047 8.5,218C 7.79988,208.445 7.13322,199.112 6.5,190C 7,189.5 7.5,189 8,188.5C 8.16667,186.167 8.33333,183.833 8.5,181.5C 8.2676,155.05 8.2676,128.217 8.5,101C 8.22749,98.8491 7.56082,96.8491 6.5,95C 7.32842,90.5716 7.99509,86.0716 8.5,81.5C 7.68969,69.9719 7.85636,58.3053 9,46.5C 10.1182,40.2916 12.2849,34.625 15.5,29.5 Z"/></g>
<g><path style="opacity:1" fill="#2e89fe" d="M 193.5,12.5 C 193.333,35.5024 193.5,58.5024 194,81.5C 196.206,92.7586 202.706,100.259 213.5,104C 237.498,104.5 261.498,104.667 285.5,104.5C 285.5,128.167 285.5,151.833 285.5,175.5C 284.842,174.602 284.176,173.602 283.5,172.5C 282.672,173.415 281.672,174.081 280.5,174.5C 277.439,173.721 274.439,173.388 271.5,173.5C 270.808,174.025 270.308,174.692 270,175.5C 269.29,174.027 268.124,173.36 266.5,173.5C 266.5,174.5 266.5,175.5 266.5,176.5C 261.888,177.943 261.555,177.277 265.5,174.5C 265.167,173.5 264.5,172.833 263.5,172.5C 261.5,172.5 259.5,172.5 257.5,172.5C 257.167,172.833 256.833,173.167 256.5,173.5C 259.136,175.064 258.969,176.397 256,177.5C 255.51,176.207 255.343,174.873 255.5,173.5C 250.056,175.04 245.056,174.707 240.5,172.5C 237.018,175.766 233.352,176.1 229.5,173.5C 229.297,171.956 228.63,170.622 227.5,169.5C 173.503,168.333 119.503,168.167 65.5,169C 65,169.5 64.5,170 64,170.5C 63.5012,174.486 63.3345,178.486 63.5,182.5C 62.8343,179.972 62.1676,177.306 61.5,174.5C 59.2606,172.88 57.4272,173.213 56,175.5C 55.6667,174.5 55.3333,173.5 55,172.5C 54.4806,173.516 53.6473,174.182 52.5,174.5C 49.4389,173.721 46.4389,173.388 43.5,173.5C 42.7492,174.376 42.2492,175.376 42,176.5C 40.4178,174.289 38.2511,172.955 35.5,172.5C 33.1999,172.868 31.0333,172.868 29,172.5C 28.5078,173.549 28.6744,174.549 29.5,175.5C 29.1924,176.308 28.6924,176.975 28,177.5C 27.51,176.207 27.3433,174.873 27.5,173.5C 23.0153,174.067 18.6819,174.4 14.5,174.5C 14.5,127.833 14.5,81.1667 14.5,34.5C 14.6287,32.7839 14.962,31.1172 15.5,29.5C 16.2271,27.0462 17.2271,24.7128 18.5,22.5C 22.5349,17.8155 27.5349,14.6489 33.5,13C 86.8323,12.5 140.166,12.3333 193.5,12.5 Z"/></g>
<g><path style="opacity:1" fill="#eef2f6" d="M 286.5,108.5 C 288.462,111.865 289.962,115.532 291,119.5C 291.178,140.21 291.678,160.877 292.5,181.5C 291.67,243.459 291.17,305.459 291,367.5C 289.615,377.69 284.782,385.69 276.5,391.5C 270.5,391.5 264.5,391.5 258.5,391.5C 274.177,388.655 283.344,379.322 286,363.5C 286.5,278.501 286.667,193.501 286.5,108.5 Z"/></g>
<g><path style="opacity:1" fill="#ccdbf1" d="M 14.5,34.5 C 14.5,81.1667 14.5,127.833 14.5,174.5C 14.5,208.5 14.5,242.5 14.5,276.5C 14.3334,304.502 14.5,332.502 15,360.5C 16.0428,364.915 17.8762,368.915 20.5,372.5C 24.4773,380.856 31.144,385.69 40.5,387C 113.5,387.667 186.5,387.667 259.5,387C 269.161,386.157 275.827,381.324 279.5,372.5C 281.847,369.139 283.681,365.472 285,361.5C 285.5,333.169 285.667,304.835 285.5,276.5C 285.5,242.833 285.5,209.167 285.5,175.5C 285.5,151.833 285.5,128.167 285.5,104.5C 286.434,105.568 286.768,106.901 286.5,108.5C 286.667,193.501 286.5,278.501 286,363.5C 283.344,379.322 274.177,388.655 258.5,391.5C 186.167,391.5 113.833,391.5 41.5,391.5C 27.9707,389.144 18.804,381.477 14,368.5C 13.1674,256.999 13.3341,145.666 14.5,34.5 Z"/></g>
<g><path style="opacity:1" fill="#0451c8" d="M 14.5,276.5 C 104.833,276.5 195.167,276.5 285.5,276.5C 285.667,304.835 285.5,333.169 285,361.5C 283.681,365.472 281.847,369.139 279.5,372.5C 276.795,374.512 274.128,376.512 271.5,378.5C 269.073,378.523 266.74,379.023 264.5,380C 187.834,380.5 111.167,380.667 34.5,380.5C 29.257,378.877 24.5904,376.211 20.5,372.5C 17.8762,368.915 16.0428,364.915 15,360.5C 14.5,332.502 14.3334,304.502 14.5,276.5 Z"/></g>
<g><path style="opacity:1" fill="#f4f7fc" d="M 201.5,305.5 C 205.634,304.515 209.968,304.182 214.5,304.5C 216.53,309.071 219.03,313.404 222,317.5C 224.268,313.058 226.768,308.724 229.5,304.5C 233.833,303.167 238.167,303.167 242.5,304.5C 237.391,311.717 233.057,319.384 229.5,327.5C 233.897,335.958 238.563,344.291 243.5,352.5C 239.205,353.661 234.871,353.828 230.5,353C 227.459,347.75 224.292,342.583 221,337.5C 217.708,342.583 214.541,347.75 211.5,353C 207.514,353.499 203.514,353.666 199.5,353.5C 204.139,344.893 208.806,336.227 213.5,327.5C 210.013,319.856 206.013,312.523 201.5,305.5 Z"/></g>
<g><path style="opacity:1" fill="#f7f9fd" d="M 167.5,303.5 C 172.844,303.334 178.177,303.501 183.5,304C 192.721,307.273 196.721,313.773 195.5,323.5C 191.5,323.5 187.5,323.5 183.5,323.5C 184.228,315.395 180.562,311.895 172.5,313C 167.087,316.271 165.087,321.105 166.5,327.5C 165.479,333.887 167.146,339.387 171.5,344C 179.963,345.707 183.963,342.207 183.5,333.5C 187.5,333.5 191.5,333.5 195.5,333.5C 196.239,343.552 191.906,350.052 182.5,353C 168.503,356.922 159.336,352.088 155,338.5C 154.333,331.833 154.333,325.167 155,318.5C 155.759,315.215 157.092,312.215 159,309.5C 161.736,307.248 164.569,305.248 167.5,303.5 Z"/></g>
<g><path style="opacity:1" fill="#f7f9fd" d="M 116.5,303.5 C 129.883,300.44 139.717,304.773 146,316.5C 147.962,324.486 147.962,332.486 146,340.5C 143.082,348.716 137.249,353.216 128.5,354C 116.797,355.899 108.631,351.399 104,340.5C 102.485,333.233 102.152,325.899 103,318.5C 105.263,311.407 109.763,306.407 116.5,303.5 Z"/></g>
<g><path style="opacity:1" fill="#789fe0" d="M 134.5,321.5 C 135.651,326.65 135.817,331.984 135,337.5C 134.617,338.056 134.117,338.389 133.5,338.5C 134.407,332.894 134.74,327.227 134.5,321.5 Z"/></g>
<g><path style="opacity:1" fill="#1354c9" d="M 134.5,321.5 C 134.74,327.227 134.407,332.894 133.5,338.5C 130.899,344.062 126.566,345.896 120.5,344C 116.148,339.618 114.148,334.285 114.5,328C 114.046,315.087 119.713,310.754 131.5,315C 133.451,316.734 134.451,318.901 134.5,321.5 Z"/></g>
<g><path style="opacity:1" fill="#fcfcfe" d="M 78.5,304.5 C 90.8233,307.256 96.49,315.09 95.5,328C 96.0894,336.819 93.0894,344.152 86.5,350C 84.3496,351.411 82.0163,352.245 79.5,352.5C 71.8333,352.5 64.1667,352.5 56.5,352.5C 56.5,336.5 56.5,320.5 56.5,304.5C 63.8333,304.5 71.1667,304.5 78.5,304.5 Z"/></g>
<g><path style="opacity:1" fill="#0e53c9" d="M 75.5,314.5 C 82.1993,316.224 84.8659,320.557 83.5,327.5C 84.501,333.333 82.8343,338.166 78.5,342C 77.552,342.483 76.552,342.649 75.5,342.5C 73.1667,342.5 70.8333,342.5 68.5,342.5C 68.5,333.167 68.5,323.833 68.5,314.5C 70.8333,314.5 73.1667,314.5 75.5,314.5 Z"/></g>
<g><path style="opacity:1" fill="#6b98de" d="M 75.5,314.5 C 73.1667,314.5 70.8333,314.5 68.5,314.5C 68.5,323.833 68.5,333.167 68.5,342.5C 70.8333,342.5 73.1667,342.5 75.5,342.5C 73.0521,343.473 70.3854,343.806 67.5,343.5C 67.5,333.5 67.5,323.5 67.5,313.5C 70.3854,313.194 73.0521,313.527 75.5,314.5 Z"/></g>
<g><path style="opacity:1" fill="#80a5e2" d="M 78.5,304.5 C 71.1667,304.5 63.8333,304.5 56.5,304.5C 56.5,320.5 56.5,336.5 56.5,352.5C 64.1667,352.5 71.8333,352.5 79.5,352.5C 71.6841,353.492 63.6841,353.826 55.5,353.5C 55.5,336.833 55.5,320.167 55.5,303.5C 63.3516,303.175 71.0182,303.508 78.5,304.5 Z"/></g>
<g><path style="opacity:1" fill="#a3bfeb" d="M 214.5,304.5 C 209.968,304.182 205.634,304.515 201.5,305.5C 200.957,305.44 200.624,305.107 200.5,304.5C 205.318,303.188 209.985,303.188 214.5,304.5 Z"/></g>
<g><path style="opacity:1" fill="#2a86fc" d="M 63.5,182.5 C 64.1408,183.482 64.8075,184.482 65.5,185.5C 119.164,186.667 172.83,186.833 226.5,186C 227.333,185.167 228.167,184.333 229,183.5C 229.498,180.183 229.665,176.85 229.5,173.5C 233.352,176.1 237.018,175.766 240.5,172.5C 245.056,174.707 250.056,175.04 255.5,173.5C 255.343,174.873 255.51,176.207 256,177.5C 258.969,176.397 259.136,175.064 256.5,173.5C 256.833,173.167 257.167,172.833 257.5,172.5C 259.5,172.5 261.5,172.5 263.5,172.5C 264.5,172.833 265.167,173.5 265.5,174.5C 261.555,177.277 261.888,177.943 266.5,176.5C 266.5,175.5 266.5,174.5 266.5,173.5C 268.124,173.36 269.29,174.027 270,175.5C 270.308,174.692 270.808,174.025 271.5,173.5C 274.439,173.388 277.439,173.721 280.5,174.5C 281.672,174.081 282.672,173.415 283.5,172.5C 284.176,173.602 284.842,174.602 285.5,175.5C 285.5,209.167 285.5,242.833 285.5,276.5C 195.167,276.5 104.833,276.5 14.5,276.5C 14.5,242.5 14.5,208.5 14.5,174.5C 18.6819,174.4 23.0153,174.067 27.5,173.5C 27.3433,174.873 27.51,176.207 28,177.5C 28.6924,176.975 29.1924,176.308 29.5,175.5C 28.6744,174.549 28.5078,173.549 29,172.5C 31.0333,172.868 33.1999,172.868 35.5,172.5C 38.2511,172.955 40.4178,174.289 42,176.5C 42.2492,175.376 42.7492,174.376 43.5,173.5C 46.4389,173.388 49.4389,173.721 52.5,174.5C 53.6473,174.182 54.4806,173.516 55,172.5C 55.3333,173.5 55.6667,174.5 56,175.5C 57.4272,173.213 59.2606,172.88 61.5,174.5C 62.1676,177.306 62.8343,179.972 63.5,182.5 Z"/></g>
<g><path style="opacity:1" fill="#fafcfe" d="M 65.5,212.5 C 93.8353,212.333 122.169,212.5 150.5,213C 151,213.5 151.5,214 152,214.5C 152.667,218.833 152.667,223.167 152,227.5C 151.097,228.701 149.931,229.535 148.5,230C 121.167,230.667 93.8333,230.667 66.5,230C 63.9874,227.604 62.9874,224.604 63.5,221C 63.2781,217.852 63.9448,215.019 65.5,212.5 Z"/></g>
<g><path style="opacity:1" fill="#f9fbfe" d="M 229.5,173.5 C 229.665,176.85 229.498,180.183 229,183.5C 228.167,184.333 227.333,185.167 226.5,186C 172.83,186.833 119.164,186.667 65.5,185.5C 64.8075,184.482 64.1408,183.482 63.5,182.5C 63.3345,178.486 63.5012,174.486 64,170.5C 64.5,170 65,169.5 65.5,169C 119.503,168.167 173.503,168.333 227.5,169.5C 228.63,170.622 229.297,171.956 229.5,173.5 Z"/></g>
<g><path style="opacity:1" fill="#f9fbfe" d="M 65.5,124.5 C 119.168,124.333 172.834,124.5 226.5,125C 228.995,127.219 229.995,130.052 229.5,133.5C 229.995,136.948 228.995,139.781 226.5,142C 172.833,142.667 119.167,142.667 65.5,142C 65,141.5 64.5,141 64,140.5C 62.9456,134.886 63.4456,129.552 65.5,124.5 Z"/></g>
<g><path style="opacity:1" fill="#d9e2ec" d="M 20.5,372.5 C 24.5904,376.211 29.257,378.877 34.5,380.5C 111.332,381.666 188.332,381.832 265.5,381C 267.723,380.434 269.723,379.6 271.5,378.5C 274.128,376.512 276.795,374.512 279.5,372.5C 275.827,381.324 269.161,386.157 259.5,387C 186.5,387.667 113.5,387.667 40.5,387C 31.144,385.69 24.4773,380.856 20.5,372.5 Z"/></g>
<g><path style="opacity:1" fill="#a7c0e2" d="M 271.5,378.5 C 269.723,379.6 267.723,380.434 265.5,381C 188.332,381.832 111.332,381.666 34.5,380.5C 111.167,380.667 187.834,380.5 264.5,380C 266.74,379.023 269.073,378.523 271.5,378.5 Z"/></g>
</svg>
