<svg width="49" height="55" viewBox="0 0 49 55" fill="none" xmlns="http://www.w3.org/2000/svg">
<path fill-rule="evenodd" clip-rule="evenodd" d="M32.1876 2.12734C35.1441 5.03765 38.0885 7.96661 41.0207 10.9142C41.0669 18.1594 41.0824 25.4047 41.0669 32.65C40.953 32.7627 40.8451 32.886 40.7432 33.02C40.7124 32.9892 40.6815 32.9583 40.6507 32.9275C40.5678 33.1717 40.4291 33.3721 40.2345 33.5287C40.2653 33.5595 40.2962 33.5904 40.327 33.6212C40.2118 33.6944 40.0885 33.7406 39.957 33.76C39.8953 33.76 39.8337 33.76 39.772 33.76C39.9223 33.5051 39.8915 33.2739 39.6795 33.0663C40.0241 32.9698 39.9933 32.9235 39.587 32.9275C39.5672 32.7755 39.5981 32.6367 39.6795 32.5113C39.5651 32.4898 39.4726 32.4436 39.402 32.3726C39.4945 32.3726 39.587 32.3726 39.6795 32.3726C39.7103 25.5741 39.6794 18.7913 39.587 12.0241C36.473 12.0395 33.359 12.0241 30.2452 11.9779C29.7513 11.8474 29.3968 11.5545 29.1816 11.0992C29.1353 7.8929 29.1199 4.68647 29.1353 1.47989C19.886 1.47989 10.6367 1.47989 1.3874 1.47989C1.37198 17.8204 1.3874 34.1608 1.43364 50.5012C1.49916 50.5827 1.57623 50.6443 1.66488 50.6862C10.9911 50.7786 20.3329 50.8095 29.6903 50.7787C29.9405 50.7543 30.187 50.7235 30.4302 50.6862C30.4302 50.7787 30.4302 50.8712 30.4302 50.9637C30.3032 50.9491 30.1798 50.9646 30.0602 51.0099C30.0495 51.1272 30.0187 51.2506 29.9677 51.3799C30.0797 51.5586 30.2646 51.7281 30.5227 51.8886C20.7776 51.9508 11.0351 52.0125 1.2949 52.0736C0.580146 51.9292 0.163928 51.4975 0.0462488 50.7787C-0.0154163 34.1916 -0.0154163 17.6045 0.0462488 1.01743C0.176257 0.54819 0.469155 0.224464 0.924933 0.0462488C10.6367 -0.0154163 20.3485 -0.0154163 30.0602 0.0462488C30.7622 0.763736 31.4712 1.45743 32.1876 2.12734Z" fill="#FFA02B"/>
<path fill-rule="evenodd" clip-rule="evenodd" d="M38.5695 10.4517C38.6425 10.4778 38.7042 10.5241 38.7545 10.5904C36.0565 10.6672 33.3742 10.6518 30.7076 10.5442C33.3442 10.5748 35.9648 10.544 38.5695 10.4517Z" fill="#FFA02B"/>
<path fill-rule="evenodd" clip-rule="evenodd" d="M38.5696 10.4517C35.9648 10.544 33.3442 10.5748 30.7077 10.5442C30.6409 10.5055 30.5947 10.4439 30.569 10.3592C30.5073 7.70769 30.5073 5.05626 30.569 2.40479C33.2545 5.07487 35.9214 7.75717 38.5696 10.4517Z" fill="#323745"/>
<path fill-rule="evenodd" clip-rule="evenodd" d="M39.5869 12.0239C39.6793 18.7912 39.7102 25.574 39.6794 32.3724C39.5869 32.3724 39.4944 32.3724 39.4019 32.3724C39.3402 32.3724 39.3094 32.3416 39.3094 32.2799C39.4019 32.2799 39.4944 32.2799 39.5869 32.2799C39.5869 28.4877 39.5869 24.6955 39.5869 20.9033C39.5869 17.9435 39.5869 14.9837 39.5869 12.0239Z" fill="#FFA02B"/>
<path fill-rule="evenodd" clip-rule="evenodd" d="M39.3094 32.2802C39.3094 32.3419 39.3402 32.3727 39.4019 32.3727C39.4725 32.4437 39.565 32.49 39.6794 32.5114C39.598 32.6368 39.5671 32.7756 39.5869 32.9276C39.9932 32.9237 40.024 32.9699 39.6794 33.0664C39.8914 33.274 39.9222 33.5053 39.7719 33.7601C35.3952 33.1354 32.0192 34.677 29.6439 38.3847C27.6619 42.2589 27.9394 45.9586 30.4764 49.4839C33.9586 53.3174 38.0437 54.1035 42.7317 51.8425C45.4952 50.1556 47.1138 47.7045 47.5876 44.4893C47.8681 39.8347 45.9412 36.4587 41.8067 34.3613C41.1814 34.1476 40.5648 33.9472 39.9569 33.7601C40.0884 33.7407 40.2117 33.6945 40.3269 33.6213C40.2961 33.5905 40.2652 33.5596 40.2344 33.5288C40.429 33.3722 40.5677 33.1718 40.6506 32.9276C40.6814 32.9584 40.7123 32.9893 40.7431 33.0201C40.845 32.8861 40.9529 32.7628 41.0668 32.6502C41.0976 32.6502 41.1285 32.6502 41.1593 32.6502C45.7119 34.2584 48.3171 37.4649 48.975 42.2694C49.2269 46.6519 47.5775 50.1204 44.0266 52.6749C39.6676 55.2156 35.4129 55.0615 31.2625 52.2124C21.2578 52.197 11.2686 52.1507 1.2948 52.0737C11.035 52.0126 20.7775 51.951 30.5226 51.8887C30.2645 51.7282 30.0796 51.5587 29.9676 51.38C30.0186 51.2507 30.0494 51.1273 30.0601 51.01C30.1797 50.9647 30.3031 50.9493 30.4301 50.9638C30.4301 50.8713 30.4301 50.7788 30.4301 50.6863C30.1869 50.7237 29.9404 50.7545 29.6902 50.7788C29.7061 50.687 29.6752 50.6254 29.5977 50.5938C26.7952 46.9839 26.2248 43.0375 27.8865 38.7547C30.2609 34.0907 34.0686 31.9326 39.3094 32.2802Z" fill="#FFA02B"/>
<path fill-rule="evenodd" clip-rule="evenodd" d="M39.7719 33.76C39.8336 33.76 39.8952 33.76 39.9569 33.76C40.5648 33.9471 41.1814 34.1475 41.8068 34.3612C45.9412 36.4587 47.8681 39.8347 47.5876 44.4892C47.1138 47.7044 45.4952 50.1555 42.7317 51.8424C38.0437 54.1035 33.9586 53.3173 30.4764 49.4838C27.9394 45.9585 27.6619 42.2588 29.6439 38.3846C32.0193 34.6769 35.3952 33.1353 39.7719 33.76Z" fill="#323745"/>
<path fill-rule="evenodd" clip-rule="evenodd" d="M33.6674 37.9223C33.8549 37.9073 34.0399 37.9227 34.2224 37.9685C35.4723 39.2339 36.7364 40.4826 38.0146 41.7145C39.2927 40.4826 40.5568 39.2339 41.8068 37.9685C41.9918 37.9068 42.1768 37.9068 42.3618 37.9685C42.6855 38.2923 43.0092 38.616 43.3329 38.9397C43.406 39.2296 43.3752 39.5071 43.2404 39.7721C42.0226 40.99 40.8048 42.2078 39.587 43.4256C40.8406 44.6793 42.0893 45.9279 43.3329 47.1716C43.3946 47.3874 43.3946 47.6033 43.3329 47.819C43.0092 48.1428 42.6855 48.4665 42.3618 48.7902C42.1025 48.86 41.8558 48.8292 41.6218 48.6977C40.4002 47.4915 39.1978 46.2737 38.0146 45.0442C36.7672 46.2454 35.534 47.4632 34.3149 48.6977C34.1118 48.8247 33.896 48.8555 33.6674 48.7902C33.1595 48.4681 32.7896 48.0364 32.5575 47.4953C32.5691 47.3448 32.6153 47.2061 32.6962 47.0791C33.9307 45.8599 35.1486 44.6267 36.3497 43.3794C35.2411 42.2245 34.1158 41.0838 32.9737 39.9571C32.6283 39.6722 32.5358 39.333 32.6962 38.9397C33.0414 38.6102 33.3651 38.2711 33.6674 37.9223Z" fill="#FFA02B"/>
<path fill-rule="evenodd" clip-rule="evenodd" d="M29.5978 50.5938C29.6753 50.6254 29.7062 50.687 29.6903 50.7787C20.333 50.8095 10.9912 50.7786 1.66492 50.6862C8.60189 50.6862 15.5389 50.6862 22.4758 50.6862C24.8658 50.7169 27.2397 50.6861 29.5978 50.5938Z" fill="#FFA02B"/>
</svg>
