<?xml version="1.0" encoding="UTF-8"?>
<!DOCTYPE svg PUBLIC "-//W3C//DTD SVG 1.1//EN" "http://www.w3.org/Graphics/SVG/1.1/DTD/svg11.dtd">
<svg xmlns="http://www.w3.org/2000/svg" version="1.1" width="490px" height="426px" style="shape-rendering:geometricPrecision; text-rendering:geometricPrecision; image-rendering:optimizeQuality; fill-rule:evenodd; clip-rule:evenodd" xmlns:xlink="http://www.w3.org/1999/xlink">
<g><path style="opacity:1" fill="#f6f6f6" d="M -0.5,-0.5 C 162.833,-0.5 326.167,-0.5 489.5,-0.5C 489.5,141.5 489.5,283.5 489.5,425.5C 326.167,425.5 162.833,425.5 -0.5,425.5C -0.5,283.5 -0.5,141.5 -0.5,-0.5 Z"/></g>
<g><path style="opacity:1" fill="#2d3842" d="M 375.5,409.5 C 287.721,409.491 199.721,409.491 111.5,409.5C 101.199,406.697 94.6989,400.031 92,389.5C 91.5003,381.841 91.3336,374.174 91.5,366.5C 79.3198,368.59 69.4864,364.924 62,355.5C 60.2752,352.326 58.9419,348.993 58,345.5C 57.3333,323.5 57.3333,301.5 58,279.5C 63.7361,263.96 74.9027,257.294 91.5,259.5C 91.3333,189.833 91.5,120.166 92,50.5C 94.437,39.0645 101.27,31.8978 112.5,29C 180.5,28.3333 248.5,28.3333 316.5,29C 341.305,54.8054 366.472,80.3054 392,105.5C 392.667,200.5 392.667,295.5 392,390.5C 389.872,399.793 384.372,406.126 375.5,409.5 Z"/></g>
<g><path style="opacity:1" fill="#9d9fa1" d="M 115.5,40.5 C 178.998,39.5009 242.664,39.1675 306.5,39.5C 306.5,57.8333 306.5,76.1667 306.5,94.5C 305.503,76.6744 305.17,58.6744 305.5,40.5C 242.167,40.5 178.833,40.5 115.5,40.5 Z"/></g>
<g><path style="opacity:1" fill="#f5f5f6" d="M 115.5,40.5 C 178.833,40.5 242.167,40.5 305.5,40.5C 305.17,58.6744 305.503,76.6744 306.5,94.5C 309.252,104.42 315.586,110.92 325.5,114C 344.164,114.5 362.83,114.667 381.5,114.5C 381.667,205.501 381.5,296.501 381,387.5C 380.004,393.159 376.838,396.993 371.5,399C 285.5,399.667 199.5,399.667 113.5,399C 109,397.167 105.833,394 104,389.5C 103.5,381.841 103.334,374.174 103.5,366.5C 130.835,366.667 158.169,366.5 185.5,366C 196.141,364.025 202.974,357.858 206,347.5C 206.667,324.5 206.667,301.5 206,278.5C 203.101,268.603 196.601,262.436 186.5,260C 158.835,259.5 131.169,259.333 103.5,259.5C 103.333,189.833 103.5,120.166 104,50.5C 106.18,45.1466 110.013,41.8133 115.5,40.5 Z"/></g>
<g><path style="opacity:1" fill="#f3f3f3" d="M 317.5,47.5 C 335.965,65.4649 354.299,83.6316 372.5,102C 357.167,102.667 341.833,102.667 326.5,102C 321.901,100.402 319.068,97.2353 318,92.5C 317.5,77.5037 317.333,62.5037 317.5,47.5 Z"/></g>
<g><path style="opacity:1" fill="#2a3640" d="M 149.5,141.5 C 191.835,141.333 234.168,141.5 276.5,142C 280.501,144.107 281.501,147.273 279.5,151.5C 278.975,152.192 278.308,152.692 277.5,153C 234.833,153.667 192.167,153.667 149.5,153C 145.542,149.215 145.542,145.382 149.5,141.5 Z"/></g>
<g><path style="opacity:1" fill="#2b3640" d="M 148.5,174.5 C 211.501,174.333 274.501,174.5 337.5,175C 340.425,178.696 340.092,182.029 336.5,185C 274.167,185.667 211.833,185.667 149.5,185C 145.945,181.828 145.611,178.328 148.5,174.5 Z"/></g>
<g><path style="opacity:1" fill="#35404a" d="M 149.5,205.5 C 211.501,205.333 273.501,205.5 335.5,206C 340.818,209.951 340.818,213.951 335.5,218C 273.5,218.667 211.5,218.667 149.5,218C 145.547,213.835 145.547,209.669 149.5,205.5 Z"/></g>
<g><path style="opacity:1" fill="#2f3943" d="M 304.5,259.5 C 328.109,259.275 339.276,270.942 338,294.5C 336.112,299.945 333.445,304.945 330,309.5C 312.805,327.029 295.305,344.196 277.5,361C 266.679,367.896 255.679,368.229 244.5,362C 232.959,352.699 229.459,340.866 234,326.5C 235.667,323.833 237.333,321.167 239,318.5C 256.167,301.333 273.333,284.167 290.5,267C 294.815,263.678 299.482,261.178 304.5,259.5 Z"/></g>
<g><path style="opacity:1" fill="#f3f3f4" d="M 308.5,270.5 C 319.561,270.895 325.895,276.562 327.5,287.5C 326.881,291.86 325.381,295.86 323,299.5C 305.5,317 288,334.5 270.5,352C 258.894,357.798 250.061,354.965 244,343.5C 242.676,337.657 243.676,332.324 247,327.5C 264.833,309.667 282.667,291.833 300.5,274C 303.158,272.522 305.825,271.355 308.5,270.5 Z"/></g>
<g><path style="opacity:1" fill="#f5f5f5" d="M 77.5,271.5 C 114.168,271.333 150.835,271.5 187.5,272C 191.058,273.892 193.558,276.725 195,280.5C 195.667,302.167 195.667,323.833 195,345.5C 193.073,350.428 189.573,353.594 184.5,355C 149.5,355.667 114.5,355.667 79.5,355C 75.3882,353.221 72.2215,350.388 70,346.5C 69.3333,324.167 69.3333,301.833 70,279.5C 72.0282,276.308 74.5282,273.641 77.5,271.5 Z"/></g>
<g><path style="opacity:1" fill="#2b3640" d="M 142.5,286.5 C 151.915,286.083 161.248,286.583 170.5,288C 179.426,293.102 182.259,300.602 179,310.5C 176.96,315.876 173.127,319.043 167.5,320C 162.177,320.499 156.844,320.666 151.5,320.5C 151.666,326.842 151.5,333.175 151,339.5C 147.667,342.167 144.333,342.167 141,339.5C 140.333,322.5 140.333,305.5 141,288.5C 141.717,287.956 142.217,287.289 142.5,286.5 Z"/></g>
<g><path style="opacity:1" fill="#f4f4f4" d="M 151.5,295.5 C 156.511,295.334 161.511,295.501 166.5,296C 169.829,300.137 170.329,304.637 168,309.5C 167.25,310.126 166.416,310.626 165.5,311C 160.845,311.499 156.179,311.666 151.5,311.5C 151.5,306.167 151.5,300.833 151.5,295.5 Z"/></g>
<g><path style="opacity:1" fill="#2c3740" d="M 299.5,293.5 C 306.503,292.673 309.003,295.673 307,302.5C 293.833,315.667 280.667,328.833 267.5,342C 260.691,344.196 257.857,341.696 259,334.5C 272.702,320.965 286.202,307.299 299.5,293.5 Z"/></g>
<g><path style="opacity:1" fill="#2e3942" d="M 104.5,286.5 C 116.674,284.697 125.341,289.197 130.5,300C 128.021,302.057 125.188,303.557 122,304.5C 114.964,293.635 107.298,292.968 99,302.5C 95.4981,310.984 95.8314,319.317 100,327.5C 106.699,334.09 113.366,334.09 120,327.5C 120.483,326.552 120.649,325.552 120.5,324.5C 130.978,323.474 133.145,327.14 127,335.5C 124.592,337.956 121.759,339.789 118.5,341C 97.5742,344.2 86.9075,335.2 86.5,314C 85.6693,300.12 91.6693,290.953 104.5,286.5 Z"/></g>
<g><path style="opacity:1" fill="#25303e" d="M 375.5,409.5 C 373.821,409.892 372.154,410.392 370.5,411C 285.167,411.667 199.833,411.667 114.5,411C 113.263,410.768 112.263,410.268 111.5,409.5C 199.721,409.491 287.721,409.491 375.5,409.5 Z"/></g>
</svg>
