<?xml version="1.0" encoding="UTF-8"?>
<!DOCTYPE svg PUBLIC "-//W3C//DTD SVG 1.1//EN" "http://www.w3.org/Graphics/SVG/1.1/DTD/svg11.dtd">
<svg xmlns="http://www.w3.org/2000/svg" version="1.1" width="424px" height="401px" style="shape-rendering:geometricPrecision; text-rendering:geometricPrecision; image-rendering:optimizeQuality; fill-rule:evenodd; clip-rule:evenodd" xmlns:xlink="http://www.w3.org/1999/xlink">
<g><path style="opacity:1" fill="#f6f6f6" d="M -0.5,-0.5 C 140.833,-0.5 282.167,-0.5 423.5,-0.5C 423.5,133.167 423.5,266.833 423.5,400.5C 282.167,400.5 140.833,400.5 -0.5,400.5C -0.5,266.833 -0.5,133.167 -0.5,-0.5 Z"/></g>
<g><path style="opacity:1" fill="#26313b" d="M 259.5,16.5 C 195.5,17.8333 131.5,17.8333 67.5,16.5C 131.64,15.1758 195.64,15.1758 259.5,16.5 Z"/></g>
<g><path style="opacity:1" fill="#2e3943" d="M 67.5,16.5 C 131.5,17.8333 195.5,17.8333 259.5,16.5C 285.344,42.2191 311.177,67.8858 337,93.5C 337.5,145.832 337.667,198.166 337.5,250.5C 350.219,250.102 362.886,250.602 375.5,252C 383.713,255.917 388.38,262.417 389.5,271.5C 388.813,293.687 388.146,316.02 387.5,338.5C 387.543,339.416 387.876,340.083 388.5,340.5C 385.803,347.368 381.136,352.534 374.5,356C 362.22,357.394 349.886,357.894 337.5,357.5C 337.666,365.174 337.5,372.841 337,380.5C 333.232,390.6 326.066,396.767 315.5,399C 233.5,399.667 151.5,399.667 69.5,399C 58.4529,396.784 51.4529,390.284 48.5,379.5C 49.8333,264.833 49.8333,150.167 48.5,35.5C 51.1314,25.5353 57.4647,19.2019 67.5,16.5 Z"/></g>
<g><path style="opacity:1" fill="#1a2630" d="M 250.5,27.5 C 189.137,27.1779 127.804,27.5112 66.5,28.5C 66.6107,27.8826 66.944,27.3826 67.5,27C 128.668,26.168 189.668,26.3347 250.5,27.5 Z"/></g>
<g><path style="opacity:1" fill="#f5f5f6" d="M 250.5,27.5 C 250.333,45.8364 250.5,64.1697 251,82.5C 253.833,92.6667 260.333,99.1667 270.5,102C 289.164,102.5 307.83,102.667 326.5,102.5C 326.5,151.833 326.5,201.167 326.5,250.5C 307.488,250.833 288.488,250.5 269.5,249.5C 280.627,229.622 284.46,208.289 281,185.5C 271.466,142.964 245.299,117.798 202.5,110C 165.687,106.371 136.187,119.204 114,148.5C 95.0259,178.049 92.3592,209.049 106,241.5C 123.077,274.89 150.41,292.557 188,294.5C 195.629,294.264 203.129,293.264 210.5,291.5C 210.072,308.881 210.572,326.214 212,343.5C 214.833,349 219,353.167 224.5,356C 258.459,357.465 292.459,357.965 326.5,357.5C 326.884,364.589 326.384,371.589 325,378.5C 323.5,382.667 320.667,385.5 316.5,387C 234.167,387.667 151.833,387.667 69.5,387C 64.1844,384.853 60.851,381.02 59.5,375.5C 59.5,263.167 59.5,150.833 59.5,38.5C 60.3728,34.0691 62.7062,30.7358 66.5,28.5C 127.804,27.5112 189.137,27.1779 250.5,27.5 Z"/></g>
<g><path style="opacity:1" fill="#f2f2f3" d="M 261.5,34.5 C 279.604,53.105 297.938,71.605 316.5,90C 301.5,90.6667 286.5,90.6667 271.5,90C 267,88.1667 263.833,85 262,80.5C 261.5,65.1703 261.333,49.837 261.5,34.5 Z"/></g>
<g><path style="opacity:1" fill="#f5f5f5" d="M 183.5,121.5 C 183.5,133.833 183.5,146.167 183.5,158.5C 182.167,158.5 180.833,158.5 179.5,158.5C 171.271,158.402 163.271,157.068 155.5,154.5C 159.557,142.884 166.223,133.05 175.5,125C 178.11,123.519 180.777,122.352 183.5,121.5 Z"/></g>
<g><path style="opacity:1" fill="#f5f5f5" d="M 195.5,121.5 C 202.561,124.045 208.394,128.378 213,134.5C 216.77,141.04 220.27,147.707 223.5,154.5C 214.426,157.468 205.093,158.801 195.5,158.5C 195.5,146.167 195.5,133.833 195.5,121.5 Z"/></g>
<g><path style="opacity:1" fill="#f0f0f1" d="M 220.5,127.5 C 230.872,130.772 239.872,136.772 247.5,145.5C 243.547,148.31 239.213,150.31 234.5,151.5C 230.834,142.822 226.167,134.822 220.5,127.5 Z"/></g>
<g><path style="opacity:1" fill="#f0f0f1" d="M 155.5,127.5 C 156.239,127.369 156.906,127.536 157.5,128C 151.844,135.475 147.344,143.642 144,152.5C 139.876,150.771 135.876,148.771 132,146.5C 131.837,144.613 132.671,143.113 134.5,142C 141.218,136.651 148.218,131.817 155.5,127.5 Z"/></g>
<g><path style="opacity:1" fill="#6e7479" d="M 183.5,121.5 C 184.495,133.989 184.829,146.656 184.5,159.5C 182.585,159.784 180.919,159.451 179.5,158.5C 180.833,158.5 182.167,158.5 183.5,158.5C 183.5,146.167 183.5,133.833 183.5,121.5 Z"/></g>
<g><path style="opacity:1" fill="#f5f5f5" d="M 122.5,155.5 C 128.258,158.376 134.258,160.709 140.5,162.5C 138.128,173.363 136.795,184.363 136.5,195.5C 127.143,195.832 117.81,195.498 108.5,194.5C 110.422,180.393 115.088,167.393 122.5,155.5 Z"/></g>
<g><path style="opacity:1" fill="#f3f3f3" d="M 253.5,155.5 C 255.903,155.393 257.736,156.393 259,158.5C 265.63,170.359 269.463,183.025 270.5,196.5C 261.167,196.5 251.833,196.5 242.5,196.5C 242.241,185.28 240.574,174.28 237.5,163.5C 243.164,161.335 248.498,158.668 253.5,155.5 Z"/></g>
<g><path style="opacity:1" fill="#f6f5f6" d="M 183.5,195.5 C 171.833,195.5 160.167,195.5 148.5,195.5C 148.5,194.167 148.5,192.833 148.5,191.5C 148.333,183.008 149.333,174.675 151.5,166.5C 162.028,168.921 172.695,170.255 183.5,170.5C 183.5,178.833 183.5,187.167 183.5,195.5 Z"/></g>
<g><path style="opacity:1" fill="#f5f5f5" d="M 230.5,190.5 C 230.5,192.167 230.5,193.833 230.5,195.5C 218.833,195.5 207.167,195.5 195.5,195.5C 195.5,187.167 195.5,178.833 195.5,170.5C 206.302,170.195 216.968,168.862 227.5,166.5C 229.28,174.399 230.28,182.399 230.5,190.5 Z"/></g>
<g><path style="opacity:1" fill="#3f474f" d="M 59.5,38.5 C 59.5,150.833 59.5,263.167 59.5,375.5C 58.8826,375.611 58.3826,375.944 58,376.5C 57.3333,263.5 57.3333,150.5 58,37.5C 58.3826,38.056 58.8826,38.3893 59.5,38.5 Z"/></g>
<g><path style="opacity:1" fill="#b4b6b8" d="M 148.5,191.5 C 148.5,192.833 148.5,194.167 148.5,195.5C 160.167,195.5 171.833,195.5 183.5,195.5C 171.678,196.495 159.678,196.828 147.5,196.5C 147.216,194.585 147.549,192.919 148.5,191.5 Z"/></g>
<g><path style="opacity:1" fill="#b7b9bb" d="M 230.5,190.5 C 231.461,192.265 231.795,194.265 231.5,196.5C 219.322,196.828 207.322,196.495 195.5,195.5C 207.167,195.5 218.833,195.5 230.5,195.5C 230.5,193.833 230.5,192.167 230.5,190.5 Z"/></g>
<g><path style="opacity:1" fill="#f4f4f5" d="M 109.5,207.5 C 118.5,207.5 127.5,207.5 136.5,207.5C 136.874,215.54 137.707,223.54 139,231.5C 139.532,234.264 140.366,236.93 141.5,239.5C 135.509,242.162 129.509,244.828 123.5,247.5C 114.343,235.829 109.676,222.496 109.5,207.5 Z"/></g>
<g><path style="opacity:1" fill="#f5f5f5" d="M 147.5,207.5 C 159.5,207.5 171.5,207.5 183.5,207.5C 183.5,215.833 183.5,224.167 183.5,232.5C 175.483,233.097 167.483,233.931 159.5,235C 157.238,235.642 155.071,236.475 153,237.5C 149.587,227.836 147.753,217.836 147.5,207.5 Z"/></g>
<g><path style="opacity:1" fill="#f4f4f5" d="M 195.5,207.5 C 207.167,207.5 218.833,207.5 230.5,207.5C 230.332,217.667 228.999,227.667 226.5,237.5C 216.336,234.973 206.003,233.64 195.5,233.5C 195.5,224.833 195.5,216.167 195.5,207.5 Z"/></g>
<g><path style="opacity:1" fill="#f4f4f5" d="M 242.5,207.5 C 251.833,207.5 261.167,207.5 270.5,207.5C 269.347,222.479 264.681,236.146 256.5,248.5C 250.046,245.686 243.713,242.686 237.5,239.5C 240.039,228.983 241.706,218.317 242.5,207.5 Z"/></g>
<g><path style="opacity:1" fill="#efeff0" d="M 170.5,244.5 C 175.167,244.5 179.833,244.5 184.5,244.5C 184.5,257.167 184.5,269.833 184.5,282.5C 177.196,280.704 171.363,276.704 167,270.5C 162.043,263.445 158.543,255.778 156.5,247.5C 161.349,246.784 166.015,245.784 170.5,244.5 Z"/></g>
<g><path style="opacity:1" fill="#f4f4f4" d="M 195.5,244.5 C 207.353,245.104 219.02,246.937 230.5,250C 218.349,253.153 211.516,260.986 210,273.5C 206.24,277.628 201.74,280.628 196.5,282.5C 195.501,269.851 195.168,257.184 195.5,244.5 Z"/></g>
<g><path style="opacity:1" fill="#f0f0f0" d="M 140.5,251.5 C 142.288,251.215 143.955,251.548 145.5,252.5C 148.32,260.974 152.32,268.807 157.5,276C 156.5,276.667 155.5,276.667 154.5,276C 145.409,271.112 137.409,264.778 130.5,257C 133.949,255.251 137.283,253.417 140.5,251.5 Z"/></g>
<g><path style="opacity:1" fill="#f4f4f4" d="M 229.5,261.5 C 276.501,261.333 323.501,261.5 370.5,262C 373.333,263.5 375.5,265.667 377,268.5C 377.98,292.588 377.646,316.588 376,340.5C 374.062,343.106 371.562,344.939 368.5,346C 322.5,346.667 276.5,346.667 230.5,346C 226.333,344.5 223.5,341.667 222,337.5C 221.333,315.167 221.333,292.833 222,270.5C 223.642,266.7 226.142,263.7 229.5,261.5 Z"/></g>
<g><path style="opacity:1" fill="#2d3842" d="M 295.5,277.5 C 306.555,277.121 317.555,277.621 328.5,279C 336.967,284.104 340.467,291.604 339,301.5C 337.264,308.237 333.097,312.737 326.5,315C 319.508,315.5 312.508,315.666 305.5,315.5C 305.83,321.868 305.496,328.202 304.5,334.5C 300.738,336.09 297.238,335.757 294,333.5C 293.333,315.5 293.333,297.5 294,279.5C 294.717,278.956 295.217,278.289 295.5,277.5 Z"/></g>
<g><path style="opacity:1" fill="#303a44" d="M 268.5,277.5 C 271.579,277.26 274.579,277.593 277.5,278.5C 278.825,297.398 278.825,316.231 277.5,335C 273.683,336.023 270.183,335.523 267,333.5C 266.333,315.5 266.333,297.5 267,279.5C 267.717,278.956 268.217,278.289 268.5,277.5 Z"/></g>
<g><path style="opacity:1" fill="#f3f3f3" d="M 305.5,287.5 C 311.176,287.334 316.843,287.501 322.5,288C 326.238,289.399 327.904,292.066 327.5,296C 327.902,300.2 326.235,303.2 322.5,305C 316.843,305.499 311.176,305.666 305.5,305.5C 305.5,299.5 305.5,293.5 305.5,287.5 Z"/></g>
<g><path style="opacity:1" fill="#181818" d="M 389.5,271.5 C 389.803,294.533 389.469,317.533 388.5,340.5C 387.876,340.083 387.543,339.416 387.5,338.5C 388.146,316.02 388.813,293.687 389.5,271.5 Z"/></g>
<g><path style="opacity:1" fill="#2c3239" d="M 48.5,35.5 C 49.8333,150.167 49.8333,264.833 48.5,379.5C 47.1667,264.833 47.1667,150.167 48.5,35.5 Z"/></g>
</svg>
