<?xml version="1.0" encoding="UTF-8"?>
<!DOCTYPE svg PUBLIC "-//W3C//DTD SVG 1.1//EN" "http://www.w3.org/Graphics/SVG/1.1/DTD/svg11.dtd">
<svg xmlns="http://www.w3.org/2000/svg" version="1.1" width="560px" height="641px" style="shape-rendering:geometricPrecision; text-rendering:geometricPrecision; image-rendering:optimizeQuality; fill-rule:evenodd; clip-rule:evenodd" xmlns:xlink="http://www.w3.org/1999/xlink">
<g><path style="opacity:1" fill="#f5f5f5" d="M -0.5,-0.5 C 186.167,-0.5 372.833,-0.5 559.5,-0.5C 559.5,213.167 559.5,426.833 559.5,640.5C 372.833,640.5 186.167,640.5 -0.5,640.5C -0.5,426.833 -0.5,213.167 -0.5,-0.5 Z"/></g>
<g><path style="opacity:1" fill="#242d33" d="M 361.5,48.5 C 361.565,48.9382 361.399,49.2716 361,49.5C 360.167,48.6667 359.333,47.8333 358.5,47C 265.332,46.833 172.332,46.333 79.5,45.5C 172.43,44.3361 265.43,44.1694 358.5,45C 359.71,46.0391 360.71,47.2058 361.5,48.5 Z"/></g>
<g><path style="opacity:1" fill="#333b41" d="M 79.5,45.5 C 172.332,46.333 265.332,46.833 358.5,47C 359.333,47.8333 360.167,48.6667 361,49.5C 361.399,49.2716 361.565,48.9382 361.5,48.5C 400.889,87.8884 439.889,127.555 478.5,167.5C 478.5,251.833 478.5,336.167 478.5,420.5C 487.167,420.5 495.833,420.5 504.5,420.5C 516.384,422.264 524.717,428.597 529.5,439.5C 529.523,441.927 530.023,444.26 531,446.5C 531.5,477.832 531.667,509.165 531.5,540.5C 528.254,555.246 519.254,564.08 504.5,567C 495.84,567.5 487.173,567.666 478.5,567.5C 480.827,582.686 476.494,595.52 465.5,606C 460.828,608.837 455.828,610.837 450.5,612C 327.5,612.667 204.5,612.667 81.5,612C 66.7971,608.796 57.4638,599.963 53.5,585.5C 54.8333,414.167 54.8333,242.833 53.5,71.5C 53.5,70.8333 53.5,70.1667 53.5,69.5C 57.9953,57.0055 66.662,49.0055 79.5,45.5 Z"/></g>
<g><path style="opacity:1" fill="#1a2329" d="M 347.5,60.5 C 259.332,60.1673 171.332,60.5006 83.5,61.5C 81.4352,61.5172 79.4352,61.8505 77.5,62.5C 78.347,61.0337 79.6803,60.2004 81.5,60C 170.334,59.1676 259.001,59.3343 347.5,60.5 Z"/></g>
<g><path style="opacity:1" fill="#f4f4f4" d="M 83.5,61.5 C 171.5,61.5 259.5,61.5 347.5,61.5C 347.191,90.8649 347.524,120.198 348.5,149.5C 352.606,165.273 362.606,174.94 378.5,178.5C 406.328,179.498 434.328,179.831 462.5,179.5C 462.5,259.5 462.5,339.5 462.5,419.5C 408.664,419.168 354.997,419.501 301.5,420.5C 288.035,423.13 279.535,431.13 276,444.5C 275.333,477.167 275.333,509.833 276,542.5C 280.211,557.55 290.045,565.883 305.5,567.5C 357.833,567.5 410.167,567.5 462.5,567.5C 466.104,579.791 462.437,589.125 451.5,595.5C 450.833,595.5 450.167,595.5 449.5,595.5C 326.145,595.826 202.812,595.493 79.5,594.5C 78.8333,594.5 78.1667,594.5 77.5,594.5C 73.691,591.191 70.8576,587.191 69,582.5C 68.5,413.834 68.3333,245.167 68.5,76.5C 68.767,74.0347 69.4336,71.7014 70.5,69.5C 72.5,66.8333 74.8333,64.5 77.5,62.5C 79.4352,61.8505 81.4352,61.5172 83.5,61.5 Z"/></g>
<g><path style="opacity:1" fill="#f4f4f4" d="M 365.5,74.5 C 393.165,103.498 421.165,132.165 449.5,160.5C 425.313,161.799 400.98,161.799 376.5,160.5C 370.788,158.451 367.121,154.451 365.5,148.5C 364.201,123.687 364.201,99.0203 365.5,74.5 Z"/></g>
<g><path style="opacity:1" fill="#aeb1b3" d="M 365.5,74.5 C 364.201,99.0203 364.201,123.687 365.5,148.5C 365.167,148.5 364.833,148.5 364.5,148.5C 363.529,123.866 363.195,99.1991 363.5,74.5C 364.167,73.1667 364.833,73.1667 365.5,74.5 Z"/></g>
<g><path style="opacity:1" fill="#192329" d="M 363.5,74.5 C 363.195,99.1991 363.529,123.866 364.5,148.5C 364.565,148.938 364.399,149.272 364,149.5C 363.667,148.833 363.333,148.167 363,147.5C 362.17,122.997 362.337,98.6632 363.5,74.5 Z"/></g>
<g><path style="opacity:1" fill="#2a3239" d="M 83.5,61.5 C 171.332,60.5006 259.332,60.1673 347.5,60.5C 348.117,60.6107 348.617,60.944 349,61.5C 349.83,91.0029 349.664,120.336 348.5,149.5C 347.524,120.198 347.191,90.8649 347.5,61.5C 259.5,61.5 171.5,61.5 83.5,61.5 Z"/></g>
<g><path style="opacity:1" fill="#cbcdce" d="M 376.5,161.5 C 376.5,161.167 376.5,160.833 376.5,160.5C 400.98,161.799 425.313,161.799 449.5,160.5C 450.338,160.842 450.672,161.508 450.5,162.5C 425.801,162.805 401.134,162.471 376.5,161.5 Z"/></g>
<g><path style="opacity:1" fill="#0c131a" d="M 376.5,161.5 C 401.134,162.471 425.801,162.805 450.5,162.5C 426.67,163.663 402.67,163.83 378.5,163C 377.584,162.722 376.918,162.222 376.5,161.5 Z"/></g>
<g><path style="opacity:1" fill="#323a40" d="M 285.5,215.5 C 285.5,216.167 285.5,216.833 285.5,217.5C 284.177,221.9 284.177,226.4 285.5,231C 316.326,230.962 346.993,230.462 377.5,229.5C 377.5,228.5 377.5,227.5 377.5,226.5C 384.268,217.146 392.935,214.98 403.5,220C 412.313,227.6 413.813,236.433 408,246.5C 400.397,254.234 391.897,255.4 382.5,250C 380.259,248.261 378.592,246.094 377.5,243.5C 362.845,242.334 348.178,242.167 333.5,243C 374.637,265.74 397.971,300.573 403.5,347.5C 406.385,347.194 409.052,347.527 411.5,348.5C 408.813,348.336 406.146,348.503 403.5,349C 406.903,349.1 410.07,349.934 413,351.5C 413.667,360.167 413.667,368.833 413,377.5C 412.5,378 412,378.5 411.5,379C 401.833,379.667 392.167,379.667 382.5,379C 382,378.5 381.5,378 381,377.5C 380.333,369.167 380.333,360.833 381,352.5C 381.5,351.333 382.333,350.5 383.5,350C 385.833,349.667 388.167,349.333 390.5,349C 387.854,348.503 385.187,348.336 382.5,348.5C 384.948,347.527 387.615,347.194 390.5,347.5C 386.161,308.645 367.494,278.812 334.5,258C 319.206,249.513 302.872,244.346 285.5,242.5C 284.681,245.305 284.181,248.305 284,251.5C 283.215,253.286 282.049,254.786 280.5,256C 269.5,256.667 258.5,256.667 247.5,256C 246.299,255.097 245.465,253.931 245,252.5C 244.667,249.167 244.333,245.833 244,242.5C 243.501,246.152 243.335,249.818 243.5,253.5C 242.518,250.038 242.185,246.371 242.5,242.5C 200.266,248.027 169.433,269.693 150,307.5C 144.565,319.303 141.065,331.637 139.5,344.5C 153.782,353.177 156.115,364.343 146.5,378C 136.003,384.9 126.503,383.734 118,374.5C 111.627,362.464 114.127,352.797 125.5,345.5C 132.71,300.545 155.71,266.378 194.5,243C 180.821,242.167 167.154,242.334 153.5,243.5C 146.899,254.42 137.899,256.92 126.5,251C 119.06,243.62 117.56,235.12 122,225.5C 128.67,217.225 136.837,215.392 146.5,220C 149.206,222.371 151.539,225.037 153.5,228C 183.165,228.5 212.831,228.667 242.5,228.5C 242.334,223.821 242.501,219.155 243,214.5C 244.167,213.333 245.333,212.167 246.5,211C 258.167,210.333 269.833,210.333 281.5,211C 283.041,212.371 284.375,213.871 285.5,215.5 Z"/></g>
<g><path style="opacity:1" fill="#888c8f" d="M 285.5,215.5 C 286.485,219.634 286.818,223.968 286.5,228.5C 317.057,229.147 347.391,228.48 377.5,226.5C 377.5,227.5 377.5,228.5 377.5,229.5C 346.833,229.5 316.167,229.5 285.5,229.5C 285.5,225.5 285.5,221.5 285.5,217.5C 285.5,216.833 285.5,216.167 285.5,215.5 Z"/></g>
<g><path style="opacity:1" fill="#1e262e" d="M 285.5,217.5 C 285.5,221.5 285.5,225.5 285.5,229.5C 316.167,229.5 346.833,229.5 377.5,229.5C 346.993,230.462 316.326,230.962 285.5,231C 284.177,226.4 284.177,221.9 285.5,217.5 Z"/></g>
<g><path style="opacity:1" fill="#e7e8e9" d="M 134.5,231.5 C 142.888,231.362 144.554,234.529 139.5,241C 132.279,241.013 130.612,237.846 134.5,231.5 Z"/></g>
<g><path style="opacity:1" fill="#20292f" d="M 285.5,242.5 C 285.665,245.85 285.498,249.183 285,252.5C 283.833,255 282,256.833 279.5,258C 269.167,258.667 258.833,258.667 248.5,258C 246.34,257.004 244.673,255.504 243.5,253.5C 243.335,249.818 243.501,246.152 244,242.5C 244.333,245.833 244.667,249.167 245,252.5C 245.465,253.931 246.299,255.097 247.5,256C 258.5,256.667 269.5,256.667 280.5,256C 282.049,254.786 283.215,253.286 284,251.5C 284.181,248.305 284.681,245.305 285.5,242.5 Z"/></g>
<g><path style="opacity:1" fill="#c6c8c9" d="M 378.5,178.5 C 406.833,178.5 435.167,178.5 463.5,178.5C 463.5,259.167 463.5,339.833 463.5,420.5C 409.5,420.5 355.5,420.5 301.5,420.5C 354.997,419.501 408.664,419.168 462.5,419.5C 462.5,339.5 462.5,259.5 462.5,179.5C 434.328,179.831 406.328,179.498 378.5,178.5 Z"/></g>
<g><path style="opacity:1" fill="#0e171d" d="M 70.5,69.5 C 69.4336,71.7014 68.767,74.0347 68.5,76.5C 67.6668,244 67.1668,411.666 67,579.5C 66.3333,411.5 66.3333,243.5 67,75.5C 67.6667,73.5 68.3333,71.5 69,69.5C 69.69,68.2617 70.19,68.2617 70.5,69.5 Z"/></g>
<g><path style="opacity:1" fill="#323a40" d="M 257.5,313.5 C 276.189,312.05 288.689,320.05 295,337.5C 296.167,363 284,375.167 258.5,374C 254.599,372.033 250.599,370.7 246.5,370C 228.667,387.833 210.833,405.667 193,423.5C 192.333,424.833 192.333,426.167 193,427.5C 203.523,451.209 197.023,468.709 173.5,480C 158.194,484.216 145.694,480.049 136,467.5C 127.175,454.527 126.175,440.861 133,426.5C 142.188,413.49 154.688,407.99 170.5,410C 174.412,411.64 178.412,412.64 182.5,413C 201.029,394.805 219.195,376.305 237,357.5C 231.8,336.912 238.633,322.245 257.5,313.5 Z"/></g>
<g><path style="opacity:1" fill="#b8bbbd" d="M 53.5,69.5 C 53.5,70.1667 53.5,70.8333 53.5,71.5C 52.504,242.139 52.1707,412.805 52.5,583.5C 51.3338,413.667 51.1672,243.667 52,73.5C 52.21,71.9419 52.71,70.6085 53.5,69.5 Z"/></g>
<g><path style="opacity:1" fill="#c7c7c9" d="M 478.5,167.5 C 479.499,251.332 479.833,335.332 479.5,419.5C 488.017,419.174 496.35,419.507 504.5,420.5C 495.833,420.5 487.167,420.5 478.5,420.5C 478.5,336.167 478.5,251.833 478.5,167.5 Z"/></g>
<g><path style="opacity:1" fill="#2d343a" d="M 382.5,348.5 C 385.187,348.336 387.854,348.503 390.5,349C 388.167,349.333 385.833,349.667 383.5,350C 382.333,350.5 381.5,351.333 381,352.5C 380.333,360.833 380.333,369.167 381,377.5C 381.5,378 382,378.5 382.5,379C 392.167,379.667 401.833,379.667 411.5,379C 412,378.5 412.5,378 413,377.5C 413.667,368.833 413.667,360.167 413,351.5C 410.07,349.934 406.903,349.1 403.5,349C 406.146,348.503 408.813,348.336 411.5,348.5C 412.482,349.141 413.482,349.807 414.5,350.5C 415.665,359.482 415.832,368.482 415,377.5C 413.786,379.049 412.286,380.215 410.5,381C 401.167,381.667 391.833,381.667 382.5,381C 380.951,379.786 379.785,378.286 379,376.5C 378.333,368.167 378.333,359.833 379,351.5C 380.039,350.29 381.206,349.29 382.5,348.5 Z"/></g>
<g><path style="opacity:1" fill="#374046" d="M 504.5,436.5 C 436.096,436.17 367.762,436.504 299.5,437.5C 298.761,437.631 298.094,437.464 297.5,437C 298.623,435.956 299.956,435.29 301.5,435C 369.5,434.333 437.5,434.333 505.5,435C 507.932,436.087 507.598,436.587 504.5,436.5 Z"/></g>
<g><path style="opacity:1" fill="#f3f3f3" d="M 504.5,436.5 C 509.441,438.442 513.108,441.775 515.5,446.5C 516.484,476.456 516.818,506.456 516.5,536.5C 514.866,544.134 510.2,548.8 502.5,550.5C 435.833,550.667 369.166,550.5 302.5,550C 302.833,549.667 303.167,549.333 303.5,549C 301.866,548.506 300.199,548.34 298.5,548.5C 295.832,546.664 293.666,544.331 292,541.5C 291.333,509.5 291.333,477.5 292,445.5C 294.028,442.308 296.528,439.641 299.5,437.5C 367.762,436.504 436.096,436.17 504.5,436.5 Z"/></g>
<g><path style="opacity:1" fill="#262e34" d="M 53.5,71.5 C 54.8333,242.833 54.8333,414.167 53.5,585.5C 53.6716,584.508 53.3382,583.842 52.5,583.5C 52.1707,412.805 52.504,242.139 53.5,71.5 Z"/></g>
<g><path style="opacity:1" fill="#31393f" d="M 494.5,502.5 C 495.162,506.466 495.495,510.466 495.5,514.5C 491.88,527.755 483.046,534.088 469,533.5C 456.194,533.349 448.028,527.183 444.5,515C 444.439,513.289 445.106,511.956 446.5,511C 449.442,509.876 452.442,509.542 455.5,510C 459.809,519.322 466.809,522.322 476.5,519C 481.587,515.442 482.587,511.108 479.5,506C 470.376,502.604 461.376,498.937 452.5,495C 445.818,488.936 443.651,481.436 446,472.5C 448.899,465.268 454.066,460.435 461.5,458C 473.106,455.189 482.939,458.022 491,466.5C 497.131,475.334 494.798,480 484,480.5C 479.449,471.91 472.616,469.077 463.5,472C 459.209,475.448 458.542,479.448 461.5,484C 470.466,487.658 479.466,491.324 488.5,495C 491.118,497.106 493.118,499.606 494.5,502.5 Z"/></g>
<g><path style="opacity:1" fill="#333b40" d="M 330.5,502.5 C 329.167,508.167 329.167,513.833 330.5,519.5C 340.568,520.178 350.735,520.844 361,521.5C 361.777,524.429 361.61,527.263 360.5,530C 346.258,530.823 332.092,530.656 318,529.5C 317.832,506.663 317.332,483.996 316.5,461.5C 316.511,459.983 317.177,458.816 318.5,458C 332.179,457.167 345.846,457.334 359.5,458.5C 360.809,462.698 360.809,466.864 359.5,471C 349.839,471.5 340.172,471.666 330.5,471.5C 330.5,477.5 330.5,483.5 330.5,489.5C 338.84,489.334 347.173,489.5 355.5,490C 357.028,491.648 357.695,493.648 357.5,496C 357.695,498.352 357.028,500.352 355.5,502C 347.173,502.5 338.84,502.666 330.5,502.5 Z"/></g>
<g><path style="opacity:1" fill="#32393f" d="M 384.5,457.5 C 394.506,457.334 404.506,457.5 414.5,458C 428.328,462.482 434.495,471.982 433,486.5C 430.833,496.667 424.667,502.833 414.5,505C 408.175,505.5 401.842,505.666 395.5,505.5C 395.666,513.84 395.5,522.173 395,530.5C 393.178,532.045 391.011,532.712 388.5,532.5C 385.989,532.712 383.822,532.045 382,530.5C 381.333,507.167 381.333,483.833 382,460.5C 383.045,459.627 383.878,458.627 384.5,457.5 Z"/></g>
<g><path style="opacity:1" fill="#11181d" d="M 516.5,536.5 C 516.818,506.456 516.484,476.456 515.5,446.5C 515.435,446.062 515.601,445.728 516,445.5C 516.333,446.167 516.667,446.833 517,447.5C 517.829,477.905 517.662,507.572 516.5,536.5 Z"/></g>
<g><path style="opacity:1" fill="#f1f1f2" d="M 395.5,471.5 C 401.842,471.334 408.175,471.5 414.5,472C 422.643,479.129 422.309,485.795 413.5,492C 407.509,492.499 401.509,492.666 395.5,492.5C 395.5,485.5 395.5,478.5 395.5,471.5 Z"/></g>
<g><path style="opacity:1" fill="#273036" d="M 316.5,461.5 C 317.332,483.996 317.832,506.663 318,529.5C 332.092,530.656 346.258,530.823 360.5,530C 361.61,527.263 361.777,524.429 361,521.5C 350.735,520.844 340.568,520.178 330.5,519.5C 340.833,519.5 351.167,519.5 361.5,519.5C 363.111,523.884 362.777,528.051 360.5,532C 346.5,532.667 332.5,532.667 318.5,532C 317.667,531.167 316.833,530.333 316,529.5C 315.17,506.663 315.337,483.996 316.5,461.5 Z"/></g>
<g><path style="opacity:1" fill="#9b9ea1" d="M 529.5,439.5 C 530.6,441.277 531.434,443.277 532,445.5C 532.831,477.336 532.664,509.003 531.5,540.5C 531.667,509.165 531.5,477.832 531,446.5C 530.023,444.26 529.523,441.927 529.5,439.5 Z"/></g>
<g><path style="opacity:1" fill="#6d7276" d="M 494.5,502.5 C 495.926,504.679 496.592,507.179 496.5,510C 496.492,511.707 496.158,513.207 495.5,514.5C 495.495,510.466 495.162,506.466 494.5,502.5 Z"/></g>
<g><path style="opacity:1" fill="#86898c" d="M 330.5,502.5 C 330.5,507.833 330.5,513.167 330.5,518.5C 341.014,518.172 351.347,518.506 361.5,519.5C 351.167,519.5 340.833,519.5 330.5,519.5C 329.167,513.833 329.167,508.167 330.5,502.5 Z"/></g>
<g><path style="opacity:1" fill="#dedfe1" d="M 298.5,549.5 C 298.5,549.167 298.5,548.833 298.5,548.5C 300.199,548.34 301.866,548.506 303.5,549C 303.167,549.333 302.833,549.667 302.5,550C 369.166,550.5 435.833,550.667 502.5,550.5C 502.5,550.833 502.5,551.167 502.5,551.5C 435.499,551.667 368.499,551.5 301.5,551C 300.473,550.487 299.473,549.987 298.5,549.5 Z"/></g>
<g><path style="opacity:1" fill="#31393e" d="M 298.5,549.5 C 299.473,549.987 300.473,550.487 301.5,551C 368.499,551.5 435.499,551.667 502.5,551.5C 505.598,551.413 505.932,551.913 503.5,553C 436.833,553.667 370.167,553.667 303.5,553C 301.369,552.457 299.369,551.624 297.5,550.5C 297.624,549.893 297.957,549.56 298.5,549.5 Z"/></g>
<g><path style="opacity:1" fill="#282e34" d="M 462.5,567.5 C 410.167,567.5 357.833,567.5 305.5,567.5C 331.325,566.167 357.491,565.5 384,565.5C 410.509,565.5 436.675,566.167 462.5,567.5 Z"/></g>
<g><path style="opacity:1" fill="#93979a" d="M 79.5,594.5 C 202.812,595.493 326.145,595.826 449.5,595.5C 327.334,596.666 205.001,596.833 82.5,596C 81.2625,595.768 80.2625,595.268 79.5,594.5 Z"/></g>
<g><path style="opacity:1" fill="#192229" d="M 77.5,594.5 C 78.1667,594.5 78.8333,594.5 79.5,594.5C 80.2625,595.268 81.2625,595.768 82.5,596C 205.001,596.833 327.334,596.666 449.5,595.5C 450.167,595.5 450.833,595.5 451.5,595.5C 454.097,595.721 454.097,596.221 451.5,597C 327.833,597.667 204.167,597.667 80.5,597C 79.1667,596.333 77.8333,595.667 76.5,595C 76.7284,594.601 77.0618,594.435 77.5,594.5 Z"/></g>
</svg>
