<svg width="100" height="112" viewBox="0 0 100 112" fill="none" xmlns="http://www.w3.org/2000/svg">
<path fill-rule="evenodd" clip-rule="evenodd" d="M61.8343 0.289674C43.1673 0.678561 24.5003 0.678561 5.83325 0.289674C24.5411 -0.0965581 43.2081 -0.0965581 61.8343 0.289674Z" fill="#FFA02B"/>
<path fill-rule="evenodd" clip-rule="evenodd" d="M5.83352 0.289551C24.5005 0.678437 43.1676 0.678437 61.8346 0.289551C69.3726 7.7911 76.9073 15.2774 84.4392 22.7483C84.585 38.0121 84.6337 53.2765 84.585 68.5409C88.2948 68.4248 91.9894 68.5706 95.6686 68.9784C98.0641 70.1208 99.4253 72.0167 99.752 74.666C99.5516 81.1373 99.3571 87.6512 99.1686 94.208C99.1812 94.4752 99.2783 94.6697 99.4603 94.7914C98.6737 96.7946 97.3124 98.3013 95.3769 99.3123C91.7952 99.7189 88.1977 99.8647 84.585 99.7498C84.6334 101.988 84.585 104.224 84.4392 106.458C83.3402 109.404 81.2501 111.203 78.1682 111.854C54.2511 112.049 30.334 112.049 6.41687 111.854C3.19473 111.208 1.15303 109.312 0.291748 106.167C0.680635 72.7214 0.680635 39.2765 0.291748 5.83132C1.05925 2.9249 2.9065 1.07762 5.83352 0.289551Z" fill="#FFA02B"/>
<path fill-rule="evenodd" clip-rule="evenodd" d="M59.2094 3.49815C41.3116 3.4042 23.4224 3.50141 5.54175 3.78982C5.57404 3.60974 5.67125 3.4639 5.83342 3.35231C23.6744 3.10964 41.4664 3.15826 59.2094 3.49815Z" fill="#FFA02B"/>
<path fill-rule="evenodd" clip-rule="evenodd" d="M59.2096 3.49825C59.1609 8.84647 59.2096 14.1938 59.3555 19.5402C60.1818 22.5056 62.0777 24.4014 65.0431 25.2278C70.4869 25.3737 75.9312 25.4224 81.3767 25.3737C81.3767 39.7627 81.3767 54.1521 81.3767 68.5412C75.8315 68.6383 70.2897 68.5412 64.7514 68.2495C67.9969 62.4516 69.1148 56.2294 68.1056 49.5825C65.3248 37.1759 57.6927 29.8357 45.2094 27.5612C34.472 26.5027 25.8677 30.2458 19.3964 38.7906C13.8622 47.4092 13.0844 56.4511 17.063 65.9161C22.0439 75.6551 30.0162 80.808 40.9801 81.3747C43.2053 81.3059 45.3928 81.0142 47.5428 80.4997C47.4179 85.5693 47.5638 90.6248 47.9803 95.6667C48.8066 97.2709 50.022 98.4863 51.6262 99.3126C61.5311 99.7399 71.4479 99.8857 81.3767 99.7501C81.4887 101.818 81.3429 103.859 80.9392 105.875C80.5017 107.091 79.6754 107.917 78.46 108.354C54.4458 108.549 30.4312 108.549 6.41697 108.354C4.86655 107.728 3.89429 106.61 3.50024 105C3.50024 72.2358 3.50024 39.4711 3.50024 6.70665C3.75482 5.41428 4.4354 4.44204 5.54195 3.78992C23.4226 3.50152 41.3118 3.4043 59.2096 3.49825Z" fill="#282A2E"/>
<path fill-rule="evenodd" clip-rule="evenodd" d="M62.4179 5.54004C67.6984 10.9666 73.0459 16.3625 78.4599 21.7278C74.0848 21.9223 69.7097 21.9223 65.3347 21.7278C64.0221 21.1931 63.0984 20.2695 62.5638 18.957C62.4179 14.4857 62.3692 10.0134 62.4179 5.54004Z" fill="#FFA02B"/>
<path fill-rule="evenodd" clip-rule="evenodd" d="M39.6676 30.9153C39.6676 34.5125 39.6676 38.11 39.6676 41.7072C39.2788 41.7072 38.8897 41.7072 38.5009 41.7072C36.1007 41.6786 33.7673 41.2895 31.5007 40.5405C32.684 37.1524 34.6283 34.2841 37.3342 31.9361C38.0954 31.5042 38.8733 31.1638 39.6676 30.9153Z" fill="#282A2E"/>
<path fill-rule="evenodd" clip-rule="evenodd" d="M43.1675 30.9153C45.227 31.6576 46.9283 32.9214 48.2717 34.707C49.3713 36.6146 50.3922 38.5591 51.3343 40.5405C48.6877 41.4061 45.9655 41.7949 43.1675 41.7072C43.1675 38.11 43.1675 34.5125 43.1675 30.9153Z" fill="#282A2E"/>
<path fill-rule="evenodd" clip-rule="evenodd" d="M50.4595 32.6655C53.4847 33.6199 56.1097 35.3699 58.3346 37.9156C57.1816 38.7352 55.9175 39.3186 54.5429 39.6657C53.4736 37.1345 52.1124 34.8012 50.4595 32.6655Z" fill="#282A2E"/>
<path fill-rule="evenodd" clip-rule="evenodd" d="M31.5005 32.6654C31.7161 32.6272 31.9106 32.6759 32.0839 32.8113C30.4342 34.9915 29.1216 37.3736 28.1463 39.9572C26.9434 39.4529 25.7767 38.8696 24.6462 38.2072C24.5987 37.6568 24.8419 37.2193 25.3754 36.8947C27.3348 35.3345 29.3766 33.9246 31.5005 32.6654Z" fill="#282A2E"/>
<path fill-rule="evenodd" clip-rule="evenodd" d="M39.6674 30.9153C39.9576 34.558 40.0551 38.2526 39.9591 41.9988C39.4005 42.0817 38.9146 41.9845 38.5007 41.7072C38.8895 41.7072 39.2786 41.7072 39.6674 41.7072C39.6674 38.11 39.6674 34.5125 39.6674 30.9153Z" fill="#FFA02B"/>
<path fill-rule="evenodd" clip-rule="evenodd" d="M21.8754 40.8323C23.5549 41.6711 25.3049 42.3516 27.1255 42.874C26.4337 46.0424 26.0449 49.2508 25.9588 52.4992C23.2296 52.596 20.5075 52.4986 17.792 52.2075C18.3526 48.0929 19.7135 44.3011 21.8754 40.8323Z" fill="#282A2E"/>
<path fill-rule="evenodd" clip-rule="evenodd" d="M60.0845 40.8319C60.7854 40.8006 61.32 41.0923 61.6887 41.7069C63.6225 45.1658 64.7404 48.8601 65.0429 52.7904C62.3207 52.7904 59.5983 52.7904 56.8761 52.7904C56.8005 49.5179 56.3143 46.3095 55.4177 43.1652C57.0698 42.5338 58.6255 41.7559 60.0845 40.8319Z" fill="#282A2E"/>
<path fill-rule="evenodd" clip-rule="evenodd" d="M39.6674 52.499C36.2644 52.499 32.8618 52.499 29.4588 52.499C29.4588 52.1102 29.4588 51.7211 29.4588 51.3323C29.4101 48.8555 29.7018 46.4249 30.3339 44.0405C33.4046 44.7467 36.5159 45.1358 39.6674 45.2072C39.6674 47.6377 39.6674 50.0685 39.6674 52.499Z" fill="#282A2E"/>
<path fill-rule="evenodd" clip-rule="evenodd" d="M53.376 51.0407C53.376 51.5269 53.376 52.0128 53.376 52.499C49.9731 52.499 46.5704 52.499 43.1675 52.499C43.1675 50.0685 43.1675 47.6377 43.1675 45.2072C46.3181 45.1183 49.4291 44.7295 52.501 44.0405C53.0202 46.3444 53.3118 48.6778 53.376 51.0407Z" fill="#282A2E"/>
<path fill-rule="evenodd" clip-rule="evenodd" d="M3.5001 6.70647C3.5001 39.4709 3.5001 72.2356 3.5001 105C3.32002 105.032 3.17419 105.13 3.06259 105.292C2.86813 72.3327 2.86813 39.3738 3.06259 6.41479C3.17419 6.57696 3.32002 6.67418 3.5001 6.70647Z" fill="#FFA02B"/>
<path fill-rule="evenodd" clip-rule="evenodd" d="M29.4587 51.3323C29.4587 51.7211 29.4587 52.1102 29.4587 52.499C32.8616 52.499 36.2643 52.499 39.6672 52.499C36.2191 52.7892 32.719 52.8863 29.167 52.7906C29.0842 52.2321 29.1813 51.7462 29.4587 51.3323Z" fill="#FFA02B"/>
<path fill-rule="evenodd" clip-rule="evenodd" d="M53.376 51.0408C53.6563 51.5556 53.7537 52.1389 53.6677 52.7908C50.1157 52.8865 46.6156 52.7893 43.1675 52.4991C46.5704 52.4991 49.9731 52.4991 53.376 52.4991C53.376 52.0129 53.376 51.527 53.376 51.0408Z" fill="#FFA02B"/>
<path fill-rule="evenodd" clip-rule="evenodd" d="M18.0837 55.9993C20.7088 55.9993 23.3338 55.9993 25.9589 55.9993C26.068 58.3443 26.3109 60.6777 26.6881 62.9994C26.8432 63.8056 27.0865 64.5832 27.4173 65.3328C25.6698 66.1092 23.9198 66.8868 22.1672 67.6662C19.4963 64.2621 18.1351 60.3732 18.0837 55.9993Z" fill="#282A2E"/>
<path fill-rule="evenodd" clip-rule="evenodd" d="M29.167 55.9993C32.6671 55.9993 36.1671 55.9993 39.6672 55.9993C39.6672 58.4298 39.6672 60.8606 39.6672 63.2911C37.3289 63.4652 34.9955 63.7085 32.6671 64.0203C32.0073 64.2075 31.3752 64.4505 30.7712 64.7494C29.7757 61.9307 29.2408 59.014 29.167 55.9993Z" fill="#282A2E"/>
<path fill-rule="evenodd" clip-rule="evenodd" d="M43.1675 55.9993C46.5704 55.9993 49.9731 55.9993 53.376 55.9993C53.327 58.9647 52.9382 61.8814 52.2093 64.7494C49.2448 64.0124 46.2309 63.6236 43.1675 63.5827C43.1675 61.0548 43.1675 58.5272 43.1675 55.9993Z" fill="#282A2E"/>
<path fill-rule="evenodd" clip-rule="evenodd" d="M56.8761 55.9993C59.5983 55.9993 62.3207 55.9993 65.0429 55.9993C64.7066 60.3682 63.3457 64.3545 60.9595 67.9578C59.077 67.1371 57.2299 66.262 55.4177 65.3328C56.1583 62.2653 56.6445 59.1543 56.8761 55.9993Z" fill="#282A2E"/>
<path fill-rule="evenodd" clip-rule="evenodd" d="M35.8756 66.791C37.2369 66.791 38.5978 66.791 39.9591 66.791C39.9591 70.4856 39.9591 74.1799 39.9591 77.8746C37.8287 77.3507 36.1274 76.184 34.8548 74.3745C33.409 72.3167 32.3881 70.0805 31.7922 67.666C33.2066 67.4572 34.5675 67.1655 35.8756 66.791Z" fill="#282A2E"/>
<path fill-rule="evenodd" clip-rule="evenodd" d="M43.1674 66.791C46.6245 66.9672 50.0275 67.5018 53.3759 68.3952C49.8318 69.3149 47.8388 71.5995 47.3966 75.2495C46.2999 76.4535 44.9874 77.3285 43.459 77.8746C43.1676 74.1852 43.0705 70.4906 43.1674 66.791Z" fill="#282A2E"/>
<path fill-rule="evenodd" clip-rule="evenodd" d="M27.1255 68.8327C27.647 68.7496 28.1332 68.8467 28.5838 69.1244C29.4063 71.596 30.573 73.8807 32.0839 75.9787C31.7922 76.1732 31.5005 76.1732 31.2089 75.9787C28.5573 74.553 26.2239 72.7055 24.2087 70.4369C25.2147 69.9268 26.1872 69.3918 27.1255 68.8327Z" fill="#282A2E"/>
<path fill-rule="evenodd" clip-rule="evenodd" d="M53.0844 71.7492C66.7933 71.7005 80.5019 71.7492 94.2102 71.8951C95.0365 72.3326 95.6686 72.9646 96.1061 73.7909C96.3919 80.8167 96.2945 87.8169 95.8144 94.7913C95.2492 95.5514 94.52 96.0861 93.6269 96.3955C80.2099 96.5901 66.793 96.5901 53.3761 96.3955C52.1607 95.958 51.3344 95.1317 50.8969 93.9163C50.7023 87.4024 50.7023 80.8882 50.8969 74.3743C51.3758 73.2659 52.105 72.3909 53.0844 71.7492Z" fill="#282A2E"/>
<path fill-rule="evenodd" clip-rule="evenodd" d="M72.3346 76.4161C75.5591 76.3056 78.7675 76.4514 81.9598 76.8536C84.4294 78.3423 85.4503 80.5299 85.0224 83.4163C84.516 85.3812 83.3006 86.6938 81.3765 87.3538C79.3371 87.4997 77.2954 87.5481 75.2514 87.4997C75.3476 89.357 75.2502 91.2045 74.9597 93.0414C73.8624 93.5052 72.8416 93.4081 71.8971 92.7498C71.7026 87.4997 71.7026 82.2496 71.8971 76.9995C72.1063 76.8408 72.2521 76.6462 72.3346 76.4161Z" fill="#FFA02B"/>
<path fill-rule="evenodd" clip-rule="evenodd" d="M64.4596 76.416C65.3577 76.346 66.2327 76.4432 67.0847 76.7077C67.4712 82.2197 67.4712 87.7128 67.0847 93.1872C65.9714 93.4856 64.9505 93.3397 64.0221 92.7497C63.8276 87.4996 63.8276 82.2495 64.0221 76.9994C64.2313 76.8407 64.3771 76.6462 64.4596 76.416Z" fill="#FFA02B"/>
<path fill-rule="evenodd" clip-rule="evenodd" d="M75.2515 79.333C76.907 79.2846 78.5599 79.3333 80.2099 79.4789C81.3002 79.8869 81.7861 80.6648 81.6683 81.8123C81.7855 83.0373 81.2993 83.9123 80.2099 84.4373C78.5599 84.5829 76.907 84.6316 75.2515 84.5831C75.2515 82.8331 75.2515 81.0831 75.2515 79.333Z" fill="#282A2E"/>
<path fill-rule="evenodd" clip-rule="evenodd" d="M99.7518 74.666C99.8402 81.3841 99.7428 88.0926 99.4601 94.7914C99.2781 94.6698 99.181 94.4752 99.1685 94.2081C99.3569 87.6513 99.5514 81.1373 99.7518 74.666Z" fill="#FFA02B"/>
<path fill-rule="evenodd" clip-rule="evenodd" d="M0.291665 5.8313C0.680552 39.2765 0.680552 72.7214 0.291665 106.167C-0.0972217 72.7214 -0.0972217 39.2765 0.291665 5.8313Z" fill="#FFA02B"/>
</svg>
