<svg width="104" height="118" viewBox="0 0 104 118" fill="none" xmlns="http://www.w3.org/2000/svg">
<path fill-rule="evenodd" clip-rule="evenodd" d="M97.8228 117.203C70.8203 117.2 43.7498 117.2 16.6114 117.203C13.4426 116.34 11.4431 114.29 10.6129 111.05C10.4591 108.694 10.4079 106.336 10.459 103.975C6.71219 104.618 3.68725 103.49 1.38429 100.591C0.853711 99.615 0.443563 98.5897 0.153817 97.5151C-0.0512723 90.7475 -0.0512723 83.9799 0.153817 77.2123C1.91835 72.4319 5.3534 70.3813 10.459 71.0599C10.4078 49.6291 10.459 28.1982 10.6129 6.76762C11.3625 3.24985 13.4645 1.04523 16.919 0.153817C37.8371 -0.0512723 58.7552 -0.0512723 79.6733 0.153817C87.3037 8.09204 95.0456 15.9363 102.898 23.6866C103.104 52.9104 103.104 82.1342 102.898 111.358C102.244 114.217 100.552 116.165 97.8228 117.203Z" fill="#FFA02B"/>
<path fill-rule="evenodd" clip-rule="evenodd" d="M17.8418 3.69138C37.375 3.38404 56.9598 3.28148 76.597 3.38376C76.597 9.02343 76.597 14.6631 76.597 20.3028C76.2903 14.8193 76.1878 9.28217 76.2894 3.69138C56.8069 3.69138 37.3242 3.69138 17.8418 3.69138Z" fill="#FFA02B"/>
<path fill-rule="evenodd" clip-rule="evenodd" d="M17.8418 3.69141C37.3242 3.69141 56.8069 3.69141 76.2894 3.69141C76.1878 9.28219 76.2903 14.8193 76.597 20.3028C77.4435 23.3544 79.392 25.3539 82.4417 26.3014C88.1831 26.4552 93.9251 26.5066 99.6684 26.4552C99.7197 54.4488 99.6684 82.4421 99.5146 110.435C99.2082 112.176 98.2343 113.355 96.5922 113.973C70.137 114.178 43.6818 114.178 17.2266 113.973C15.8423 113.409 14.868 112.435 14.3042 111.05C14.1504 108.694 14.0993 106.336 14.1504 103.975C22.5591 104.026 30.9676 103.975 39.3751 103.821C42.6485 103.214 44.7504 101.317 45.6813 98.1304C45.8865 91.0551 45.8865 83.9799 45.6813 76.9047C44.7895 73.8602 42.79 71.9631 39.6827 71.2137C31.1725 71.0599 22.6619 71.0085 14.1504 71.0599C14.099 49.629 14.1504 28.1982 14.3042 6.76759C14.9748 5.12079 16.1539 4.0954 17.8418 3.69141Z" fill="#282A2E"/>
<path fill-rule="evenodd" clip-rule="evenodd" d="M79.9807 5.84448C85.6609 11.3708 91.3008 16.9592 96.8997 22.6097C92.183 22.8149 87.466 22.8149 82.7493 22.6097C81.3345 22.1181 80.463 21.144 80.1345 19.6873C79.9807 15.0742 79.9293 10.4599 79.9807 5.84448Z" fill="#FFA02B"/>
<path fill-rule="evenodd" clip-rule="evenodd" d="M28.3009 34.761C41.3239 34.7096 54.3463 34.761 67.3684 34.9148C68.5992 35.5629 68.9068 36.5369 68.2913 37.8372C68.1298 38.05 67.9246 38.2038 67.6761 38.2986C54.5509 38.5038 41.426 38.5038 28.3009 38.2986C27.0833 37.1342 27.0833 35.9551 28.3009 34.761Z" fill="#FFA02B"/>
<path fill-rule="evenodd" clip-rule="evenodd" d="M27.9933 44.9121C47.3736 44.8607 66.7535 44.9121 86.1332 45.0659C87.033 46.2029 86.9305 47.2282 85.8256 48.1421C66.6508 48.3473 47.4757 48.3473 28.3009 48.1421C27.2073 47.1663 27.1046 46.0897 27.9933 44.9121Z" fill="#FFA02B"/>
<path fill-rule="evenodd" clip-rule="evenodd" d="M28.3009 54.448C47.3736 54.3966 66.446 54.448 85.518 54.6018C87.1539 55.8172 87.1539 57.0477 85.518 58.2932C66.4457 58.4984 47.3733 58.4984 28.3009 58.2932C27.0849 57.012 27.0849 55.7304 28.3009 54.448Z" fill="#FFA02B"/>
<path fill-rule="evenodd" clip-rule="evenodd" d="M6.15236 74.751C17.4321 74.6996 28.7116 74.751 39.9904 74.9048C41.0849 75.4868 41.854 76.3583 42.2976 77.5195C42.5028 84.1847 42.5028 90.8496 42.2976 97.5147C41.7048 99.0307 40.6281 100.005 39.0676 100.437C28.3009 100.642 17.5343 100.642 6.7676 100.437C5.50273 99.8899 4.5286 99.0184 3.84522 97.8224C3.64013 90.9523 3.64013 84.082 3.84522 77.2119C4.46914 76.23 5.23818 75.4096 6.15236 74.751Z" fill="#282A2E"/>
<path fill-rule="evenodd" clip-rule="evenodd" d="M28.9163 82.1341C30.4577 82.083 31.9958 82.1344 33.5305 82.2879C34.5546 83.5605 34.7084 84.9448 33.992 86.4407C33.7613 86.6333 33.5047 86.7871 33.2229 86.9022C31.791 87.0557 30.3556 87.1071 28.9163 87.056C28.9163 85.4155 28.9163 83.7746 28.9163 82.1341Z" fill="#282A2E"/>
<path fill-rule="evenodd" clip-rule="evenodd" d="M97.8229 117.203C97.3064 117.323 96.7936 117.477 96.2848 117.664C70.0348 117.869 43.7845 117.869 17.5344 117.664C17.1539 117.593 16.8463 117.439 16.6116 117.203C43.75 117.2 70.8204 117.2 97.8229 117.203Z" fill="#FFA02B"/>
<line x1="85.376" y1="88.376" x2="68.1446" y2="88.376" stroke="#FFA02B" stroke-width="3" stroke-linecap="round"/>
<line x1="87.1435" y1="88.258" x2="82.3077" y2="84.2281" stroke="#FFA02B" stroke-width="3" stroke-linecap="round"/>
<line x1="1.5" y1="-1.5" x2="7.79483" y2="-1.5" transform="matrix(-0.768221 0.640184 0.640184 0.768221 89.2561 89.2561)" stroke="#FFA02B" stroke-width="3" stroke-linecap="round"/>
<path d="M7.156 83.083H10.539L13.99 90.104L17.424 83.083H20.807V95H18.053L18.036 87.367L14.993 93.81H12.987L9.927 87.367V95H7.156V83.083ZM24.8607 83.083H35.0947V85.089L28.8047 92.535H35.1967V95H24.6397V93.011L30.9297 85.548H24.8607V83.083Z" fill="#FFA02B"/>
</svg>
