<svg width="96" height="113" viewBox="0 0 96 113" fill="none" xmlns="http://www.w3.org/2000/svg">
<path fill-rule="evenodd" clip-rule="evenodd" d="M61.6744 0.799493C61.6873 0.886668 61.6543 0.952993 61.5749 0.99843C61.4092 0.832656 61.2433 0.666862 61.0776 0.501088C42.543 0.467866 24.0419 0.368397 5.57422 0.202683C24.0614 -0.0288597 42.5625 -0.0620225 61.0776 0.103214C61.3183 0.30993 61.5172 0.542029 61.6744 0.799493Z" fill="#FFA02B"/>
<path fill-rule="evenodd" clip-rule="evenodd" d="M5.57421 0.202881C24.0419 0.368595 42.543 0.468064 61.0776 0.501286C61.2433 0.66706 61.4092 0.832854 61.5749 0.998628C61.6543 0.953191 61.6873 0.886865 61.6744 0.799691C69.5103 8.63549 77.2689 16.5266 84.95 24.4732C84.95 41.2501 84.95 58.0272 84.95 74.8042C86.6742 74.8042 88.3982 74.8042 90.1224 74.8042C92.4865 75.1551 94.1443 76.415 95.0958 78.584C95.1004 79.0668 95.1998 79.5309 95.3942 79.9765C95.4937 86.2096 95.5269 92.4429 95.4937 98.6766C94.8479 101.61 93.0575 103.368 90.1224 103.948C88.3996 104.048 86.6754 104.081 84.95 104.048C85.4129 107.069 84.5509 109.622 82.3638 111.707C81.4344 112.271 80.4397 112.669 79.3798 112.901C54.9105 113.033 30.4413 113.033 5.97209 112.901C3.04714 112.263 1.1904 110.506 0.401855 107.629C0.667098 73.5443 0.667098 39.4597 0.401855 5.37524C0.401855 5.24261 0.401855 5.11 0.401855 4.97736C1.29614 2.49175 3.02026 0.900254 5.57421 0.202881Z" fill="#FFA02B"/>
<path fill-rule="evenodd" clip-rule="evenodd" d="M58.8895 3.18683C41.3496 3.12064 23.8432 3.18695 6.37013 3.38577C5.95937 3.38919 5.5615 3.45549 5.17651 3.5847C5.34501 3.293 5.61026 3.12723 5.97226 3.08736C23.6446 2.92177 41.2837 2.95493 58.8895 3.18683Z" fill="#FFA02B"/>
<path fill-rule="evenodd" clip-rule="evenodd" d="M6.37002 3.38574C23.8765 3.38574 41.3829 3.38574 58.8893 3.38574C58.8279 9.2275 58.8941 15.0629 59.0883 20.8922C59.9051 24.03 61.8945 25.9531 65.0564 26.6614C70.5924 26.8599 76.1626 26.9261 81.7671 26.8603C81.7671 42.7752 81.7671 58.6902 81.7671 74.6051C71.0571 74.5391 60.3808 74.6053 49.7383 74.8041C47.0596 75.3273 45.3686 76.9188 44.6654 79.5785C44.5327 86.0772 44.5327 92.5757 44.6654 99.0744C45.5031 102.068 47.4594 103.726 50.534 104.048C60.945 104.048 71.3561 104.048 81.7671 104.048C82.484 106.493 81.7545 108.35 79.5788 109.618C79.4461 109.618 79.3136 109.618 79.1809 109.618C54.641 109.683 30.1056 109.617 5.57428 109.419C5.44165 109.419 5.30903 109.419 5.1764 109.419C4.41865 108.761 3.85498 107.965 3.48544 107.032C3.38597 73.478 3.35281 39.9239 3.38597 6.36979C3.43909 5.87936 3.5717 5.41518 3.78385 4.97724C4.18172 4.44673 4.6459 3.98255 5.1764 3.58468C5.56139 3.45547 5.95926 3.38916 6.37002 3.38574Z" fill="#282A2E"/>
<path fill-rule="evenodd" clip-rule="evenodd" d="M62.4702 5.97192C67.9738 11.7407 73.544 17.4436 79.1809 23.0805C74.3692 23.3389 69.5285 23.3389 64.6585 23.0805C63.5222 22.6729 62.7927 21.8771 62.4702 20.6932C62.2118 15.757 62.2118 10.8499 62.4702 5.97192Z" fill="#282A2E"/>
<path fill-rule="evenodd" clip-rule="evenodd" d="M62.4704 5.97188C62.212 10.8499 62.212 15.757 62.4704 20.6932C62.4041 20.6932 62.3377 20.6932 62.2714 20.6932C62.0783 15.7926 62.0118 10.8854 62.0725 5.97188C62.2052 5.70664 62.3377 5.70664 62.4704 5.97188Z" fill="#FFA02B"/>
<path fill-rule="evenodd" clip-rule="evenodd" d="M62.0725 5.97192C62.0118 10.8855 62.0782 15.7926 62.2714 20.6932C62.2843 20.7804 62.2513 20.8468 62.1719 20.8922C62.1057 20.7595 62.0392 20.627 61.973 20.4943C61.8079 15.6198 61.8411 10.7789 62.0725 5.97192Z" fill="#FFA02B"/>
<path fill-rule="evenodd" clip-rule="evenodd" d="M6.37012 3.38584C23.8431 3.18703 41.3496 3.12072 58.8894 3.18691C59.0122 3.20893 59.1117 3.27523 59.1878 3.38584C59.353 9.25506 59.3199 15.0905 59.0884 20.8923C58.8942 15.063 58.828 9.2276 58.8894 3.38584C41.383 3.38584 23.8766 3.38584 6.37012 3.38584Z" fill="#FFA02B"/>
<path fill-rule="evenodd" clip-rule="evenodd" d="M64.6587 23.2795C64.6587 23.2133 64.6587 23.1468 64.6587 23.0806C69.5287 23.339 74.3694 23.339 79.1811 23.0806C79.3478 23.1486 79.4142 23.2811 79.38 23.4784C74.4665 23.5391 69.5593 23.4727 64.6587 23.2795Z" fill="#FFA02B"/>
<path fill-rule="evenodd" clip-rule="evenodd" d="M64.6587 23.2793C69.5593 23.4725 74.4665 23.5389 79.38 23.4782C74.6394 23.7096 69.8649 23.7428 65.0566 23.5777C64.8743 23.5224 64.7418 23.4229 64.6587 23.2793Z" fill="#FFA02B"/>
<path fill-rule="evenodd" clip-rule="evenodd" d="M46.5554 34.0218C46.5554 34.1545 46.5554 34.287 46.5554 34.4197C46.2922 35.295 46.2922 36.1902 46.5554 37.1054C52.6878 37.0978 58.7886 36.9983 64.8576 36.8069C64.8576 36.608 64.8576 36.4091 64.8576 36.2101C66.204 34.3493 67.9282 33.9184 70.03 34.917C71.7832 36.429 72.0816 38.1862 70.9252 40.1889C69.4127 41.7275 67.7217 41.9594 65.8523 40.8852C65.4065 40.5392 65.0748 40.1081 64.8576 39.5921C61.9422 39.3601 59.0244 39.3269 56.1044 39.4926C64.288 44.0164 68.93 50.946 70.03 60.2815C70.6039 60.2206 71.1345 60.2869 71.6215 60.4804C71.0869 60.4478 70.5563 60.481 70.03 60.5799C70.7069 60.5998 71.337 60.7657 71.9199 61.0772C72.0525 62.8014 72.0525 64.5254 71.9199 66.2496C71.8204 66.3491 71.7209 66.4485 71.6215 66.548C69.6983 66.6807 67.7754 66.6807 65.8523 66.548C65.7528 66.4485 65.6533 66.3491 65.5539 66.2496C65.4212 64.5919 65.4212 62.9339 65.5539 61.2762C65.6533 61.044 65.8191 60.8783 66.0512 60.7788C66.5153 60.7126 66.9797 60.6461 67.4438 60.5799C66.9174 60.481 66.3868 60.4478 65.8523 60.4804C66.3393 60.2869 66.8698 60.2206 67.4438 60.2815C66.5806 52.5518 62.867 46.6169 56.3033 42.4766C53.2608 40.7883 50.0113 39.7604 46.5554 39.3931C46.3925 39.9511 46.293 40.548 46.257 41.1836C46.1008 41.5389 45.8689 41.8373 45.5607 42.0788C43.3724 42.2115 41.1841 42.2115 38.9958 42.0788C38.7569 41.8991 38.591 41.6672 38.4985 41.3825C38.4322 40.7194 38.3658 40.0562 38.2995 39.3931C38.2003 40.1196 38.1672 40.8489 38.2001 41.5814C38.0047 40.8927 37.9385 40.1632 38.0011 39.3931C29.5992 40.4927 23.4654 44.8028 19.5995 52.324C18.5183 54.6721 17.822 57.1258 17.5106 59.6847C20.3519 61.4109 20.816 63.6322 18.9032 66.3491C16.815 67.7217 14.9251 67.4898 13.2335 65.6528C11.9657 63.2584 12.463 61.3353 14.7255 59.8836C16.1599 50.9404 20.7354 44.1433 28.4522 39.4926C25.7309 39.3269 23.012 39.3601 20.2958 39.5921C18.9826 41.7645 17.1921 42.2618 14.9245 41.0841C13.4444 39.6159 13.146 37.925 14.0292 36.0112C15.3562 34.365 16.9809 34.0003 18.9032 34.917C19.4415 35.3887 19.9056 35.9191 20.2958 36.5085C26.1972 36.608 32.0989 36.6412 38.0011 36.608C37.9681 35.6772 38.0013 34.7489 38.1006 33.8229C38.3328 33.5907 38.5647 33.3588 38.7969 33.1266C41.1179 32.9939 43.4387 32.9939 45.7597 33.1266C46.0662 33.3994 46.3316 33.6978 46.5554 34.0218Z" fill="#FFA02B"/>
<path fill-rule="evenodd" clip-rule="evenodd" d="M46.5554 34.022C46.7514 34.8444 46.8176 35.7066 46.7544 36.6082C52.8333 36.7369 58.8678 36.6042 64.8576 36.2103C64.8576 36.4092 64.8576 36.6082 64.8576 36.8071C58.7568 36.8071 52.6562 36.8071 46.5554 36.8071C46.5554 36.0113 46.5554 35.2156 46.5554 34.4198C46.5554 34.2872 46.5554 34.1547 46.5554 34.022Z" fill="#FFA02B"/>
<path fill-rule="evenodd" clip-rule="evenodd" d="M46.5553 34.4199C46.5553 35.2157 46.5553 36.0114 46.5553 36.8072C52.6561 36.8072 58.7567 36.8072 64.8575 36.8072C58.7885 36.9985 52.6877 37.098 46.5553 37.1056C46.2921 36.1905 46.2921 35.2952 46.5553 34.4199Z" fill="#FFA02B"/>
<path fill-rule="evenodd" clip-rule="evenodd" d="M16.5159 37.205C18.1846 37.1775 18.516 37.8075 17.5106 39.0949C16.0741 39.0974 15.7424 38.4674 16.5159 37.205Z" fill="#FFA02B"/>
<path fill-rule="evenodd" clip-rule="evenodd" d="M46.5554 39.3933C46.5882 40.0597 46.555 40.7228 46.4559 41.3827C46.2237 41.88 45.8591 42.2447 45.3617 42.4768C43.3061 42.6095 41.2503 42.6095 39.1947 42.4768C38.765 42.2787 38.4334 41.9803 38.2 41.5816C38.1672 40.8491 38.2002 40.1198 38.2995 39.3933C38.3657 40.0564 38.4322 40.7196 38.4984 41.3827C38.5909 41.6674 38.7568 41.8993 38.9958 42.079C41.1841 42.2116 43.3724 42.2116 45.5607 42.079C45.8688 41.8374 46.1008 41.539 46.257 41.1837C46.293 40.5481 46.3924 39.9513 46.5554 39.3933Z" fill="#FFA02B"/>
<path fill-rule="evenodd" clip-rule="evenodd" d="M65.0564 26.6614C70.6929 26.6614 76.3296 26.6614 81.966 26.6614C81.966 42.709 81.966 58.7565 81.966 74.8041C71.2235 74.8041 60.4809 74.8041 49.7383 74.8041C60.3808 74.6054 71.0571 74.5391 81.7671 74.6052C81.7671 58.6902 81.7671 42.7753 81.7671 26.8603C76.1627 26.9262 70.5924 26.8599 65.0564 26.6614Z" fill="#FFA02B"/>
<path fill-rule="evenodd" clip-rule="evenodd" d="M3.78379 4.97724C3.57164 5.41518 3.43903 5.87936 3.38592 6.3698C3.22016 39.6917 3.12069 73.0467 3.08751 106.435C2.95488 73.0136 2.95488 39.5922 3.08751 6.17086C3.22014 5.77299 3.35275 5.37511 3.48538 4.97724C3.62265 4.73089 3.72212 4.73089 3.78379 4.97724Z" fill="#FFA02B"/>
<path fill-rule="evenodd" clip-rule="evenodd" d="M40.9852 53.5178C44.7031 53.2294 47.1898 54.8209 48.4453 58.2923C48.6774 63.3652 46.257 65.7857 41.1841 65.5535C40.408 65.1622 39.6123 64.897 38.7968 64.7577C35.2492 68.3054 31.7014 71.8532 28.1537 75.4009C28.021 75.666 28.021 75.9314 28.1537 76.1966C30.2471 80.9132 28.9541 84.3946 24.2745 86.6408C21.2295 87.4795 18.7428 86.6505 16.8143 84.1541C15.0587 81.5733 14.8598 78.8546 16.2175 75.9977C18.0453 73.4095 20.5321 72.3154 23.6776 72.7152C24.4559 73.0415 25.2516 73.2404 26.0649 73.312C29.751 69.6924 33.3649 66.012 36.9069 62.271C35.8725 58.1753 37.2318 55.2575 40.9852 53.5178Z" fill="#FFA02B"/>
<path fill-rule="evenodd" clip-rule="evenodd" d="M0.401945 4.97729C0.401945 5.10993 0.401945 5.24254 0.401945 5.37517C0.203804 39.3216 0.137498 73.2733 0.203008 107.231C-0.0289921 73.4448 -0.062135 39.6255 0.10354 5.77304C0.145316 5.46308 0.244785 5.19782 0.401945 4.97729Z" fill="#FFA02B"/>
<path fill-rule="evenodd" clip-rule="evenodd" d="M84.9502 24.4731C85.1489 41.1504 85.2154 57.8611 85.1491 74.6052C86.8435 74.5404 88.5012 74.6066 90.1226 74.8042C88.3984 74.8042 86.6744 74.8042 84.9502 74.8042C84.9502 58.0272 84.9502 41.2501 84.9502 24.4731Z" fill="#FFA02B"/>
<path fill-rule="evenodd" clip-rule="evenodd" d="M65.8522 60.4806C66.3867 60.448 66.9173 60.4812 67.4437 60.5801C66.9796 60.6463 66.5152 60.7128 66.0511 60.779C65.819 60.8785 65.6533 61.0442 65.5538 61.2764C65.4211 62.9341 65.4211 64.5921 65.5538 66.2498C65.6533 66.3493 65.7527 66.4487 65.8522 66.5482C67.7753 66.6809 69.6982 66.6809 71.6214 66.5482C71.7208 66.4487 71.8203 66.3493 71.9198 66.2498C72.0525 64.5256 72.0525 62.8016 71.9198 61.0774C71.3369 60.7659 70.7068 60.6 70.0299 60.5801C70.5563 60.4812 71.0868 60.448 71.6214 60.4806C71.8167 60.6082 72.0157 60.7406 72.2182 60.8785C72.4499 62.6654 72.4832 64.4558 72.3176 66.2498C72.0761 66.558 71.7777 66.7899 71.4224 66.9461C69.5657 67.0788 67.7089 67.0788 65.8522 66.9461C65.544 66.7046 65.3121 66.4062 65.1559 66.0509C65.0232 64.3931 65.0232 62.7352 65.1559 61.0774C65.3626 60.8367 65.5948 60.6378 65.8522 60.4806Z" fill="#FFA02B"/>
<path fill-rule="evenodd" clip-rule="evenodd" d="M90.1225 77.987C76.5145 77.9214 62.9203 77.9878 49.3405 78.186C49.1935 78.212 49.0608 78.1788 48.9426 78.0865C49.166 77.8788 49.4312 77.7463 49.7384 77.6886C63.2661 77.5559 76.7938 77.5559 90.3215 77.6886C90.8053 77.9049 90.7389 78.0043 90.1225 77.987Z" fill="#FFA02B"/>
<path fill-rule="evenodd" clip-rule="evenodd" d="M90.1224 77.9869C91.1053 78.3732 91.8348 79.0363 92.3107 79.9762C92.5064 85.9356 92.5729 91.9037 92.5096 97.8806C92.1846 99.3992 91.2563 100.327 89.7245 100.666C76.462 100.699 63.1995 100.666 49.9371 100.566C50.0034 100.5 50.0698 100.434 50.1361 100.367C49.811 100.269 49.4794 100.236 49.1414 100.268C48.6106 99.9026 48.1797 99.4384 47.8483 98.8752C47.7156 92.5093 47.7156 86.1433 47.8483 79.7773C48.2517 79.1423 48.7491 78.6117 49.3403 78.1858C62.9202 77.9877 76.5143 77.9212 90.1224 77.9869Z" fill="#282A2E"/>
<path fill-rule="evenodd" clip-rule="evenodd" d="M0.401821 5.37524C0.667064 39.4597 0.667064 73.5443 0.401821 107.629C0.435959 107.431 0.369633 107.299 0.202884 107.231C0.137375 73.2734 0.20368 39.3216 0.401821 5.37524Z" fill="#FFA02B"/>
<path fill-rule="evenodd" clip-rule="evenodd" d="M88.1332 91.117C88.2648 91.906 88.3311 92.7017 88.3321 93.5042C87.6119 96.1411 85.8545 97.401 83.0603 97.284C80.5127 97.254 78.8882 96.0273 78.1863 93.6037C78.1742 93.2633 78.3069 92.9981 78.5842 92.808C79.1695 92.5843 79.7663 92.5179 80.3746 92.609C81.2318 94.4635 82.6244 95.0603 84.5523 94.3994C85.5643 93.6916 85.7632 92.8294 85.1491 91.8133C83.334 91.1377 81.5436 90.4082 79.7778 89.625C78.4485 88.4186 78.0174 86.9266 78.4847 85.1489C79.0614 83.7102 80.0893 82.7487 81.5682 82.2643C83.8771 81.7051 85.8332 82.2687 87.4369 83.9553C88.6566 85.7127 88.1924 86.6409 86.0443 86.7404C85.139 85.0315 83.7796 84.4679 81.9661 85.0494C81.1125 85.7354 80.9798 86.5311 81.5682 87.4367C83.3519 88.1644 85.1423 88.8937 86.9395 89.625C87.4603 90.0439 87.8582 90.5413 88.1332 91.117Z" fill="#FFA02B"/>
<path fill-rule="evenodd" clip-rule="evenodd" d="M55.5075 91.1169C55.2423 92.2443 55.2423 93.3714 55.5075 94.4988C57.5104 94.6337 59.533 94.7662 61.5751 94.8967C61.7297 95.4794 61.6965 96.0432 61.4756 96.5876C58.6424 96.7514 55.8242 96.7181 53.0208 96.4882C52.9874 91.9451 52.8879 87.4358 52.7224 82.9605C52.7246 82.6587 52.8571 82.4265 53.1203 82.2642C55.8415 82.0985 58.5604 82.1317 61.2767 82.3637C61.5371 83.1988 61.5371 84.0276 61.2767 84.8504C59.3548 84.9498 57.4316 84.9829 55.5075 84.9498C55.5075 86.1435 55.5075 87.3371 55.5075 88.5307C57.1667 88.4977 58.8244 88.5307 60.4809 88.6302C60.7849 88.958 60.9176 89.3559 60.8788 89.8238C60.9176 90.2917 60.7849 90.6896 60.4809 91.0174C58.8244 91.1169 57.1667 91.1499 55.5075 91.1169Z" fill="#FFA02B"/>
<path fill-rule="evenodd" clip-rule="evenodd" d="M66.2502 82.1647C68.2407 82.1317 70.2301 82.1647 72.2183 82.2642C74.9692 83.1558 76.196 85.0457 75.8986 87.9339C75.4675 89.9565 74.2409 91.1831 72.2183 91.6142C70.96 91.7137 69.7001 91.7467 68.4385 91.7137C68.4715 93.3728 68.4385 95.0306 68.339 96.6871C67.9766 96.9945 67.5455 97.1272 67.0459 97.085C66.5464 97.1272 66.1153 96.9945 65.7528 96.6871C65.6201 92.0453 65.6201 87.4033 65.7528 82.7615C65.9607 82.5879 66.1264 82.3889 66.2502 82.1647Z" fill="#FFA02B"/>
<path fill-rule="evenodd" clip-rule="evenodd" d="M92.5098 97.8806C92.573 91.9037 92.5066 85.9356 92.3108 79.9763C92.2979 79.8891 92.3309 79.8227 92.4103 79.7773C92.4765 79.91 92.543 80.0425 92.6092 80.1752C92.7742 86.2239 92.7409 92.1258 92.5098 97.8806Z" fill="#FFA02B"/>
<path fill-rule="evenodd" clip-rule="evenodd" d="M68.4385 84.9499C69.7001 84.9169 70.96 84.9499 72.2183 85.0493C73.8382 86.4676 73.7718 87.7937 72.0193 89.0281C70.8275 89.1274 69.6339 89.1606 68.4385 89.1276C68.4385 87.735 68.4385 86.3424 68.4385 84.9499Z" fill="#282A2E"/>
<path fill-rule="evenodd" clip-rule="evenodd" d="M52.7224 82.9604C52.8879 87.4357 52.9873 91.945 53.0208 96.4882C55.8242 96.7181 58.6423 96.7513 61.4756 96.5876C61.6964 96.0431 61.7296 95.4793 61.575 94.8967C59.533 94.7662 57.5104 94.6337 55.5075 94.4988C57.5631 94.4988 59.6189 94.4988 61.6745 94.4988C61.995 95.3709 61.9286 96.1999 61.4756 96.9855C58.6905 97.1182 55.9053 97.1182 53.1202 96.9855C52.9545 96.8198 52.7886 96.6539 52.6229 96.4882C52.4578 91.945 52.491 87.4357 52.7224 82.9604Z" fill="#FFA02B"/>
<path fill-rule="evenodd" clip-rule="evenodd" d="M95.0959 78.584C95.3148 78.9375 95.4807 79.3354 95.5933 79.7776C95.7586 86.111 95.7254 92.4107 95.4938 98.6766C95.527 92.4429 95.4938 86.2096 95.3944 79.9765C95.2 79.5309 95.1005 79.0668 95.0959 78.584Z" fill="#282A2E"/>
<path fill-rule="evenodd" clip-rule="evenodd" d="M88.1331 91.1169C88.4167 91.5504 88.5492 92.0478 88.5309 92.609C88.5293 92.9486 88.4629 93.247 88.332 93.5042C88.331 92.7017 88.2648 91.9059 88.1331 91.1169Z" fill="#FFA02B"/>
<path fill-rule="evenodd" clip-rule="evenodd" d="M55.5075 91.1169C55.5075 92.1779 55.5075 93.239 55.5075 94.2999C57.5991 94.2347 59.6547 94.3011 61.6745 94.4989C59.6189 94.4989 57.5631 94.4989 55.5075 94.4989C55.2423 93.3715 55.2423 92.2443 55.5075 91.1169Z" fill="#FFA02B"/>
<path fill-rule="evenodd" clip-rule="evenodd" d="M49.1416 100.467C49.1416 100.401 49.1416 100.334 49.1416 100.268C49.4796 100.236 49.8112 100.269 50.1363 100.368C50.07 100.434 50.0036 100.5 49.9373 100.566C63.1997 100.666 76.4622 100.699 89.7247 100.666C89.7247 100.732 89.7247 100.799 89.7247 100.865C76.3957 100.898 63.067 100.865 49.7384 100.765C49.5341 100.663 49.3352 100.564 49.1416 100.467Z" fill="#FFA02B"/>
<path fill-rule="evenodd" clip-rule="evenodd" d="M49.1416 100.467C49.3351 100.564 49.5341 100.663 49.7384 100.765C63.0669 100.865 76.3957 100.898 89.7247 100.865C90.341 100.848 90.4074 100.947 89.9236 101.163C76.6611 101.296 63.3988 101.296 50.1362 101.163C49.7123 101.055 49.3144 100.89 48.9426 100.666C48.9673 100.545 49.0335 100.479 49.1416 100.467Z" fill="#FFA02B"/>
<path fill-rule="evenodd" clip-rule="evenodd" d="M81.767 104.048C71.3561 104.048 60.9449 104.048 50.5339 104.048C55.6715 103.783 60.8769 103.65 66.1505 103.65C71.4241 103.65 76.6295 103.783 81.767 104.048Z" fill="#FFA02B"/>
<path fill-rule="evenodd" clip-rule="evenodd" d="M5.57422 109.419C30.1055 109.616 54.641 109.683 79.1808 109.618C54.8775 109.85 30.541 109.883 6.17103 109.717C5.92484 109.671 5.72591 109.572 5.57422 109.419Z" fill="#FFA02B"/>
<path fill-rule="evenodd" clip-rule="evenodd" d="M5.17648 109.419C5.30911 109.419 5.44172 109.419 5.57435 109.419C5.72604 109.572 5.92498 109.671 6.17116 109.717C30.5411 109.883 54.8777 109.85 79.181 109.618C79.3137 109.618 79.4462 109.618 79.5789 109.618C80.0955 109.662 80.0955 109.761 79.5789 109.916C54.9769 110.049 30.3752 110.049 5.77329 109.916C5.50804 109.784 5.24278 109.651 4.97754 109.518C5.02298 109.439 5.0893 109.406 5.17648 109.419Z" fill="#FFA02B"/>
</svg>
