<svg width="96" height="110" viewBox="0 0 96 110" fill="none" xmlns="http://www.w3.org/2000/svg">
<path fill-rule="evenodd" clip-rule="evenodd" d="M91.1283 109.182C65.9737 109.179 40.7558 109.179 15.4746 109.182C12.5227 108.379 10.66 106.469 9.88657 103.451C9.74337 101.256 9.6956 99.0588 9.74328 96.8596C6.25284 97.4586 3.43491 96.408 1.28956 93.7074C0.795288 92.7978 0.413208 91.8427 0.143291 90.8417C-0.0477635 84.5373 -0.0477635 78.2328 0.143291 71.9283C1.78707 67.4751 4.98705 65.5648 9.74328 66.197C9.69551 46.2327 9.74328 26.2685 9.88657 6.30448C10.5849 3.02744 12.543 0.973704 15.7612 0.143291C35.2477 -0.0477635 54.7343 -0.0477635 74.2208 0.143291C81.3291 7.53827 88.5412 14.8457 95.8567 22.0657C96.0478 49.2895 96.0478 76.5134 95.8567 103.737C95.2468 106.4 93.6707 108.215 91.1283 109.182Z" fill="#FFA02B"/>
<path fill-rule="evenodd" clip-rule="evenodd" d="M16.6208 3.43895C34.8173 3.15264 53.0618 3.0571 71.3551 3.15238C71.3551 8.4061 71.3551 13.6598 71.3551 18.9136C71.0694 13.8053 70.974 8.64713 71.0686 3.43895C52.9194 3.43895 34.77 3.43895 16.6208 3.43895Z" fill="#FFA02B"/>
<path fill-rule="evenodd" clip-rule="evenodd" d="M16.6208 3.43872C34.77 3.43872 52.9194 3.43872 71.0685 3.43872C70.974 8.6469 71.0694 13.8051 71.3551 18.9133C72.1437 21.7561 73.9589 23.6188 76.7999 24.5014C82.1484 24.6447 87.4974 24.6925 92.8476 24.6447C92.8955 50.7226 92.8476 76.8002 92.7044 102.877C92.4189 104.499 91.5117 105.598 89.982 106.173C65.3372 106.364 40.6924 106.364 16.0477 106.173C14.7581 105.648 13.8506 104.74 13.3253 103.451C13.182 101.256 13.1344 99.0587 13.182 96.8596C21.0153 96.9074 28.8483 96.8596 36.6805 96.7163C39.7299 96.1503 41.688 94.383 42.5551 91.4148C42.7463 84.8237 42.7463 78.2327 42.5551 71.6417C41.7244 68.8055 39.8617 67.0382 36.9671 66.3402C29.0392 66.1969 21.111 66.149 13.182 66.1969C13.1342 46.2326 13.182 26.2684 13.3253 6.30439C13.95 4.77028 15.0484 3.81507 16.6208 3.43872Z" fill="#282A2E"/>
<path fill-rule="evenodd" clip-rule="evenodd" d="M74.5075 5.44458C79.7989 10.5927 85.0528 15.7987 90.2686 21.0625C85.8747 21.2536 81.4805 21.2536 77.0866 21.0625C75.7686 20.6045 74.9568 19.6971 74.6507 18.3401C74.5075 14.0426 74.4596 9.74414 74.5075 5.44458Z" fill="#282A2E"/>
<path fill-rule="evenodd" clip-rule="evenodd" d="M26.3641 32.382C38.4959 32.3341 50.6272 32.382 62.7581 32.5252C63.9047 33.129 64.1912 34.0363 63.6178 35.2476C63.4674 35.4459 63.2762 35.5892 63.0447 35.6775C50.8177 35.8686 38.5911 35.8686 26.3641 35.6775C25.2299 34.5928 25.2299 33.4944 26.3641 32.382Z" fill="#FFA02B"/>
<path fill-rule="evenodd" clip-rule="evenodd" d="M26.0776 41.8388C44.1316 41.7909 62.1853 41.8388 80.2388 41.982C81.077 43.0412 80.9815 43.9963 79.9522 44.8477C62.0896 45.0388 44.2268 45.0388 26.3642 44.8477C25.3454 43.9387 25.2497 42.9357 26.0776 41.8388Z" fill="#FFA02B"/>
<path fill-rule="evenodd" clip-rule="evenodd" d="M26.364 50.7223C44.1314 50.6744 61.8986 50.7223 79.6655 50.8656C81.1894 51.9978 81.1894 53.1441 79.6655 54.3044C61.8983 54.4955 44.1312 54.4955 26.364 54.3044C25.2312 53.1108 25.2312 51.917 26.364 50.7223Z" fill="#FFA02B"/>
<path fill-rule="evenodd" clip-rule="evenodd" d="M70.782 66.197C77.5475 66.1325 80.7476 69.4759 80.382 76.2268C79.8409 77.7872 79.0766 79.22 78.0894 80.5253C73.1619 85.5485 68.147 90.468 63.0447 95.2835C59.9437 97.2597 56.7915 97.3551 53.5879 95.5701C50.2807 92.9047 49.2777 89.5138 50.579 85.3969C51.0567 84.6327 51.5341 83.8687 52.0118 83.1044C56.9313 78.1849 61.8505 73.2657 66.77 68.3462C68.0066 67.3942 69.344 66.6778 70.782 66.197Z" fill="#FFA02B"/>
<path fill-rule="evenodd" clip-rule="evenodd" d="M71.9282 69.3491C75.0979 69.4623 76.913 71.0863 77.3729 74.2208C77.1955 75.4702 76.7657 76.6165 76.0834 77.6596C71.0685 82.6745 66.0535 87.6894 61.0386 92.7043C57.7127 94.3658 55.1815 93.554 53.4446 90.2685C53.0652 88.5941 53.3517 87.0658 54.3043 85.6834C59.4146 80.5731 64.5253 75.4625 69.6356 70.3521C70.3973 69.9286 71.1616 69.5941 71.9282 69.3491Z" fill="#282A2E"/>
<path fill-rule="evenodd" clip-rule="evenodd" d="M5.73126 69.6356C16.2391 69.5878 26.7466 69.6356 37.2536 69.7789C38.2732 70.3211 38.9896 71.1329 39.4029 72.2147C39.594 78.4238 39.594 84.6325 39.4029 90.8416C38.8507 92.2538 37.8477 93.1611 36.3939 93.564C26.3641 93.7551 16.3342 93.7551 6.3044 93.564C5.12609 93.0542 4.21862 92.2423 3.58201 91.1281C3.39096 84.7282 3.39096 78.3281 3.58201 71.9282C4.16323 71.0134 4.87964 70.2492 5.73126 69.6356Z" fill="#282A2E"/>
<path fill-rule="evenodd" clip-rule="evenodd" d="M26.9373 76.5134C28.3732 76.4658 29.8061 76.5137 31.2358 76.6567C32.1897 77.8422 32.333 79.1318 31.6656 80.5253C31.4507 80.7047 31.2117 80.848 30.9492 80.9552C29.6152 81.0982 28.2781 81.146 26.9373 81.0985C26.9373 79.5702 26.9373 78.0417 26.9373 76.5134Z" fill="#282A2E"/>
<path fill-rule="evenodd" clip-rule="evenodd" d="M69.3492 75.94C71.356 75.703 72.0724 76.5627 71.4984 78.5191C67.7252 82.2924 63.9523 86.0653 60.179 89.8385C58.2278 90.4678 57.4157 89.7514 57.7432 87.6893C61.6698 83.8106 65.5384 79.8944 69.3492 75.94Z" fill="#FFA02B"/>
<path fill-rule="evenodd" clip-rule="evenodd" d="M91.1283 109.182C90.6471 109.294 90.1694 109.438 89.6954 109.612C65.2418 109.803 40.7879 109.803 16.3343 109.612C15.9798 109.545 15.6933 109.402 15.4746 109.182C40.7558 109.18 65.9737 109.18 91.1283 109.182Z" fill="#FFA02B"/>
<path d="M9.43821 79.207C9.71688 79.207 9.94421 79.295 10.1202 79.471C10.2962 79.6397 10.3842 79.8633 10.3842 80.142C10.3842 80.4207 10.2962 80.648 10.1202 80.824C9.94421 81 9.71688 81.088 9.43821 81.088C9.16688 81.088 8.94321 81 8.76721 80.824C8.59121 80.648 8.50321 80.4207 8.50321 80.142C8.50321 79.8633 8.59121 79.6397 8.76721 79.471C8.94321 79.295 9.16688 79.207 9.43821 79.207ZM16.6995 77.513C16.7068 77.271 16.6628 77.0657 16.5675 76.897C16.4795 76.721 16.3512 76.5853 16.1825 76.49C16.0138 76.3947 15.8195 76.347 15.5995 76.347C15.3428 76.347 15.1228 76.4167 14.9395 76.556C14.7635 76.688 14.6242 76.875 14.5215 77.117C14.4262 77.3517 14.3785 77.6267 14.3785 77.942C14.3785 78.2867 14.4372 78.5837 14.5545 78.833C14.6718 79.0823 14.8368 79.2767 15.0495 79.416C15.2695 79.548 15.5225 79.614 15.8085 79.614C16.3365 79.614 16.8022 79.4123 17.2055 79.009L18.2285 80.021C17.9278 80.351 17.5575 80.6077 17.1175 80.791C16.6848 80.9743 16.1898 81.066 15.6325 81.066C14.9872 81.066 14.4262 80.9413 13.9495 80.692C13.4802 80.4427 13.1172 80.0907 12.8605 79.636C12.6112 79.1813 12.4865 78.6533 12.4865 78.052C12.4865 77.436 12.6148 76.9007 12.8715 76.446C13.1282 75.984 13.4912 75.6283 13.9605 75.379C14.4298 75.1223 14.9725 74.994 15.5885 74.994C16.2852 74.994 16.8608 75.1407 17.3155 75.434C17.7775 75.72 18.1148 76.1307 18.3275 76.666C18.5475 77.2013 18.6355 77.8283 18.5915 78.547H14.1035V77.513H16.6995ZM20.1124 75.06H22.3564L23.3134 76.743L24.3474 75.06H26.4924L24.6114 77.953L26.6244 81H24.3694L23.3134 79.174L22.1364 81H19.9804L22.0044 77.953L20.1124 75.06ZM31.072 78.888C31.072 79.1153 31.1197 79.2803 31.215 79.383C31.3104 79.4857 31.4424 79.5333 31.611 79.526C31.7137 79.526 31.8274 79.5077 31.952 79.471C32.0767 79.4343 32.2087 79.3867 32.348 79.328L32.722 80.681C32.5094 80.813 32.26 80.9157 31.974 80.989C31.6954 81.055 31.4094 81.088 31.116 81.088C30.7347 81.088 30.3937 81.0183 30.093 80.879C29.7924 80.7323 29.554 80.5197 29.378 80.241C29.2094 79.955 29.125 79.6067 29.125 79.196V73.696H31.072V78.888ZM28.3 75.335H32.612V76.611H28.3V75.335ZM9.43821 89.207C9.71688 89.207 9.94421 89.295 10.1202 89.471C10.2962 89.6397 10.3842 89.8633 10.3842 90.142C10.3842 90.4207 10.2962 90.648 10.1202 90.824C9.94421 91 9.71688 91.088 9.43821 91.088C9.16688 91.088 8.94321 91 8.76721 90.824C8.59121 90.648 8.50321 90.4207 8.50321 90.142C8.50321 89.8633 8.59121 89.6397 8.76721 89.471C8.94321 89.295 9.16688 89.207 9.43821 89.207ZM16.6995 87.513C16.7068 87.271 16.6628 87.0657 16.5675 86.897C16.4795 86.721 16.3512 86.5853 16.1825 86.49C16.0138 86.3947 15.8195 86.347 15.5995 86.347C15.3428 86.347 15.1228 86.4167 14.9395 86.556C14.7635 86.688 14.6242 86.875 14.5215 87.117C14.4262 87.3517 14.3785 87.6267 14.3785 87.942C14.3785 88.2867 14.4372 88.5837 14.5545 88.833C14.6718 89.0823 14.8368 89.2767 15.0495 89.416C15.2695 89.548 15.5225 89.614 15.8085 89.614C16.3365 89.614 16.8022 89.4123 17.2055 89.009L18.2285 90.021C17.9278 90.351 17.5575 90.6077 17.1175 90.791C16.6848 90.9743 16.1898 91.066 15.6325 91.066C14.9872 91.066 14.4262 90.9413 13.9495 90.692C13.4802 90.4427 13.1172 90.0907 12.8605 89.636C12.6112 89.1813 12.4865 88.6533 12.4865 88.052C12.4865 87.436 12.6148 86.9007 12.8715 86.446C13.1282 85.984 13.4912 85.6283 13.9605 85.379C14.4298 85.1223 14.9725 84.994 15.5885 84.994C16.2852 84.994 16.8608 85.1407 17.3155 85.434C17.7775 85.72 18.1148 86.1307 18.3275 86.666C18.5475 87.2013 18.6355 87.8283 18.5915 88.547H14.1035V87.513H16.6995ZM20.1124 85.06H22.3564L23.3134 86.743L24.3474 85.06H26.4924L24.6114 87.953L26.6244 91H24.3694L23.3134 89.174L22.1364 91H19.9804L22.0044 87.953L20.1124 85.06ZM31.072 88.888C31.072 89.1153 31.1197 89.2803 31.215 89.383C31.3104 89.4857 31.4424 89.5333 31.611 89.526C31.7137 89.526 31.8274 89.5077 31.952 89.471C32.0767 89.4343 32.2087 89.3867 32.348 89.328L32.722 90.681C32.5094 90.813 32.26 90.9157 31.974 90.989C31.6954 91.055 31.4094 91.088 31.116 91.088C30.7347 91.088 30.3937 91.0183 30.093 90.879C29.7924 90.7323 29.554 90.5197 29.378 90.241C29.2094 89.955 29.125 89.6067 29.125 89.196V83.696H31.072V88.888ZM28.3 85.335H32.612V86.611H28.3V85.335Z" fill="#FFA02B"/>
</svg>
