<?xml version="1.0" encoding="UTF-8"?>
<!DOCTYPE svg PUBLIC "-//W3C//DTD SVG 1.1//EN" "http://www.w3.org/Graphics/SVG/1.1/DTD/svg11.dtd">
<svg xmlns="http://www.w3.org/2000/svg" version="1.1" width="586px" height="621px" style="shape-rendering:geometricPrecision; text-rendering:geometricPrecision; image-rendering:optimizeQuality; fill-rule:evenodd; clip-rule:evenodd" xmlns:xlink="http://www.w3.org/1999/xlink">
<g><path style="opacity:1" fill="#f4f4f4" d="M -0.5,-0.5 C 194.833,-0.5 390.167,-0.5 585.5,-0.5C 585.5,206.5 585.5,413.5 585.5,620.5C 390.167,620.5 194.833,620.5 -0.5,620.5C -0.5,413.5 -0.5,206.5 -0.5,-0.5 Z"/></g>
<g><path style="opacity:1" fill="#0d171d" d="M 109.5,45.5 C 201.167,45.3333 292.834,45.5 384.5,46C 291.479,46.1715 198.479,46.6715 105.5,47.5C 104.584,47.4573 103.917,47.1239 103.5,46.5C 105.435,45.8505 107.435,45.5172 109.5,45.5 Z"/></g>
<g><path style="opacity:1" fill="#343b41" d="M 109.5,45.5 C 201.999,44.3342 294.666,44.1676 387.5,45C 426.304,85.4712 465.471,125.638 505,165.5C 506.663,305.086 506.997,444.753 506,584.5C 501.976,599.857 492.142,609.023 476.5,612C 353.5,612.667 230.5,612.667 107.5,612C 95.1603,608.327 86.6603,600.493 82,588.5C 80.4243,577.225 80.0909,565.892 81,554.5C 85.9158,547.941 90.9158,547.941 96,554.5C 96.3333,563.833 96.6667,573.167 97,582.5C 97.5725,584.641 98.4058,586.641 99.5,588.5C 98.475,588.897 98.3083,589.563 99,590.5C 101.593,593.543 104.76,595.71 108.5,597C 231.903,597.832 354.57,597.665 476.5,596.5C 478.98,594.897 481.646,593.397 484.5,592C 486.333,589.5 488.167,587 490,584.5C 490.5,449.167 490.667,313.834 490.5,178.5C 460.783,178.968 431.117,178.468 401.5,177C 386.298,171.445 377.632,160.612 375.5,144.5C 375.5,116.833 375.5,89.1667 375.5,61.5C 286.332,61.1673 197.332,61.5006 108.5,62.5C 104.632,64.0293 101.299,66.3626 98.5,69.5C 98.19,68.2617 97.69,68.2617 97,69.5C 96.3333,70.8333 95.6667,72.1667 95,73.5C 94.6667,175.167 94.3333,276.833 94,378.5C 93.6258,379.416 93.1258,380.25 92.5,381C 90.0731,381.902 87.7397,382.736 85.5,383.5C 84.2905,383.068 83.2905,382.401 82.5,381.5C 82.3393,278.374 82.506,175.04 83,71.5C 83.9913,69.5527 84.3247,67.5527 84,65.5C 83.6174,66.056 83.1174,66.3893 82.5,66.5C 86.8715,57.1297 93.8715,50.463 103.5,46.5C 103.917,47.1239 104.584,47.4573 105.5,47.5C 198.479,46.6715 291.479,46.1715 384.5,46C 292.834,45.5 201.167,45.3333 109.5,45.5 Z"/></g>
<g><path style="opacity:1" fill="#c4c6c8" d="M 108.5,62.5 C 197.332,61.5006 286.332,61.1673 375.5,61.5C 375.5,89.1667 375.5,116.833 375.5,144.5C 374.502,117.338 374.169,90.0051 374.5,62.5C 285.833,62.5 197.167,62.5 108.5,62.5 Z"/></g>
<g><path style="opacity:1" fill="#f4f4f4" d="M 477.5,160.5 C 453.313,161.799 428.98,161.799 404.5,160.5C 397.237,157.663 393.07,152.33 392,144.5C 391.333,120.5 391.333,96.5 392,72.5C 420.785,101.782 449.285,131.115 477.5,160.5 Z"/></g>
<g><path style="opacity:1" fill="#cccdcf" d="M 404.5,160.5 C 428.98,161.799 453.313,161.799 477.5,160.5C 478.043,160.56 478.376,160.893 478.5,161.5C 454.84,162.666 431.174,162.833 407.5,162C 406.263,161.768 405.263,161.268 404.5,160.5 Z"/></g>
<g><path style="opacity:1" fill="#0a0f15" d="M 171.5,210.5 C 218.501,210.333 265.501,210.5 312.5,211C 314.751,211.748 316.084,213.248 316.5,215.5C 316.565,215.938 316.399,216.272 316,216.5C 315.167,214.333 313.667,212.833 311.5,212C 264.665,211.833 217.998,211.333 171.5,210.5 Z"/></g>
<g><path style="opacity:1" fill="#31393f" d="M 171.5,210.5 C 217.998,211.333 264.665,211.833 311.5,212C 313.667,212.833 315.167,214.333 316,216.5C 316.399,216.272 316.565,215.938 316.5,215.5C 318.461,220.101 317.128,223.601 312.5,226C 264.833,226.667 217.167,226.667 169.5,226C 165.723,223.045 164.557,219.212 166,214.5C 167.451,212.536 169.284,211.203 171.5,210.5 Z"/></g>
<g><path style="opacity:1" fill="#30353a" d="M 98.5,69.5 C 98.2914,70.9217 97.7914,72.255 97,73.5C 96.6667,175.5 96.3333,277.5 96,379.5C 93.4093,383.048 89.9093,384.382 85.5,383.5C 87.7397,382.736 90.0731,381.902 92.5,381C 93.1258,380.25 93.6258,379.416 94,378.5C 94.3333,276.833 94.6667,175.167 95,73.5C 95.6667,72.1667 96.3333,70.8333 97,69.5C 97.69,68.2617 98.19,68.2617 98.5,69.5 Z"/></g>
<g><path style="opacity:1" fill="#2e3337" d="M 424.5,262.5 C 422.821,262.108 421.154,261.608 419.5,261C 336.833,260.333 254.167,260.333 171.5,261C 169.696,262.812 168.696,262.646 168.5,260.5C 169.289,260.217 169.956,259.717 170.5,259C 253.833,258.333 337.167,258.333 420.5,259C 422.324,259.66 423.657,260.827 424.5,262.5 Z"/></g>
<g><path style="opacity:1" fill="#283036" d="M 82.5,381.5 C 81.7784,381.082 81.2784,380.416 81,379.5C 80.3333,276.167 80.3333,172.833 81,69.5C 81.2321,68.2625 81.7321,67.2625 82.5,66.5C 83.1174,66.3893 83.6174,66.056 84,65.5C 84.3247,67.5527 83.9913,69.5527 83,71.5C 82.506,175.04 82.3393,278.374 82.5,381.5 Z"/></g>
<g><path style="opacity:1" fill="#333b41" d="M 168.5,260.5 C 168.696,262.646 169.696,262.812 171.5,261C 254.167,260.333 336.833,260.333 419.5,261C 421.154,261.608 422.821,262.108 424.5,262.5C 427.454,266.739 426.787,270.405 422.5,273.5C 339.054,273.656 255.387,273.49 171.5,273C 170.069,272.535 168.903,271.701 168,270.5C 167.172,261.19 166.672,261.19 166.5,270.5C 165.366,268.034 165.199,265.367 166,262.5C 166.708,261.619 167.542,260.953 168.5,260.5 Z"/></g>
<g><path style="opacity:1" fill="#32383c" d="M 422.5,273.5 C 421.711,273.783 421.044,274.283 420.5,275C 337.167,275.667 253.833,275.667 170.5,275C 168.959,273.629 167.625,272.129 166.5,270.5C 166.672,261.19 167.172,261.19 168,270.5C 168.903,271.701 170.069,272.535 171.5,273C 255.387,273.49 339.054,273.656 422.5,273.5 Z"/></g>
<g><path style="opacity:1" fill="#3c444a" d="M 425.5,317.5 C 424.736,315.26 423.902,312.927 423,310.5C 422.25,309.874 421.416,309.374 420.5,309C 337.167,308.667 253.833,308.333 170.5,308C 171.056,307.617 171.389,307.117 171.5,306.5C 253.999,305.334 336.666,305.168 419.5,306C 424.886,308.274 426.886,312.108 425.5,317.5 Z"/></g>
<g><path style="opacity:1" fill="#323b41" d="M 171.5,306.5 C 171.389,307.117 171.056,307.617 170.5,308C 253.833,308.333 337.167,308.667 420.5,309C 421.416,309.374 422.25,309.874 423,310.5C 423.902,312.927 424.736,315.26 425.5,317.5C 424.647,320.518 422.647,322.351 419.5,323C 336.833,323.667 254.167,323.667 171.5,323C 166.268,320.367 164.435,316.201 166,310.5C 167.451,308.536 169.284,307.203 171.5,306.5 Z"/></g>
<g><path style="opacity:1" fill="#31383e" d="M 404.5,462.5 C 405.833,461.833 405.833,461.167 404.5,460.5C 404.918,459.778 405.584,459.278 406.5,459C 385,458.833 363.5,458.667 342,458.5C 320.156,458.5 298.656,459.167 277.5,460.5C 276.5,460.5 275.5,460.5 274.5,460.5C 268.232,455.94 267.898,450.94 273.5,445.5C 317.172,445.833 360.838,445.5 404.5,444.5C 404.376,443.893 404.043,443.56 403.5,443.5C 390.896,430.395 378.063,417.395 365,404.5C 362.46,399.903 363.293,396.07 367.5,393C 370.964,392.183 374.298,392.517 377.5,394C 394.971,412.472 412.805,430.638 431,448.5C 432.967,451.998 432.633,455.332 430,458.5C 411.471,476.695 393.305,495.195 375.5,514C 367.538,515.038 363.704,511.538 364,503.5C 377.729,489.938 391.229,476.272 404.5,462.5 Z"/></g>
<g><path style="opacity:1" fill="#333b41" d="M 251.5,416.5 C 251.5,416.833 251.5,417.167 251.5,417.5C 251.813,449.65 251.479,481.983 250.5,514.5C 250.667,515.167 250.833,515.833 251,516.5C 251.278,515.584 251.778,514.918 252.5,514.5C 249.095,527.401 240.762,534.901 227.5,537C 168.167,537.667 108.833,537.667 49.5,537C 39.135,533.966 31.9684,527.466 28,517.5C 26.8616,500.55 26.3616,483.55 26.5,466.5C 26.6667,450.833 26.8333,435.167 27,419.5C 30.4325,408.401 37.5991,400.901 48.5,397C 109.167,396.333 169.833,396.333 230.5,397C 240.258,400.593 247.258,407.093 251.5,416.5 Z"/></g>
<g><path style="opacity:1" fill="#212b31" d="M 236.5,421.5 C 234.561,417.064 231.228,414.231 226.5,413C 167.459,412.175 108.459,412.341 49.5,413.5C 50.6808,411.933 52.3474,411.099 54.5,411C 111.167,410.333 167.833,410.333 224.5,411C 230.642,411.734 234.976,414.9 237.5,420.5C 237.376,421.107 237.043,421.44 236.5,421.5 Z"/></g>
<g><path style="opacity:1" fill="#f3f3f3" d="M 236.5,421.5 C 237.658,450.761 237.824,480.095 237,509.5C 235.845,515.149 232.678,519.149 227.5,521.5C 168.833,521.5 110.167,521.5 51.5,521.5C 46.669,519.335 43.669,515.669 42.5,510.5C 42.198,480.475 42.5313,450.475 43.5,420.5C 44.1237,418.246 45.457,416.579 47.5,415.5C 48.5,415.167 49.1667,414.5 49.5,413.5C 108.459,412.341 167.459,412.175 226.5,413C 231.228,414.231 234.561,417.064 236.5,421.5 Z"/></g>
<g><path style="opacity:1" fill="#323a40" d="M 128.5,435.5 C 131.897,436.198 135.397,436.865 139,437.5C 139.833,458.841 139.666,480.174 138.5,501.5C 135.634,502.795 132.801,502.795 130,501.5C 129.667,487.167 129.333,472.833 129,458.5C 128.5,473.163 128.333,487.83 128.5,502.5C 127.833,502.5 127.5,502.167 127.5,501.5C 127.667,487.163 127.5,472.829 127,458.5C 126.283,459.044 125.783,459.711 125.5,460.5C 121.344,466.805 117.177,473.138 113,479.5C 107.933,485.088 103.267,484.755 99,478.5C 95.3037,472.656 91.4703,466.989 87.5,461.5C 87.2172,460.711 86.7172,460.044 86,459.5C 85.5001,473.496 85.3334,487.496 85.5,501.5C 84.7095,502.401 83.7095,503.068 82.5,503.5C 79.2176,503.019 76.0509,502.019 73,500.5C 72.8319,479.663 72.3319,458.996 71.5,438.5C 71.4142,437.504 71.7476,436.671 72.5,436C 78.1642,434.841 83.4976,435.508 88.5,438C 94.3033,447.302 100.303,456.468 106.5,465.5C 112.333,456.5 118.167,447.5 124,438.5C 125.129,436.859 126.629,435.859 128.5,435.5 Z"/></g>
<g><path style="opacity:1" fill="#30383e" d="M 162.5,435.5 C 178.078,435.176 193.578,435.509 209,436.5C 209.837,440.295 209.504,443.961 208,447.5C 198.46,461.411 189.293,475.578 180.5,490C 190.167,490.333 199.833,490.667 209.5,491C 210.733,492.698 211.4,494.698 211.5,497C 211.464,499.094 211.131,501.094 210.5,503C 195.167,503.667 179.833,503.667 164.5,503C 161.843,498.181 162.009,493.347 165,488.5C 173.957,475.42 182.791,462.253 191.5,449C 182.167,448.667 172.833,448.333 163.5,448C 161.162,444.078 160.828,439.911 162.5,435.5 Z"/></g>
<g><path style="opacity:1" fill="#1f282e" d="M 47.5,415.5 C 45.457,416.579 44.1237,418.246 43.5,420.5C 42.7321,421.263 42.2321,422.263 42,423.5C 41.5,452.498 41.3334,481.498 41.5,510.5C 40.3381,481.905 40.1714,452.572 41,422.5C 42.0938,419.308 43.9272,416.642 46.5,414.5C 47.1067,414.624 47.44,414.957 47.5,415.5 Z"/></g>
<g><path style="opacity:1" fill="#d2d3d4" d="M 403.5,443.5 C 404.043,443.56 404.376,443.893 404.5,444.5C 360.838,445.5 317.172,445.833 273.5,445.5C 316.833,444.833 360.167,444.167 403.5,443.5 Z"/></g>
<g><path style="opacity:1" fill="#66676a" d="M 251.5,416.5 C 252.268,417.263 252.768,418.263 253,419.5C 253.831,451.336 253.664,483.003 252.5,514.5C 252.812,482.135 252.478,449.802 251.5,417.5C 251.5,417.167 251.5,416.833 251.5,416.5 Z"/></g>
<g><path style="opacity:1" fill="#a7aaad" d="M 43.5,420.5 C 42.5313,450.475 42.198,480.475 42.5,510.5C 42.1667,510.5 41.8333,510.5 41.5,510.5C 41.3334,481.498 41.5,452.498 42,423.5C 42.2321,422.263 42.7321,421.263 43.5,420.5 Z"/></g>
<g><path style="opacity:1" fill="#212a31" d="M 404.5,460.5 C 362.167,460.5 319.833,460.5 277.5,460.5C 298.656,459.167 320.156,458.5 342,458.5C 363.5,458.667 385,458.833 406.5,459C 405.584,459.278 404.918,459.778 404.5,460.5 Z"/></g>
<g><path style="opacity:1" fill="#c8cacb" d="M 274.5,460.5 C 275.5,460.5 276.5,460.5 277.5,460.5C 319.833,460.5 362.167,460.5 404.5,460.5C 405.833,461.167 405.833,461.833 404.5,462.5C 361.167,461.833 317.833,461.167 274.5,460.5 Z"/></g>
<g><path style="opacity:1" fill="#1e242a" d="M 251.5,417.5 C 252.478,449.802 252.812,482.135 252.5,514.5C 251.778,514.918 251.278,515.584 251,516.5C 250.833,515.833 250.667,515.167 250.5,514.5C 251.479,481.983 251.813,449.65 251.5,417.5 Z"/></g>
<g><path style="opacity:1" fill="#9a9ea0" d="M 127.5,501.5 C 126.833,487.833 126.167,474.167 125.5,460.5C 125.783,459.711 126.283,459.044 127,458.5C 127.5,472.829 127.667,487.163 127.5,501.5 Z"/></g>
<g><path style="opacity:1" fill="#a8abad" d="M 87.5,461.5 C 86.8333,474.833 86.1667,488.167 85.5,501.5C 85.3334,487.496 85.5001,473.496 86,459.5C 86.7172,460.044 87.2172,460.711 87.5,461.5 Z"/></g>
<g><path style="opacity:1" fill="#181b1f" d="M 71.5,438.5 C 72.3319,458.996 72.8319,479.663 73,500.5C 76.0509,502.019 79.2176,503.019 82.5,503.5C 79.4816,503.665 76.4816,503.498 73.5,503C 73,502.5 72.5,502 72,501.5C 71.5,480.503 71.3334,459.503 71.5,438.5 Z"/></g>
<g><path style="opacity:1" fill="#2e373c" d="M 128.5,435.5 C 132.182,435.335 135.848,435.501 139.5,436C 140,436.5 140.5,437 141,437.5C 141.667,458.833 141.667,480.167 141,501.5C 139.004,503.059 136.671,503.726 134,503.5C 131.967,503.494 130.134,503.161 128.5,502.5C 128.333,487.83 128.5,473.163 129,458.5C 129.333,472.833 129.667,487.167 130,501.5C 132.801,502.795 135.634,502.795 138.5,501.5C 139.666,480.174 139.833,458.841 139,437.5C 135.397,436.865 131.897,436.198 128.5,435.5 Z"/></g>
<g><path style="opacity:1" fill="#252e34" d="M 51.5,521.5 C 110.167,521.5 168.833,521.5 227.5,521.5C 227.938,521.435 228.272,521.601 228.5,522C 227.833,522.333 227.167,522.667 226.5,523C 168.833,523.667 111.167,523.667 53.5,523C 51.6573,522.841 50.9907,522.341 51.5,521.5 Z"/></g>
<g><path style="opacity:1" fill="#192229" d="M 99.5,588.5 C 101.869,592.195 105.203,594.695 109.5,596C 231.833,596.5 354.166,596.667 476.5,596.5C 354.57,597.665 231.903,597.832 108.5,597C 104.76,595.71 101.593,593.543 99,590.5C 98.3083,589.563 98.475,588.897 99.5,588.5 Z"/></g>
</svg>
