<svg width="117" height="117" viewBox="0 0 117 117" fill="none" xmlns="http://www.w3.org/2000/svg">
<path fill-rule="evenodd" clip-rule="evenodd" d="M111.536 116.387C76.7698 116.93 41.981 117.112 7.16954 116.934C4.0432 116.539 1.85752 114.9 0.612502 112.016C0.0700712 77.2502 -0.112105 42.4612 0.0660824 7.64989C0.450161 3.87861 2.45372 1.41972 6.0767 0.273224C40.6833 -0.0910746 75.2901 -0.0910746 109.897 0.273224C113.176 1.00302 115.453 2.91549 116.727 6.01063C117.091 40.9815 117.091 75.9524 116.727 110.923C115.651 113.365 113.921 115.186 111.536 116.387Z" fill="#1350F0"/>
<path fill-rule="evenodd" clip-rule="evenodd" d="M91.3183 11.4749C101.159 11.7534 104.893 16.6711 102.52 26.2282C97.9354 31.8418 92.6537 32.5704 86.6737 28.4139C82.1291 20.9874 83.6777 15.3411 91.3183 11.4749Z" fill="#1C54F0"/>
<path fill-rule="evenodd" clip-rule="evenodd" d="M92.4111 15.2998C93.322 15.2998 94.2323 15.2998 95.1432 15.2998C95.1432 16.0283 95.1432 16.7569 95.1432 17.4855C96.7825 17.4855 98.4217 17.4855 100.061 17.4855C100.061 18.214 100.061 18.9426 100.061 19.6712C99.3107 19.5855 98.5818 19.6766 97.8753 19.9444C99.7533 24.1362 98.3873 26.413 93.7771 26.7746C89.6369 26.3624 88.2709 24.1767 89.679 20.2176C89.0293 19.7101 88.3009 19.528 87.4933 19.6712C87.4933 18.9426 87.4933 18.214 87.4933 17.4855C89.1326 17.4855 90.7718 17.4855 92.4111 17.4855C92.4111 16.7569 92.4111 16.0283 92.4111 15.2998Z" fill="#EAEFFD"/>
<path fill-rule="evenodd" clip-rule="evenodd" d="M92.4111 19.6712C95.9568 19.4834 97.0496 21.0316 95.6896 24.3158C91.4543 24.9121 90.3615 23.364 92.4111 19.6712Z" fill="#1B53F0"/>
<path fill-rule="evenodd" clip-rule="evenodd" d="M21.3765 44.8064C30.4407 43.9545 35.7228 47.9614 37.2226 56.8276C35.7733 66.2129 30.3091 70.1291 20.83 68.5756C13.5401 65.1949 11.0813 59.6395 13.4534 51.9098C15.1681 48.4624 17.8092 46.0948 21.3765 44.8064Z" fill="#F6F7FE"/>
<path fill-rule="evenodd" clip-rule="evenodd" d="M44.8726 49.7243C44.3529 50.4997 44.1709 51.41 44.3261 52.4564C46.8025 52.6301 49.1707 52.4482 51.4296 51.91C51.1695 46.4851 53.7191 44.2082 59.0795 45.0797C59.5838 46.195 59.7658 47.379 59.6259 48.6314C56.3474 47.9031 55.0726 49.1779 55.801 52.4564C59.4439 52.4564 63.0864 52.4564 66.7294 52.4564C66.7294 57.7386 66.7294 63.0203 66.7294 68.3026C65.4546 68.3026 64.1792 68.3026 62.9044 68.3026C63.082 64.0121 62.9 59.8232 62.358 55.7349C60.1723 55.7349 57.9866 55.7349 55.801 55.7349C55.2589 59.8232 55.0769 64.0121 55.2545 68.3026C53.9797 68.3026 52.7044 68.3026 51.4296 68.3026C51.4296 64.2957 51.4296 60.2882 51.4296 56.2813C49.1707 55.7431 46.8025 55.5611 44.3261 55.7349C44.3261 59.9243 44.3261 64.1132 44.3261 68.3026C43.0513 68.3026 41.7762 68.3026 40.5012 68.3026C40.5012 61.9275 40.5012 55.5529 40.5012 49.1779C41.9652 45.0322 44.7884 43.7574 48.9707 45.3529C49.2412 46.431 49.3324 47.5239 49.2439 48.6314C47.956 48.5424 46.6812 48.6331 45.419 48.9047C45.1152 49.1139 44.9332 49.3871 44.8726 49.7243Z" fill="#F9FAFE"/>
<path fill-rule="evenodd" clip-rule="evenodd" d="M63.4508 44.8064C66.8949 45.0381 67.8052 46.5861 66.1829 49.451C61.652 49.9373 60.7417 48.3893 63.4508 44.8064Z" fill="#EBEFFD"/>
<path fill-rule="evenodd" clip-rule="evenodd" d="M22.4693 48.6313C30.9604 49.0051 33.9657 53.194 31.4853 61.199C28.7621 64.9485 25.2104 65.9501 20.8301 64.2043C16.5485 60.4531 15.911 56.1725 18.9176 51.3634C20.1884 50.5078 21.3722 49.5974 22.4693 48.6313Z" fill="#1C53F0"/>
<path fill-rule="evenodd" clip-rule="evenodd" d="M44.8725 49.7244C44.8725 50.4527 44.8725 51.1817 44.8725 51.91C47.0582 51.91 49.2439 51.91 51.4296 51.91C49.1707 52.4483 46.8025 52.6302 44.3261 52.4565C44.1709 51.4101 44.3529 50.4997 44.8725 49.7244Z" fill="#5781F3"/>
<path fill-rule="evenodd" clip-rule="evenodd" d="M82.5755 64.4774C83.1006 65.4418 83.2831 66.5346 83.122 67.7559C74.2399 70.6301 69.9598 67.3515 70.2811 57.9203C73.217 52.0846 77.5884 50.6273 83.3952 53.549C84.4055 57.0668 83.5859 57.8865 80.9363 56.0079C75.654 55.2806 73.5596 57.5575 74.6524 62.8381C76.8234 65.7309 79.4642 66.2773 82.5755 64.4774Z" fill="#F3F6FE"/>
<path fill-rule="evenodd" clip-rule="evenodd" d="M100.607 63.931C101.133 64.8955 101.315 65.9883 101.154 67.2095C99.4392 68.5543 97.4354 69.1007 95.1432 68.8488C88.1141 68.2712 85.2913 64.4463 86.6737 57.374C90.5571 51.0426 95.2929 50.3142 100.881 55.1883C102.046 57.2144 102.501 59.4001 102.247 61.7453C98.4217 61.7453 94.5968 61.7453 90.7719 61.7453C91.7658 65.3774 94.1334 66.5615 97.8753 65.2971C98.8004 64.8343 99.7113 64.3791 100.607 63.931Z" fill="#F4F7FE"/>
<path fill-rule="evenodd" clip-rule="evenodd" d="M97.8753 57.9204C95.6164 58.4586 93.2482 58.6406 90.7718 58.4668C91.7576 55.2599 93.7613 54.4402 96.7825 56.0079C97.5054 56.4538 97.8693 57.0915 97.8753 57.9204Z" fill="#2657F0"/>
<path fill-rule="evenodd" clip-rule="evenodd" d="M40.5012 49.1777C40.5012 55.5528 40.5012 61.9274 40.5012 68.3024C41.7761 68.3024 43.0513 68.3024 44.3261 68.3024C44.3261 64.113 44.3261 59.9242 44.3261 55.7348C46.8025 55.561 49.1707 55.743 51.4296 56.2812C49.2439 56.2812 47.0582 56.2812 44.8725 56.2812C44.8725 60.4706 44.8725 64.6595 44.8725 68.8489C43.2333 68.8489 41.594 68.8489 39.9548 68.8489C39.7753 62.1946 39.9574 55.6375 40.5012 49.1777Z" fill="#7297F5"/>
<path fill-rule="evenodd" clip-rule="evenodd" d="M55.801 55.7349C55.801 60.1062 55.801 64.4776 55.801 68.8489C54.2245 69.0162 52.7672 68.8342 51.4296 68.3025C52.7044 68.3025 53.9797 68.3025 55.2545 68.3025C55.077 64.012 55.2589 59.8232 55.801 55.7349Z" fill="#B2C6F9"/>
<path fill-rule="evenodd" clip-rule="evenodd" d="M62.358 55.7349C62.9001 59.8232 63.082 64.012 62.9044 68.3025C64.1792 68.3025 65.4546 68.3025 66.7294 68.3025C65.3917 68.8342 63.9344 69.0162 62.358 68.8489C62.358 64.4776 62.358 60.1062 62.358 55.7349Z" fill="#B3C7F9"/>
<path fill-rule="evenodd" clip-rule="evenodd" d="M97.8753 57.9204C98.172 57.9532 98.354 58.1352 98.4217 58.4668C95.7891 59.1837 93.2389 59.1837 90.7718 58.4668C93.2482 58.6406 95.6164 58.4586 97.8753 57.9204Z" fill="#638CF4"/>
<path fill-rule="evenodd" clip-rule="evenodd" d="M100.607 63.9312C100.64 63.6345 100.822 63.4525 101.154 63.3848C101.863 64.7361 101.863 66.0114 101.154 67.2097C101.315 65.9885 101.133 64.8956 100.607 63.9312Z" fill="#5481F3"/>
<path fill-rule="evenodd" clip-rule="evenodd" d="M82.5755 64.4776C82.6083 64.1809 82.7903 63.9989 83.122 63.9312C83.8307 65.2824 83.8307 66.5578 83.122 67.7561C83.2832 66.5348 83.1007 65.442 82.5755 64.4776Z" fill="#A7BEF9"/>
<rect x="10.3019" y="37.5283" width="100.541" height="38.2494" fill="#1350F0"/>
<path d="M35.1534 61.3636C35.1534 63.0092 34.8452 64.4187 34.2287 65.592C33.6172 66.7603 32.782 67.6552 31.723 68.2766C30.669 68.8981 29.4734 69.2088 28.136 69.2088C26.7987 69.2088 25.6005 68.8981 24.5415 68.2766C23.4876 67.6502 22.6523 66.7528 22.0359 65.5845C21.4244 64.4112 21.1186 63.0043 21.1186 61.3636C21.1186 59.718 21.4244 58.3111 22.0359 57.1428C22.6523 55.9695 23.4876 55.0721 24.5415 54.4506C25.6005 53.8292 26.7987 53.5185 28.136 53.5185C29.4734 53.5185 30.669 53.8292 31.723 54.4506C32.782 55.0721 33.6172 55.9695 34.2287 57.1428C34.8452 58.3111 35.1534 59.718 35.1534 61.3636ZM32.3718 61.3636C32.3718 60.2053 32.1903 59.2283 31.8274 58.4329C31.4695 57.6325 30.9723 57.0284 30.3359 56.6207C29.6996 56.2081 28.9663 56.0018 28.136 56.0018C27.3058 56.0018 26.5724 56.2081 25.9361 56.6207C25.2997 57.0284 24.8001 57.6325 24.4371 58.4329C24.0792 59.2283 23.9002 60.2053 23.9002 61.3636C23.9002 62.522 24.0792 63.5014 24.4371 64.3018C24.8001 65.0973 25.2997 65.7013 25.9361 66.114C26.5724 66.5217 27.3058 66.7255 28.136 66.7255C28.9663 66.7255 29.6996 66.5217 30.3359 66.114C30.9723 65.7013 31.4695 65.0973 31.8274 64.3018C32.1903 63.5014 32.3718 62.522 32.3718 61.3636ZM46.1816 57.5455V59.6335H39.4103V57.5455H46.1816ZM41.1031 69V56.4641C41.1031 55.6935 41.2622 55.0522 41.5804 54.5401C41.9036 54.0281 42.3361 53.6452 42.878 53.3917C43.4199 53.1381 44.0215 53.0114 44.6827 53.0114C45.15 53.0114 45.5651 53.0486 45.9281 53.1232C46.291 53.1978 46.5595 53.2649 46.7335 53.3246L46.1965 55.4126C46.0822 55.3778 45.938 55.343 45.764 55.3082C45.59 55.2685 45.3961 55.2486 45.1823 55.2486C44.6802 55.2486 44.3247 55.3704 44.1159 55.614C43.9121 55.8526 43.8102 56.1957 43.8102 56.6431V69H41.1031ZM56.8276 57.5455V59.6335H50.0563V57.5455H56.8276ZM51.7492 69V56.4641C51.7492 55.6935 51.9082 55.0522 52.2264 54.5401C52.5496 54.0281 52.9821 53.6452 53.524 53.3917C54.0659 53.1381 54.6675 53.0114 55.3287 53.0114C55.796 53.0114 56.2112 53.0486 56.5741 53.1232C56.937 53.1978 57.2055 53.2649 57.3795 53.3246L56.8425 55.4126C56.7282 55.3778 56.584 55.343 56.41 55.3082C56.236 55.2685 56.0421 55.2486 55.8283 55.2486C55.3262 55.2486 54.9707 55.3704 54.7619 55.614C54.5581 55.8526 54.4562 56.1957 54.4562 56.6431V69H51.7492ZM61.6718 69V57.5455H64.3714V69H61.6718ZM63.029 55.9197C62.6015 55.9197 62.2336 55.7781 61.9254 55.4947C61.6171 55.2063 61.463 54.8608 61.463 54.4581C61.463 54.0504 61.6171 53.7049 61.9254 53.4215C62.2336 53.1332 62.6015 52.989 63.029 52.989C63.4616 52.989 63.8295 53.1332 64.1327 53.4215C64.441 53.7049 64.5951 54.0504 64.5951 54.4581C64.5951 54.8608 64.441 55.2063 64.1327 55.4947C63.8295 55.7781 63.4616 55.9197 63.029 55.9197ZM74.8738 69.2237C73.7304 69.2237 72.7485 68.9727 71.9282 68.4705C71.1128 67.9684 70.4839 67.2749 70.0414 66.3899C69.6039 65.5 69.3852 64.4759 69.3852 63.3175C69.3852 62.1541 69.6089 61.1275 70.0564 60.2376C70.5038 59.3427 71.1352 58.6467 71.9505 58.1495C72.7709 57.6474 73.7403 57.3963 74.8589 57.3963C75.7886 57.3963 76.6114 57.5678 77.3273 57.9109C78.0482 58.2489 78.6224 58.7287 79.05 59.3501C79.4775 59.9666 79.7211 60.6875 79.7808 61.5128H77.2005C77.0961 60.9609 76.8476 60.5011 76.4548 60.1332C76.067 59.7603 75.5475 59.5739 74.8962 59.5739C74.3444 59.5739 73.8596 59.723 73.442 60.0213C73.0244 60.3146 72.6988 60.7372 72.4651 61.2891C72.2364 61.8409 72.1221 62.5021 72.1221 63.2727C72.1221 64.0533 72.2364 64.7244 72.4651 65.2862C72.6938 65.843 73.0145 66.2731 73.4271 66.5763C73.8447 66.8746 74.3344 67.0238 74.8962 67.0238C75.2939 67.0238 75.6494 66.9492 75.9626 66.8001C76.2808 66.646 76.5468 66.4247 76.7606 66.1364C76.9743 65.848 77.121 65.4975 77.2005 65.0849H79.7808C79.7162 65.8952 79.4775 66.6136 79.0649 67.2401C78.6522 67.8615 78.0905 68.3487 77.3795 68.7017C76.6686 69.0497 75.8334 69.2237 74.8738 69.2237ZM89.7985 69.2237C88.6501 69.2237 87.6583 68.9851 86.823 68.5078C85.9928 68.0256 85.3539 67.3445 84.9065 66.4645C84.459 65.5795 84.2353 64.538 84.2353 63.3398C84.2353 62.1616 84.459 61.1275 84.9065 60.2376C85.3589 59.3427 85.9903 58.6467 86.8007 58.1495C87.611 57.6474 88.5631 57.3963 89.6568 57.3963C90.3628 57.3963 91.029 57.5107 91.6554 57.7393C92.2868 57.9631 92.8436 58.3111 93.3259 58.7834C93.8131 59.2557 94.1959 59.8572 94.4743 60.5881C94.7527 61.3139 94.8919 62.179 94.8919 63.1832V64.011H85.5031V62.1914H92.3042C92.2992 61.6744 92.1874 61.2145 91.9686 60.8118C91.7499 60.4041 91.4441 60.0835 91.0514 59.8498C90.6636 59.6161 90.2112 59.4993 89.6941 59.4993C89.1423 59.4993 88.6575 59.6335 88.2399 59.902C87.8223 60.1655 87.4967 60.5135 87.263 60.946C87.0343 61.3736 86.9175 61.8434 86.9125 62.3555V63.9439C86.9125 64.6101 87.0343 65.1818 87.2779 65.6591C87.5215 66.1314 87.8621 66.4943 88.2996 66.7479C88.7371 66.9964 89.2492 67.1207 89.8358 67.1207C90.2286 67.1207 90.584 67.0661 90.9022 66.9567C91.2204 66.8423 91.4963 66.6758 91.73 66.457C91.9637 66.2383 92.1401 65.9673 92.2595 65.6442L94.7801 65.9276C94.621 66.5937 94.3177 67.1754 93.8703 67.6726C93.4278 68.1648 92.861 68.5476 92.17 68.821C91.4789 69.0895 90.6884 69.2237 89.7985 69.2237Z" fill="white"/>
<circle cx="92.9843" cy="20.764" r="11.1141" fill="#1350F0" stroke="white" stroke-width="4"/>
<path d="M89.198 18.642H97.752V20.154H89.198V18.642ZM93.496 20.826C94.1493 20.826 94.7327 20.9333 95.246 21.148C95.7593 21.3627 96.1607 21.6613 96.45 22.044C96.7393 22.4267 96.884 22.8653 96.884 23.36C96.884 23.8547 96.7393 24.2933 96.45 24.676C96.1607 25.0587 95.7593 25.3573 95.246 25.572C94.7327 25.7773 94.1493 25.88 93.496 25.88C92.852 25.88 92.2687 25.7773 91.746 25.572C91.2327 25.3573 90.8267 25.0587 90.528 24.676C90.2387 24.2933 90.094 23.8547 90.094 23.36C90.094 22.8653 90.2387 22.4267 90.528 22.044C90.8267 21.6613 91.2327 21.3627 91.746 21.148C92.2593 20.9333 92.8427 20.826 93.496 20.826ZM93.496 22.38C93.216 22.38 92.9593 22.4173 92.726 22.492C92.502 22.5667 92.3247 22.674 92.194 22.814C92.0633 22.954 91.998 23.136 91.998 23.36C91.998 23.5747 92.0633 23.7567 92.194 23.906C92.3247 24.046 92.502 24.1533 92.726 24.228C92.9593 24.2933 93.216 24.326 93.496 24.326C93.7853 24.326 94.042 24.2933 94.266 24.228C94.49 24.1533 94.6627 24.046 94.784 23.906C94.9147 23.7567 94.98 23.5747 94.98 23.36C94.98 23.136 94.9147 22.954 94.784 22.814C94.6627 22.674 94.49 22.5667 94.266 22.492C94.042 22.4173 93.7853 22.38 93.496 22.38ZM92.572 17.046H94.434V19.972H92.572V17.046Z" fill="white"/>
</svg>
