<?xml version="1.0" encoding="UTF-8"?>
<!DOCTYPE svg PUBLIC "-//W3C//DTD SVG 1.1//EN" "http://www.w3.org/Graphics/SVG/1.1/DTD/svg11.dtd">
<svg xmlns="http://www.w3.org/2000/svg" version="1.1" width="263px" height="280px" style="shape-rendering:geometricPrecision; text-rendering:geometricPrecision; image-rendering:optimizeQuality; fill-rule:evenodd; clip-rule:evenodd" xmlns:xlink="http://www.w3.org/1999/xlink">
<g><path style="opacity:1" fill="#f6f6f6" d="M -0.5,-0.5 C 87.1667,-0.5 174.833,-0.5 262.5,-0.5C 262.5,92.8333 262.5,186.167 262.5,279.5C 225.5,279.5 188.5,279.5 151.5,279.5C 151.389,278.883 151.056,278.383 150.5,278C 145.511,277.501 140.511,277.334 135.5,277.5C 135.5,272.5 135.5,267.5 135.5,262.5C 140.833,262.5 146.167,262.5 151.5,262.5C 151.5,267.5 151.5,272.5 151.5,277.5C 156.5,277.5 161.5,277.5 166.5,277.5C 166.5,272.5 166.5,267.5 166.5,262.5C 171.833,262.5 177.167,262.5 182.5,262.5C 182.5,259.167 182.5,255.833 182.5,252.5C 197.538,253.15 212.205,252.483 226.5,250.5C 230.866,248.301 234.032,244.968 236,240.5C 236.667,176.5 236.667,112.5 236,48.5C 233.668,42.8356 229.501,39.3356 223.5,38C 160.167,37.3333 96.8333,37.3333 33.5,38C 26.8696,40.0982 23.2029,44.5982 22.5,51.5C 21.3347,114.665 21.168,177.999 22,241.5C 22.3826,242.056 22.8826,242.389 23.5,242.5C 25.7785,247.777 29.7785,250.777 35.5,251.5C 47.6554,252.495 59.9887,252.829 72.5,252.5C 72.7839,255.777 72.4505,258.943 71.5,262C 66.8452,262.499 62.1785,262.666 57.5,262.5C 57.5,267.5 57.5,272.5 57.5,277.5C 62.6186,276.897 67.2853,277.564 71.5,279.5C 47.5,279.5 23.5,279.5 -0.5,279.5C -0.5,186.167 -0.5,92.8333 -0.5,-0.5 Z"/></g>
<g><path style="opacity:1" fill="#1350f0" d="M 226.5,250.5 C 162.875,251.493 99.2082,251.826 35.5,251.5C 29.7785,250.777 25.7785,247.777 23.5,242.5C 22.5073,178.875 22.1739,115.208 22.5,51.5C 23.2029,44.5982 26.8696,40.0982 33.5,38C 96.8333,37.3333 160.167,37.3333 223.5,38C 229.501,39.3356 233.668,42.8356 236,48.5C 236.667,112.5 236.667,176.5 236,240.5C 234.032,244.968 230.866,248.301 226.5,250.5 Z"/></g>
<g><path style="opacity:1" fill="#ebeffd" d="M 187.5,54.5 C 209.154,53.3133 218.32,63.3133 215,84.5C 209.271,96.6119 199.771,101.112 186.5,98C 175.274,92.7176 170.441,83.8843 172,71.5C 174.962,63.7094 180.129,58.0427 187.5,54.5 Z"/></g>
<g><path style="opacity:1" fill="#1c54f0" d="M 189.5,58.5 C 207.509,59.0097 214.343,68.0097 210,85.5C 201.61,95.7735 191.944,97.1068 181,89.5C 172.683,75.9089 175.517,65.5756 189.5,58.5 Z"/></g>
<g><path style="opacity:1" fill="#eaeffd" d="M 191.5,65.5 C 193.167,65.5 194.833,65.5 196.5,65.5C 196.5,66.8333 196.5,68.1667 196.5,69.5C 199.5,69.5 202.5,69.5 205.5,69.5C 205.5,70.8333 205.5,72.1667 205.5,73.5C 204.127,73.3433 202.793,73.51 201.5,74C 204.937,81.6714 202.437,85.8381 194,86.5C 186.423,85.7455 183.923,81.7455 186.5,74.5C 185.311,73.5713 183.978,73.238 182.5,73.5C 182.5,72.1667 182.5,70.8333 182.5,69.5C 185.5,69.5 188.5,69.5 191.5,69.5C 191.5,68.1667 191.5,66.8333 191.5,65.5 Z"/></g>
<g><path style="opacity:1" fill="#c8d4f5" d="M 22.5,51.5 C 22.1739,115.208 22.5073,178.875 23.5,242.5C 22.8826,242.389 22.3826,242.056 22,241.5C 21.168,177.999 21.3347,114.665 22.5,51.5 Z"/></g>
<g><path style="opacity:1" fill="#1b53f0" d="M 191.5,73.5 C 197.989,73.1563 199.989,75.9896 197.5,82C 189.749,83.0913 187.749,80.258 191.5,73.5 Z"/></g>
<g><path style="opacity:1" fill="#f6f7fe" d="M 61.5,119.5 C 78.0884,117.941 87.7551,125.274 90.5,141.5C 87.8476,158.676 77.8476,165.843 60.5,163C 47.1588,156.813 42.6588,146.646 47,132.5C 50.1382,126.191 54.9715,121.858 61.5,119.5 Z"/></g>
<g><path style="opacity:1" fill="#f9fafe" d="M 104.5,128.5 C 103.549,129.919 103.216,131.585 103.5,133.5C 108.032,133.818 112.366,133.485 116.5,132.5C 116.024,122.572 120.69,118.405 130.5,120C 131.423,122.041 131.756,124.208 131.5,126.5C 125.5,125.167 123.167,127.5 124.5,133.5C 131.167,133.5 137.833,133.5 144.5,133.5C 144.5,143.167 144.5,152.833 144.5,162.5C 142.167,162.5 139.833,162.5 137.5,162.5C 137.825,154.648 137.492,146.982 136.5,139.5C 132.5,139.5 128.5,139.5 124.5,139.5C 123.508,146.982 123.175,154.648 123.5,162.5C 121.167,162.5 118.833,162.5 116.5,162.5C 116.5,155.167 116.5,147.833 116.5,140.5C 112.366,139.515 108.032,139.182 103.5,139.5C 103.5,147.167 103.5,154.833 103.5,162.5C 101.167,162.5 98.8333,162.5 96.5,162.5C 96.5,150.833 96.5,139.167 96.5,127.5C 99.1792,119.913 104.346,117.58 112,120.5C 112.495,122.473 112.662,124.473 112.5,126.5C 110.143,126.337 107.81,126.503 105.5,127C 104.944,127.383 104.611,127.883 104.5,128.5 Z"/></g>
<g><path style="opacity:1" fill="#ebeffd" d="M 138.5,119.5 C 144.803,119.924 146.469,122.757 143.5,128C 135.208,128.89 133.542,126.057 138.5,119.5 Z"/></g>
<g><path style="opacity:1" fill="#1c53f0" d="M 63.5,126.5 C 79.0395,127.184 84.5395,134.85 80,149.5C 75.0164,156.362 68.5164,158.195 60.5,155C 52.6644,148.135 51.4977,140.301 57,131.5C 59.3256,129.934 61.4922,128.268 63.5,126.5 Z"/></g>
<g><path style="opacity:1" fill="#5781f3" d="M 104.5,128.5 C 104.5,129.833 104.5,131.167 104.5,132.5C 108.5,132.5 112.5,132.5 116.5,132.5C 112.366,133.485 108.032,133.818 103.5,133.5C 103.216,131.585 103.549,129.919 104.5,128.5 Z"/></g>
<g><path style="opacity:1" fill="#f3f6fe" d="M 173.5,155.5 C 174.461,157.265 174.795,159.265 174.5,161.5C 158.245,166.76 150.412,160.76 151,143.5C 156.373,132.82 164.373,130.153 175,135.5C 176.849,141.938 175.349,143.438 170.5,140C 160.833,138.669 157,142.836 159,152.5C 162.973,157.794 167.806,158.794 173.5,155.5 Z"/></g>
<g><path style="opacity:1" fill="#f4f7fe" d="M 206.5,154.5 C 207.461,156.265 207.795,158.265 207.5,160.5C 204.362,162.961 200.695,163.961 196.5,163.5C 183.636,162.443 178.47,155.443 181,142.5C 188.107,130.913 196.774,129.58 207,138.5C 209.132,142.208 209.965,146.208 209.5,150.5C 202.5,150.5 195.5,150.5 188.5,150.5C 190.319,157.147 194.652,159.314 201.5,157C 203.193,156.153 204.86,155.32 206.5,154.5 Z"/></g>
<g><path style="opacity:1" fill="#2657f0" d="M 201.5,143.5 C 197.366,144.485 193.032,144.818 188.5,144.5C 190.304,138.631 193.971,137.131 199.5,140C 200.823,140.816 201.489,141.983 201.5,143.5 Z"/></g>
<g><path style="opacity:1" fill="#7297f5" d="M 96.5,127.5 C 96.5,139.167 96.5,150.833 96.5,162.5C 98.8333,162.5 101.167,162.5 103.5,162.5C 103.5,154.833 103.5,147.167 103.5,139.5C 108.032,139.182 112.366,139.515 116.5,140.5C 112.5,140.5 108.5,140.5 104.5,140.5C 104.5,148.167 104.5,155.833 104.5,163.5C 101.5,163.5 98.5,163.5 95.5,163.5C 95.1716,151.322 95.5049,139.322 96.5,127.5 Z"/></g>
<g><path style="opacity:1" fill="#b2c6f9" d="M 124.5,139.5 C 124.5,147.5 124.5,155.5 124.5,163.5C 121.615,163.806 118.948,163.473 116.5,162.5C 118.833,162.5 121.167,162.5 123.5,162.5C 123.175,154.648 123.508,146.982 124.5,139.5 Z"/></g>
<g><path style="opacity:1" fill="#b3c7f9" d="M 136.5,139.5 C 137.492,146.982 137.825,154.648 137.5,162.5C 139.833,162.5 142.167,162.5 144.5,162.5C 142.052,163.473 139.385,163.806 136.5,163.5C 136.5,155.5 136.5,147.5 136.5,139.5 Z"/></g>
<g><path style="opacity:1" fill="#638cf4" d="M 201.5,143.5 C 202.043,143.56 202.376,143.893 202.5,144.5C 197.682,145.812 193.015,145.812 188.5,144.5C 193.032,144.818 197.366,144.485 201.5,143.5 Z"/></g>
<g><path style="opacity:1" fill="#5481f3" d="M 206.5,154.5 C 206.56,153.957 206.893,153.624 207.5,153.5C 208.797,155.973 208.797,158.307 207.5,160.5C 207.795,158.265 207.461,156.265 206.5,154.5 Z"/></g>
<g><path style="opacity:1" fill="#a7bef9" d="M 173.5,155.5 C 173.56,154.957 173.893,154.624 174.5,154.5C 175.797,156.973 175.797,159.307 174.5,161.5C 174.795,159.265 174.461,157.265 173.5,155.5 Z"/></g>
<g><path style="opacity:1" fill="#c7d4f4" d="M 226.5,250.5 C 212.205,252.483 197.538,253.15 182.5,252.5C 166.833,252.5 151.167,252.5 135.5,252.5C 130.167,252.5 124.833,252.5 119.5,252.5C 103.833,252.5 88.1667,252.5 72.5,252.5C 59.9887,252.829 47.6554,252.495 35.5,251.5C 99.2082,251.826 162.875,251.493 226.5,250.5 Z"/></g>
<g><path style="opacity:1" fill="#fcfcfc" d="M 72.5,252.5 C 88.1667,252.5 103.833,252.5 119.5,252.5C 119.5,255.833 119.5,259.167 119.5,262.5C 114.167,262.5 108.833,262.5 103.5,262.5C 103.5,267.5 103.5,272.5 103.5,277.5C 98.5,277.5 93.5,277.5 88.5,277.5C 88.5,272.5 88.5,267.5 88.5,262.5C 83.1667,262.5 77.8333,262.5 72.5,262.5C 72.5,267.5 72.5,272.5 72.5,277.5C 77.5111,277.334 82.5111,277.501 87.5,278C 88.056,278.383 88.3893,278.883 88.5,279.5C 82.8333,279.5 77.1667,279.5 71.5,279.5C 67.2853,277.564 62.6186,276.897 57.5,277.5C 57.5,272.5 57.5,267.5 57.5,262.5C 62.1785,262.666 66.8452,262.499 71.5,262C 72.4505,258.943 72.7839,255.777 72.5,252.5 Z"/></g>
<g><path style="opacity:1" fill="#fcfcfc" d="M 135.5,252.5 C 151.167,252.5 166.833,252.5 182.5,252.5C 182.5,255.833 182.5,259.167 182.5,262.5C 177.167,262.5 171.833,262.5 166.5,262.5C 166.5,267.5 166.5,272.5 166.5,277.5C 161.5,277.5 156.5,277.5 151.5,277.5C 151.5,272.5 151.5,267.5 151.5,262.5C 146.167,262.5 140.833,262.5 135.5,262.5C 135.5,267.5 135.5,272.5 135.5,277.5C 140.511,277.334 145.511,277.501 150.5,278C 151.056,278.383 151.389,278.883 151.5,279.5C 145.833,279.5 140.167,279.5 134.5,279.5C 130.285,277.564 125.619,276.897 120.5,277.5C 120.5,272.5 120.5,267.5 120.5,262.5C 125.179,262.666 129.845,262.499 134.5,262C 135.451,258.943 135.784,255.777 135.5,252.5 Z"/></g>
<g><path style="opacity:1" fill="#f0f0f0" d="M 119.5,252.5 C 124.833,252.5 130.167,252.5 135.5,252.5C 135.784,255.777 135.451,258.943 134.5,262C 129.845,262.499 125.179,262.666 120.5,262.5C 120.5,267.5 120.5,272.5 120.5,277.5C 125.619,276.897 130.285,277.564 134.5,279.5C 119.167,279.5 103.833,279.5 88.5,279.5C 88.3893,278.883 88.056,278.383 87.5,278C 82.5111,277.501 77.5111,277.334 72.5,277.5C 72.5,272.5 72.5,267.5 72.5,262.5C 77.8333,262.5 83.1667,262.5 88.5,262.5C 88.5,267.5 88.5,272.5 88.5,277.5C 93.5,277.5 98.5,277.5 103.5,277.5C 103.5,272.5 103.5,267.5 103.5,262.5C 108.833,262.5 114.167,262.5 119.5,262.5C 119.5,259.167 119.5,255.833 119.5,252.5 Z"/></g>
</svg>
