<svg width="233" height="151" viewBox="0 0 233 151" fill="none" xmlns="http://www.w3.org/2000/svg">
<rect width="232.308" height="151" rx="11.6154" fill="#404040"/>
<path d="M169.596 74.4105C160.012 59.2118 138.718 53.9684 122.034 62.6991L136.626 86.3141C138.302 88.9589 136.207 92.2649 132.855 92.2649H104.614C104.943 96.964 106.43 101.668 109.179 106.027C118.762 121.226 140.056 126.47 156.74 117.739C173.424 109.008 179.179 89.6093 169.596 74.4105Z" fill="#999999"/>
<path d="M94.6706 30.0302L58.3719 87.3059C57.5338 88.6283 58.5814 90.2813 60.2575 90.2813H132.855C134.531 90.2813 135.579 88.6283 134.741 87.3059L98.4419 30.0302C97.6038 28.7079 95.5086 28.7079 94.6706 30.0302Z" fill="#999999"/>
</svg>
